<svg viewBox="0 0 27 32" fill="none" xmlns="http://www.w3.org/2000/svg">
    <path d="M14.4991 5.06V6.1773L15.5696 6.4972C18.8053 7.46411 21.1657 10.4639 21.1657 14V17.3427C21.1657 19.6677 21.7983 21.9519 22.9955 23.9464C22.9955 23.9465 22.9956 23.9466 22.9957 23.9467L24.5275 26.5001H2.13783L3.67065 23.945L3.67087 23.9447C4.86639 21.9506 5.49905 19.668 5.49905 17.3427V14C5.49905 10.4639 7.85954 7.46411 11.0952 6.4972L12.1657 6.1773V5.06V2.66669C12.1657 2.02443 12.6901 1.5 13.3324 1.5C13.9746 1.5 14.4991 2.02443 14.4991 2.66669V5.06Z" stroke="black" stroke-width="3"/>
    <mask id="path-2-inside-1" fill="white">
    <path d="M9.13379 29.3333C9.88579 30.904 11.4778 32 13.3324 32C15.187 32 16.7791 30.904 17.5311 29.3333H9.13379Z"/>
    </mask>
    <path d="M17.5311 29.3333L20.237 30.6288L22.2935 26.3333H17.5311V29.3333ZM6.42792 30.6288C7.64954 33.1804 10.2571 35 13.3324 35V29C12.6985 29 12.122 28.6276 11.8397 28.0378L6.42792 30.6288ZM13.3324 35C16.4077 35 19.0153 33.1804 20.237 30.6288L14.8252 28.0378C14.5429 28.6276 13.9664 29 13.3324 29V35ZM17.5311 26.3333H9.13379V32.3333H17.5311V26.3333Z" fill="black" mask="url(#path-2-inside-1)"/>
</svg>
