<svg viewBox="0 0 60 60" fill="none" xmlns="http://www.w3.org/2000/svg">
<path d="M59 32C59.5527 32 60 31.5522 60 31V25C60 24.4478 59.5527 24 59 24H57.623C55.6893 20.2453 55.6893 15.7548 57.623 12H59C59.3848 12 59.7344 11.7797 59.9014 11.4331C60.0674 11.0869 60.0215 10.6753 59.7812 10.3755C57.7197 7.79937 57.7197 4.20075 59.7812 1.6245C60.0215 1.32475 60.0674 0.913125 59.9014 0.566875C59.7344 0.22025 59.3848 0 59 0H9C6.794 0 5 1.79437 5 4V8C5 9.1555 5.5 10.1897 6.286 10.9206C3.74125 12.2611 2 14.9295 2 18C2 20.3901 3.05913 22.5327 4.72625 24H4C1.794 24 0 25.7944 0 28C0 29.2004 0.54225 30.2663 1.38225 31C0.54225 31.7337 0 32.7996 0 34V38C0 40.2056 1.794 42 4 42H4.02563C1.58775 43.8254 0 46.727 0 50C0 55.5141 4.48637 60 10 60H59C59.3691 60 59.708 59.7969 59.8819 59.4716C60.0557 59.1464 60.0361 58.7519 59.8321 58.4453C56.4113 53.3149 56.4113 46.685 59.8321 41.5546C60.0363 41.248 60.0557 40.8535 59.8819 40.5283C59.708 40.203 59.3691 40 59 40H55.5298C53.8338 37.581 53.8338 34.419 55.5298 32H59ZM7 4C7 2.897 7.8975 2 9 2H57.1777C55.916 4.523 55.916 7.477 57.1777 10H9C7.8975 10 7 9.103 7 8V4ZM4 18C4 14.6914 6.69137 12 10 12H55.3924C53.7448 15.8175 53.7448 20.1825 55.3924 24H10C6.69137 24 4 21.3086 4 18ZM4 40C2.8975 40 2 39.103 2 38V34C2 32.897 2.8975 32 4 32H53.187C51.9236 34.5241 51.9236 37.4759 53.187 40H11H10H4ZM57.2441 42C54.6064 47.0146 54.6064 52.9854 57.2441 58H10C5.58887 58 2 54.4111 2 50C2 45.5889 5.58887 42 10 42H11H57.2441ZM4 30C2.8975 30 2 29.103 2 28C2 26.897 2.8975 26 4 26H58V30H4Z" fill="black"/>
<path d="M54 46V44H10C6.69138 44 4 46.6914 4 50C4 53.3086 6.69138 56 10 56H54V54H10V46H54ZM8 53.4436C6.81012 52.7498 6 51.4739 6 50C6 48.5261 6.81012 47.2501 8 46.5564V53.4436Z" fill="black"/>
<path d="M53 15V13H10C7.24312 13 5 15.2431 5 18C5 20.7569 7.24312 23 10 23H53V21H11V15H53ZM9 20.8156C7.8385 20.4015 7 19.3019 7 18C7 16.6981 7.8385 15.5984 9 15.1842V20.8156Z" fill="black"/>
<path d="M51 35V33H5C4.44725 33 4 33.4477 4 34V38C4 38.5522 4.44725 39 5 39H51V37H6V35H51Z" fill="black"/>
<path d="M55 5V3H9C8.44725 3 8 3.44775 8 4V8C8 8.55225 8.44725 9 9 9H55V7H10V5H55Z" fill="black"/>
</svg>
