<svg viewBox="0 0 32 33" xmlns="http://www.w3.org/2000/svg">
<path d="M32 0V32.0038H1.39203V0H32Z" fill="#645BD0"/>
<path d="M28.3578 6.65806V8.21955H10.234V6.65806H28.3578Z" fill="white"/>
<path d="M28.3578 12.1113V13.6728H10.234V12.1113H28.3578Z" fill="white"/>
<path d="M28.3578 17.5669V19.1284H10.234V17.5669H28.3578Z" fill="white"/>
<path d="M28.3578 23.0201V24.5831H10.234V23.0201H28.3578Z" fill="white"/>
<path d="M6.23745 0.549999V31.4523H2.17004V0.549999H6.23745Z" fill="white"/>
<path d="M3.23083 1.35887C3.23083 1.8696 3.5459 2.28559 3.94109 2.28559C4.33242 2.28559 4.65134 1.8696 4.65134 1.35887C4.65134 0.847361 4.33242 0.432163 3.94109 0.432163C3.5459 0.432163 3.23083 0.847361 3.23083 1.35887Z" fill="#9D96F0"/>
<path d="M3.23083 4.50419C3.23083 5.01492 3.5459 5.43014 3.94109 5.43014C4.33242 5.43014 4.65134 5.01492 4.65134 4.50419C4.65134 3.99345 4.33242 3.57746 3.94109 3.57746C3.5459 3.57746 3.23083 3.99345 3.23083 4.50419Z" fill="#9D96F0"/>
<path d="M3.23083 7.64871C3.23083 8.16099 3.5459 8.57927 3.94109 8.57927C4.33242 8.57927 4.65134 8.16099 4.65134 7.64871C4.65134 7.13874 4.33242 6.72199 3.94109 6.72199C3.5459 6.72199 3.23083 7.13874 3.23083 7.64871Z" fill="#9D96F0"/>
<path d="M3.23083 10.7963C3.23083 11.3063 3.5459 11.7246 3.94109 11.7246C4.33242 11.7246 4.65134 11.3063 4.65134 10.7963C4.65134 10.2825 4.33242 9.87038 3.94109 9.87038C3.5459 9.87038 3.23083 10.2825 3.23083 10.7963Z" fill="#9D96F0"/>
<path d="M3.23083 13.9386C3.23083 14.4531 3.5459 14.8676 3.94109 14.8676C4.33242 14.8676 4.65134 14.4531 4.65134 13.9386C4.65134 13.4286 4.33242 13.0141 3.94109 13.0141C3.5459 13.0141 3.23083 13.4286 3.23083 13.9386Z" fill="#9D96F0"/>
<path d="M3.23083 17.6323C3.23083 18.1446 3.5459 18.5575 3.94109 18.5575C4.33242 18.5575 4.65134 18.1446 4.65134 17.6323C4.65134 17.1224 4.33242 16.7064 3.94109 16.7064C3.5459 16.7064 3.23083 17.1224 3.23083 17.6323Z" fill="#9D96F0"/>
<path d="M3.23083 20.7807C3.23083 21.2907 3.5459 21.7059 3.94109 21.7059C4.33242 21.7059 4.65134 21.2907 4.65134 20.7807C4.65134 20.2669 4.33242 19.8502 3.94109 19.8502C3.5459 19.8502 3.23083 20.2669 3.23083 20.7807Z" fill="#9D96F0"/>
<path d="M3.23083 23.926C3.23083 24.4345 3.5459 24.8505 3.94109 24.8505C4.33242 24.8505 4.65134 24.4345 4.65134 23.926C4.65134 23.413 4.33242 22.9978 3.94109 22.9978C3.5459 22.9978 3.23083 23.413 3.23083 23.926Z" fill="#9D96F0"/>
<path d="M3.23083 27.0667C3.23083 27.5821 3.5459 27.9957 3.94109 27.9957C4.33242 27.9957 4.65134 27.5821 4.65134 27.0667C4.65134 26.5568 4.33242 26.1438 3.94109 26.1438C3.5459 26.1438 3.23083 26.5568 3.23083 27.0667Z" fill="#9D96F0"/>
<path d="M3.23083 30.2143C3.23083 30.7274 3.5459 31.1403 3.94109 31.1403C4.33242 31.1403 4.65134 30.7274 4.65134 30.2143C4.65134 29.7013 4.33242 29.2884 3.94109 29.2884C3.5459 29.2884 3.23083 29.7013 3.23083 30.2143Z" fill="#9D96F0"/>
<path d="M4.20299 1.45978C4.20299 1.80951 4.05277 2.09531 3.87097 2.09531H0.329709C0.148678 2.09531 0 1.80951 0 1.45978C0 1.10542 0.148678 0.824246 0.329709 0.824246H3.87097C4.05277 0.824246 4.20299 1.10542 4.20299 1.45978Z" fill="#9D96F0"/>
<path d="M4.24075 4.46642C4.24075 4.82078 4.0913 5.10349 3.90873 5.10349H0.370551C0.18644 5.10349 0.0369873 4.82078 0.0369873 4.46642C0.0369873 4.1136 0.18644 3.82934 0.370551 3.82934H3.90873C4.0913 3.82934 4.24075 4.1136 4.24075 4.46642Z" fill="#9D96F0"/>
<path d="M4.20299 7.68029C4.20299 8.03311 4.05277 8.31737 3.87097 8.31737H0.329709C0.148678 8.31737 0 8.03311 0 7.68029C0 7.32902 0.148678 7.04553 0.329709 7.04553H3.87097C4.05277 7.04553 4.20299 7.32902 4.20299 7.68029Z" fill="#9D96F0"/>
<path d="M4.27924 10.7586C4.27924 11.1091 4.12902 11.3933 3.94645 11.3933H0.405958C0.223387 11.3933 0.074707 11.1091 0.074707 10.7586C0.074707 10.405 0.223387 10.1215 0.405958 10.1215H3.94645C4.12902 10.1215 4.27924 10.405 4.27924 10.7586Z" fill="#9D96F0"/>
<path d="M4.20299 14.0379C4.20299 14.39 4.05277 14.6773 3.87097 14.6773H0.329709C0.148678 14.6773 0 14.39 0 14.0379C0 13.6882 0.148678 13.4039 0.329709 13.4039H3.87097C4.05277 13.4039 4.20299 13.6882 4.20299 14.0379Z" fill="#9D96F0"/>
<path d="M4.24075 17.5961C4.24075 17.9474 4.0913 18.2317 3.90873 18.2317H0.370551C0.18644 18.2317 0.0369873 17.9474 0.0369873 17.5961C0.0369873 17.241 0.18644 16.9598 0.370551 16.9598H3.90873C4.0913 16.9598 4.24075 17.241 4.24075 17.5961Z" fill="#9D96F0"/>
<path d="M4.20299 20.81C4.20299 21.1605 4.05277 21.4455 3.87097 21.4455H0.329709C0.148678 21.4455 0 21.1605 0 20.81C0 20.4572 0.148678 20.1752 0.329709 20.1752H3.87097C4.05277 20.1752 4.20299 20.4572 4.20299 20.81Z" fill="#9D96F0"/>
<path d="M4.20299 23.8844C4.20299 24.2388 4.05277 24.5215 3.87097 24.5215H0.329709C0.148678 24.5215 0 24.2388 0 23.8844C0 23.537 0.148678 23.2512 0.329709 23.2512H3.87097C4.05277 23.2512 4.20299 23.537 4.20299 23.8844Z" fill="#9D96F0"/>
<path d="M4.20299 27.1022C4.20299 27.4511 4.05277 27.7369 3.87097 27.7369H0.329709C0.148678 27.7369 0 27.4511 0 27.1022C0 26.7486 0.148678 26.4643 0.329709 26.4643H3.87097C4.05277 26.4643 4.20299 26.7486 4.20299 27.1022Z" fill="#9D96F0"/>
<path d="M4.20299 30.1774C4.20299 30.5286 4.05277 30.8106 3.87097 30.8106H0.329709C0.148678 30.8106 0 30.5286 0 30.1774C0 29.8245 0.148678 29.5387 0.329709 29.5387H3.87097C4.05277 29.5387 4.20299 29.8245 4.20299 30.1774Z" fill="#9D96F0"/>
</svg>
