<svg viewBox="0 0 33 32" xmlns="http://www.w3.org/2000/svg">
    <path fill-rule="evenodd" clip-rule="evenodd" d="M26.08 15.952C25.536 16.944 24.48 17.6 23.28 17.6H11.36L9.6 20.8H28.8V24H9.6C7.168 24 5.632 21.392 6.8 19.248L8.96 15.344L3.2 3.2H0V0H5.232L6.736 3.2H30.416C31.632 3.2 32.4 4.512 31.808 5.568L26.08 15.952ZM27.696 6.39997H8.25599L12.048 14.4H23.28L27.696 6.39997ZM9.6 25.6C7.84 25.6 6.416 27.04 6.416 28.8C6.416 30.56 7.84 32 9.6 32C11.36 32 12.8 30.56 12.8 28.8C12.8 27.04 11.36 25.6 9.6 25.6ZM22.416 28.8C22.416 27.04 23.84 25.6 25.6 25.6C27.36 25.6 28.8 27.04 28.8 28.8C28.8 30.56 27.36 32 25.6 32C23.84 32 22.416 30.56 22.416 28.8Z" />
</svg>
