<svg viewBox="0 0 50 79" fill="none" xmlns="http://www.w3.org/2000/svg">
<path d="M13.5648 1.58102C11.4336 1.58102 10.6799 3.38608 10.6799 4.93044C10.6799 6.47273 11.4336 8.27476 13.5648 8.27476H36.4401C38.5682 8.27476 39.322 6.47273 39.322 4.93044C39.322 3.38608 38.5682 1.58102 36.4401 1.58102H13.5648ZM36.4401 9.26636H13.5648C11.2177 9.26636 9.6429 7.52281 9.6429 4.93044C9.6429 2.33106 11.2177 0.58831 13.5648 0.58831H36.4401C38.7836 0.58831 40.3565 2.33106 40.3565 4.93044C40.3565 7.52281 38.7836 9.26636 36.4401 9.26636Z" fill="#313C49"/>
<path d="M13.5649 2.17551C11.4088 2.17551 11.2993 4.46784 11.2993 4.93042C11.2993 5.38789 11.4088 7.68341 13.5649 7.68341H36.4402C38.5926 7.68341 38.702 5.38789 38.702 4.93042C38.702 4.46784 38.5926 2.17551 36.4402 2.17551H13.5649ZM36.4402 9.85703H13.5649C10.8896 9.85703 9.02227 7.83032 9.02227 4.93042C9.02227 2.02541 10.8896 -1.71661e-05 13.5649 -1.71661e-05H36.4402C39.1128 -1.71661e-05 40.9783 2.02541 40.9783 4.93042C40.9783 7.83032 39.1128 9.85703 36.4402 9.85703Z" fill="#645BD0"/>
<path d="M25.001 77.1258C27.5398 77.1258 29.8771 77.1581 32.0145 77.1879C33.8071 77.2166 35.4579 77.2391 36.9655 77.2391C44.8854 77.2391 48.4171 76.5649 48.4171 72.5783C48.4171 62.6242 36.1818 32.6962 36.0568 32.3233L36.0311 32.1702V10.0436C36.0007 10.0436 35.9702 10.0468 35.9372 10.0468H14.0653C14.0336 10.0468 14.0006 10.0436 13.9688 10.0436L13.9445 32.3233C13.8195 32.6962 1.58486 62.6242 1.58486 72.5783C1.58486 76.5649 5.10907 77.2391 13.0103 77.2391C14.5203 77.2391 16.1704 77.2166 17.9661 77.1879C20.1067 77.1581 22.4521 77.1258 25.001 77.1258ZM36.9655 78.2299C35.4541 78.2299 33.7992 78.2063 32.0008 78.1776C29.8672 78.1472 27.5349 78.1136 25.001 78.1136C22.4564 78.1136 20.1172 78.1472 17.9785 78.1776C16.1797 78.2063 14.5235 78.2299 13.0103 78.2299C5.74024 78.2299 0.593895 77.8242 0.593895 72.5783C0.593895 62.5918 12.1924 34.4682 12.9797 32.0935V8.92326L13.6439 9.01728C13.7803 9.03465 13.9171 9.05712 14.0653 9.05712H35.9372C36.0853 9.05712 36.2223 9.03465 36.3586 9.01728L36.4581 8.99992L37.0227 8.92326V32.0935C37.8089 34.4682 49.4074 62.5918 49.4074 72.5783C49.4074 77.8242 44.2504 78.2299 36.9655 78.2299Z" fill="#313C49"/>
<path d="M25.001 75.6818C27.4278 75.6818 29.6717 75.7137 31.7326 75.7422L32.0226 75.7484C33.8133 75.7741 35.4603 75.7983 36.9655 75.7983C45.4891 75.7983 47.8214 74.9249 47.8214 71.7301C47.8214 63.5063 39.3556 41.3669 35.7169 32.235C35.5805 31.8927 35.5021 31.6916 35.4933 31.6674L35.4461 31.4177L35.4393 9.79295L14.5601 9.79613L14.5078 31.6674C14.4992 31.6916 14.42 31.8927 14.2838 32.235C10.6437 41.3669 2.1768 63.5063 2.1768 71.7301C2.1768 74.9249 4.50722 75.7983 13.0103 75.7983C14.5179 75.7983 16.1655 75.7741 17.9581 75.7484L18.2456 75.7422C20.3115 75.7137 22.5622 75.6818 25.001 75.6818ZM36.9655 77.9749C35.4541 77.9749 33.7917 77.9475 31.9941 77.9239L31.7078 77.922C29.6549 77.8933 27.4192 77.8597 25.001 77.8597C22.5716 77.8597 20.3288 77.8933 18.271 77.922L17.9879 77.9239C16.1854 77.9475 14.5265 77.9749 13.0103 77.9749C6.9122 77.9749 0 77.9749 0 71.7301C0 63.197 8.2405 41.8959 11.3447 33.8764C11.8662 32.5252 12.2365 31.5702 12.3847 31.1483V7.39354L13.7261 7.57774C13.8811 7.60324 13.97 7.61328 14.0653 7.61328H35.9372C36.0311 7.61328 36.1208 7.60324 36.2092 7.58588L37.6177 7.38972V31.1483C37.7628 31.5702 38.1325 32.5252 38.6572 33.8764C41.7576 41.8959 50 63.197 50 71.7301C50 77.9749 43.0771 77.9749 36.9655 77.9749Z" fill="#645BD0"/>
<path d="M8.48827 54.0128C6.04202 62.847 4.0609 68.8194 4.0609 72.5783C4.0609 73.6539 4.0609 74.7599 13.0103 74.7599C14.5078 74.7599 16.146 74.7344 17.9307 74.7119C20.0812 74.6802 22.4377 74.6447 25.001 74.6447C27.5505 74.6447 29.9032 74.6802 32.0513 74.7119C33.8302 74.7344 35.4691 74.7599 36.9655 74.7599C45.9385 74.7599 45.9385 73.6539 45.9385 72.5783C45.9385 68.8194 43.9573 62.847 41.5124 54.0128H8.48827Z" fill="#9D96F0"/>
<path d="M28.5108 44.8462C28.5108 47.4703 26.3846 49.5979 23.7605 49.5979C21.1399 49.5979 19.0131 47.4703 19.0131 44.8462C19.0131 42.2232 21.1399 40.0995 23.7605 40.0995C26.3846 40.0995 28.5108 42.2232 28.5108 44.8462Z" fill="#645BD0"/>
<path d="M31.775 31.7879C31.775 33.5919 30.3159 35.0476 28.5109 35.0476C26.709 35.0476 25.2449 33.5919 25.2449 31.7879C25.2449 29.9792 26.709 28.5226 28.5109 28.5226C30.3159 28.5226 31.775 29.9792 31.775 31.7879Z" fill="#645BD0"/>
<path d="M27.1939 22.2827C27.1939 23.5238 26.1886 24.5298 24.9493 24.5298C23.7082 24.5298 22.7055 23.5238 22.7055 22.2827C22.7055 21.0497 23.7082 20.0395 24.9493 20.0395C26.1886 20.0395 27.1939 21.0497 27.1939 22.2827Z" fill="#645BD0"/>
<path d="M31.6356 60.2802C31.6356 61.3557 30.7691 62.221 29.7003 62.221C28.6284 62.221 27.7621 61.3557 27.7621 60.2802C27.7621 59.2127 28.6284 58.3456 29.7003 58.3456C30.7691 58.3456 31.6356 59.2127 31.6356 60.2802Z" fill="#645BD0"/>
</svg>
