<svg viewBox="0 0 8 8" xmlns="http://www.w3.org/2000/svg">
<path d="M5.42527 4.70643L4.30984 3.86986V2.16577C4.30984 1.99443 4.17134 1.85593 4 1.85593C3.82865 1.85593 3.69016 1.99443 3.69016 2.16577V4.0248C3.69016 4.1224 3.73601 4.21443 3.81409 4.27268L5.05344 5.20219C5.1092 5.24402 5.17428 5.26416 5.23903 5.26416C5.33353 5.26416 5.42648 5.22171 5.48722 5.13991C5.59011 5.00326 5.56222 4.80899 5.42527 4.70643Z" fill="#B2ABAB"/>
<path d="M4 0C1.79427 0 0 1.79427 0 4C0 6.20573 1.79427 8 4 8C6.20573 8 8 6.20573 8 4C8 1.79427 6.20573 0 4 0ZM4 7.38033C2.13633 7.38033 0.619672 5.86367 0.619672 4C0.619672 2.13633 2.13633 0.619672 4 0.619672C5.86398 0.619672 7.38033 2.13633 7.38033 4C7.38033 5.86367 5.86367 7.38033 4 7.38033Z" fill="#B2ABAB"/>
</svg>
