<svg viewBox="0 0 41 35" fill="none" xmlns="http://www.w3.org/2000/svg">
    <path d="M20.1389 6.12558C20.3487 4.44734 18.7543 1.21673 10.6988 1.7202C2.64321 2.22367 1.04889 4.44734 1.25867 5.49624L0.629333 23.1178L1.25867 25.6351L3.14669 26.8938L9.4401 28.1525L10.6988 29.4112C13.8455 32.5579 15.1042 32.5579 20.1389 33.1872C24.1667 33.6907 28.1105 31.2992 29.579 30.0405V19.3417C29.579 17.3278 23.2856 15.9852 20.1389 15.5657V6.12558Z" fill="white"/>
    <path d="M20.1389 27.6805C19.7046 27.6805 19.3522 28.0329 19.3522 28.4672C19.3522 28.9014 19.7046 29.2538 20.1389 29.2538C20.5731 29.2538 20.9256 28.9014 20.9256 28.4672C20.9256 28.0329 20.5731 27.6805 20.1389 27.6805Z" fill="#C2C2C2"/>
    <path fill-rule="evenodd" clip-rule="evenodd" d="M30.3657 29.2471V27.6727V24.5269V22.9527V19.8137L30.3655 19.807L29.8336 18.2402C29.2144 17.3683 28.0749 16.6243 26.4911 16.0665C24.9124 15.5105 22.9607 15.1765 20.9256 15.1076V5.65358C20.7682 4.23757 19.5095 2.97889 17.5497 2.14273C15.6139 1.36298 13.097 0.933533 10.4628 0.933533C7.8286 0.933533 5.31171 1.36298 3.37586 2.14265C1.19889 3.01948 0 4.26636 0 5.65358V24.5338C0 25.921 1.19889 27.1679 3.37586 28.0447C5.17632 28.7699 7.47955 29.1915 9.91211 29.2471V29.2538C9.91211 31.9447 14.3087 33.9739 20.1389 33.9739C25.9691 33.9739 30.3657 31.9447 30.3657 29.2538V29.2471ZM16.9619 12.4251C18.4363 11.8313 19.3522 11.0452 19.3522 10.3736V8.20131C18.8592 8.5561 18.2564 8.8799 17.5497 9.16452C15.6139 9.94419 13.097 10.3736 10.4628 10.3736C7.8286 10.3736 5.31171 9.94419 3.37586 9.16452C2.66919 8.8799 2.06636 8.5561 1.57335 8.20131V10.3736C1.57335 11.0452 2.48928 11.8313 3.96366 12.4251C5.69175 13.1212 8.06059 13.5203 10.4628 13.5203C12.865 13.5203 15.2338 13.1212 16.9619 12.4251ZM10.4628 15.0937C7.8286 15.0937 5.31171 14.6642 3.37586 13.8846C2.66919 13.5999 2.06636 13.2762 1.57335 12.9214V15.0937C1.57335 15.7653 2.48928 16.5513 3.96366 17.1452C5.68735 17.8394 8.04855 18.2381 10.4445 18.2402C11.064 17.3678 12.2034 16.6242 13.7867 16.0665C15.3653 15.5105 17.3171 15.1765 19.3522 15.1076V12.9214C18.8592 13.2762 18.2564 13.5999 17.5497 13.8846C15.6139 14.6642 13.097 15.0937 10.4628 15.0937ZM3.37586 18.6046C2.66919 18.32 2.06636 17.9962 1.57335 17.6414V19.8137C1.57335 20.4853 2.48928 21.2714 3.96374 21.8652C5.55951 22.5079 7.70187 22.8968 9.91219 22.9527V19.8137L9.91235 19.807C7.47971 19.7514 5.1764 19.3298 3.37586 18.6046ZM20.1389 16.667C15.5167 16.667 12.1517 18.0705 11.5687 19.4272C11.5129 19.5579 11.4855 19.6848 11.4855 19.8137C11.4855 20.5054 12.3381 21.2737 13.7664 21.8688C15.4559 22.5728 17.719 22.9604 20.1389 22.9604C22.5588 22.9604 24.8219 22.5728 26.5114 21.8688C27.9396 21.2737 28.7923 20.5054 28.7923 19.8137C28.7923 19.6848 28.7649 19.5579 28.7085 19.4257C28.1261 18.0705 24.7611 16.667 20.1389 16.667ZM10.4628 2.50688C8.06059 2.50688 5.69175 2.90604 3.96366 3.60209C2.48928 4.19595 1.57335 4.982 1.57335 5.65358C1.57335 6.32517 2.48928 7.11122 3.96366 7.70508C5.69175 8.40113 8.06059 8.80029 10.4628 8.80029C12.865 8.80029 15.2338 8.40113 16.9619 7.70508C18.4363 7.11122 19.3522 6.32517 19.3522 5.65358C19.3522 4.982 18.4363 4.19595 16.9619 3.60209C15.2338 2.90604 12.865 2.50688 10.4628 2.50688ZM1.57335 24.5338C1.57335 25.2054 2.48928 25.9914 3.96366 26.5853C5.55943 27.2281 7.70179 27.6169 9.91211 27.6728V24.527C7.47955 24.4715 5.17632 24.0498 3.37586 23.3247C2.66919 23.0401 2.06636 22.7163 1.57335 22.3615V24.5338ZM20.1389 32.4005C22.5588 32.4005 24.8219 32.0129 26.5114 31.3089C27.9396 30.7138 28.7923 29.9455 28.7923 29.2538V27.1274C28.6141 27.2563 28.4172 27.3845 28.1988 27.5108C26.9771 28.2178 25.315 28.7406 23.3919 29.0229C23.3532 29.0285 23.3147 29.0313 23.2767 29.0313C22.8928 29.0313 22.5568 28.75 22.4994 28.3588C22.4362 27.9289 22.7336 27.5293 23.1634 27.4662C26.8195 26.9295 28.7923 25.5548 28.7923 24.5338V22.4003C27.0118 23.7032 23.8688 24.5338 20.1389 24.5338C16.409 24.5338 13.266 23.7032 11.4855 22.4003V24.5338C11.4855 25.5548 13.4583 26.9295 17.1144 27.4662C17.5441 27.5293 17.8415 27.9289 17.7784 28.3588C17.721 28.7499 17.385 29.0313 17.0011 29.0313C16.963 29.0313 16.9246 29.0285 16.8858 29.0229C14.9627 28.7406 13.3006 28.2177 12.0789 27.5108C11.8605 27.3845 11.6636 27.2563 11.4855 27.1274V29.2538C11.4855 29.9455 12.3381 30.7138 13.7664 31.3089C15.4559 32.0129 17.719 32.4005 20.1389 32.4005Z" fill="#C2C2C2"/>
</svg>
