<svg viewBox="0 0 41 36" fill="none" xmlns="http://www.w3.org/2000/svg">
    <path d="M20.8611 6.81077C21.0709 5.13252 19.4766 1.90191 11.421 2.40538C3.36544 2.90886 1.77111 5.13252 1.98089 6.18143L1.35156 23.803L1.9809 26.3203L3.86892 27.579L10.1623 28.8377L11.421 30.0964C14.5677 33.2431 15.8264 33.2431 20.8611 33.8724C24.8889 34.3759 28.8328 31.9844 30.3012 30.7257V20.0269C30.3012 18.013 24.0078 16.6704 20.8611 16.2509V6.81077Z" fill="white"/>
    <path d="M20.8611 28.3657C20.4269 28.3657 20.0745 28.7181 20.0745 29.1523C20.0745 29.5866 20.4269 29.939 20.8611 29.939C21.2954 29.939 21.6478 29.5866 21.6478 29.1523C21.6478 28.7181 21.2954 28.3657 20.8611 28.3657Z" fill="#808080"/>
    <path fill-rule="evenodd" clip-rule="evenodd" d="M31.0879 29.9323V28.3579V25.2121V23.6378V20.4989L31.0877 20.4922L30.5558 18.9253C29.9367 18.0535 28.7972 17.3095 27.2133 16.7517C25.6347 16.1956 23.6829 15.8617 21.6478 15.7928V6.33877C21.4905 4.92275 20.2318 3.66407 18.2719 2.82791C16.3361 2.04816 13.8192 1.61871 11.185 1.61871C8.55083 1.61871 6.03394 2.04816 4.09809 2.82783C1.92112 3.70466 0.722229 4.95154 0.722229 6.33877V25.219C0.722229 26.6062 1.92112 27.8531 4.09809 28.7299C5.89855 29.4551 8.20178 29.8767 10.6343 29.9323V29.939C10.6343 32.6299 15.0309 34.6591 20.8611 34.6591C26.6913 34.6591 31.0879 32.6299 31.0879 29.939V29.9323ZM17.6841 13.1103C19.1585 12.5164 20.0744 11.7304 20.0744 11.0588V8.88649C19.5814 9.24128 18.9786 9.56508 18.2719 9.8497C16.3361 10.6294 13.8192 11.0588 11.185 11.0588C8.55083 11.0588 6.03394 10.6294 4.09809 9.8497C3.39142 9.56508 2.78859 9.24128 2.29558 8.88649V11.0588C2.29558 11.7304 3.21151 12.5164 4.68589 13.1103C6.41398 13.8064 8.78282 14.2055 11.185 14.2055C13.5872 14.2055 15.956 13.8064 17.6841 13.1103ZM11.185 15.7789C8.55083 15.7789 6.03394 15.3494 4.09809 14.5697C3.39142 14.2851 2.78859 13.9613 2.29558 13.6065V15.7789C2.29558 16.4505 3.21151 17.2365 4.68589 17.8304C6.40958 18.5246 8.77078 18.9233 11.1667 18.9253C11.7863 18.053 12.9256 17.3093 14.509 16.7517C16.0876 16.1957 18.0393 15.8617 20.0744 15.7928V13.6065C19.5814 13.9613 18.9786 14.2851 18.2719 14.5697C16.3361 15.3494 13.8192 15.7789 11.185 15.7789ZM4.09809 19.2898C3.39142 19.0052 2.78859 18.6814 2.29558 18.3266V20.4989C2.29558 21.1705 3.21151 21.9566 4.68597 22.5504C6.28174 23.1931 8.4241 23.582 10.6344 23.6378V20.4989L10.6346 20.4922C8.20194 20.4366 5.89863 20.015 4.09809 19.2898ZM20.8611 17.3522C16.2389 17.3522 12.8739 18.7556 12.2909 20.1124C12.2351 20.2431 12.2077 20.37 12.2077 20.4989C12.2077 21.1906 13.0604 21.9588 14.4887 22.554C16.1781 23.2579 18.4412 23.6456 20.8611 23.6456C23.281 23.6456 25.5441 23.2579 27.2336 22.554C28.6619 21.9588 29.5145 21.1906 29.5145 20.4989C29.5145 20.37 29.4872 20.2431 29.4307 20.1109C28.8483 18.7556 25.4833 17.3522 20.8611 17.3522ZM11.185 3.19206C8.78282 3.19206 6.41398 3.59122 4.68589 4.28727C3.21151 4.88113 2.29558 5.66718 2.29558 6.33877C2.29558 7.01035 3.21151 7.7964 4.68589 8.39026C6.41398 9.08631 8.78282 9.48547 11.185 9.48547C13.5872 9.48547 15.956 9.08631 17.6841 8.39026C19.1585 7.7964 20.0744 7.01035 20.0744 6.33877C20.0744 5.66718 19.1585 4.88113 17.6841 4.28727C15.956 3.59122 13.5872 3.19206 11.185 3.19206ZM2.29558 25.219C2.29558 25.8906 3.21151 26.6766 4.68589 27.2705C6.28166 27.9133 8.42402 28.302 10.6343 28.358V25.2122C8.20178 25.1567 5.89855 24.735 4.09809 24.0099C3.39142 23.7252 2.78859 23.4014 2.29558 23.0466V25.219ZM20.8611 33.0857C23.281 33.0857 25.5441 32.698 27.2336 31.9941C28.6619 31.3989 29.5145 30.6307 29.5145 29.939V27.8126C29.3364 27.9415 29.1394 28.0696 28.9211 28.196C27.6994 28.903 26.0372 29.4258 24.1142 29.7081C24.0755 29.7137 24.0369 29.7165 23.9989 29.7165C23.615 29.7165 23.279 29.4352 23.2216 29.0439C23.1584 28.6141 23.4558 28.2145 23.8856 28.1514C27.5417 27.6146 29.5145 26.24 29.5145 25.219V23.0855C27.734 24.3884 24.591 25.219 20.8611 25.219C17.1313 25.219 13.9883 24.3884 12.2077 23.0855V25.219C12.2077 26.24 14.1805 27.6146 17.8366 28.1514C18.2663 28.2145 18.5637 28.6141 18.5006 29.0439C18.4432 29.4351 18.1072 29.7165 17.7233 29.7165C17.6852 29.7165 17.6468 29.7137 17.6081 29.7081C15.685 29.4258 14.0228 28.9029 12.8012 28.196C12.5828 28.0696 12.3859 27.9415 12.2077 27.8126V29.939C12.2077 30.6307 13.0604 31.3989 14.4887 31.9941C16.1781 32.698 18.4412 33.0857 20.8611 33.0857Z" fill="#808080"/>
</svg>
