<svg viewBox="0 0 34 38" xmlns="http://www.w3.org/2000/svg">
<path d="M10.4291 28.1864C10.017 27.4768 9.60144 26.639 9.16898 25.6192L8.88041 24.9355L9.39116 24.4025C11.2436 22.4718 11.4926 20.1604 10.2021 16.9229C10.0903 16.6489 9.94138 16.3449 9.74597 16.0084C8.79364 14.3685 7.00952 12.3251 5.55904 10.7272L5.16258 10.2889L5.29885 9.71209C5.76171 7.77568 6.74909 6.31809 8.15733 5.5003L9.46237 4.74243C10.8662 3.92721 12.623 3.79118 14.5372 4.34719L15.1087 4.51299L15.2899 5.07625C15.9618 7.12628 16.8508 9.6895 17.8056 11.3335C17.9986 11.6659 18.1861 11.9514 18.3699 12.1797C20.5437 14.9043 22.6732 15.8344 25.2711 15.1807L25.9887 15.0004L26.4365 15.5916C27.102 16.476 27.632 17.2528 28.0444 17.963C28.3344 18.4624 28.5695 18.9352 28.7423 19.3618C29.5562 21.4086 31.9588 27.4472 25.9688 32.1613L24.9818 32.7158L23.7937 33.4244C16.7276 36.2922 12.6707 31.2112 11.3007 29.4904C11.0129 29.1307 10.7218 28.6904 10.4291 28.1864Z" fill="#645BD0"/>
<path d="M17.4941 12.8716C16.2621 11.3308 15.149 8.24603 14.2287 5.42529C12.7961 5.00237 11.2747 4.98704 10.0272 5.7115L9.49197 6.02234L9.25749 6.1585L8.72219 6.46936C7.47616 7.19296 6.73547 8.52188 6.39273 9.97583C8.38653 12.1732 10.5156 14.668 11.2418 16.5025C12.2762 19.0953 12.8986 22.3572 10.1996 25.1763C10.8199 26.6385 11.4843 27.9218 12.1811 28.7958C14.6169 31.8527 18.3329 34.8933 24.2556 31.9852L24.2697 32.0094C24.3126 31.9815 24.3378 31.9536 24.3806 31.9288C24.4204 31.9057 24.4645 31.8933 24.5041 31.8732L24.4901 31.8491C29.9498 28.1471 29.1491 23.4135 27.7057 19.7803C27.2906 18.7428 26.5038 17.5305 25.5442 16.2653C21.7574 17.218 19.2334 15.0551 17.4941 12.8716Z" fill="#4C43BD"/>
<path d="M16.0627 15.0994C16.323 15.5475 16.0432 16.1897 15.4431 16.5382C14.8414 16.8876 14.1435 16.8132 13.8833 16.365L9.00715 7.96836C8.74656 7.51964 9.02575 6.87302 9.62739 6.52364C10.2276 6.17511 10.926 6.25398 11.1866 6.7027L16.0627 15.0994Z" fill="white"/>
<path d="M9.34991 25.8716C8.32737 23.4758 7.40415 20.572 6.66192 18.2379C6.29041 17.0786 5.95828 16.0244 5.66579 15.1914C5.12934 13.6734 4.50003 11 5.50003 9.5L7.00003 8L7.40034 9.47544C9.01909 11.2544 10.816 13.3267 11.866 15.1347C12.1162 15.5656 12.3165 15.9716 12.4642 16.3449C13.0548 17.8305 14.863 22.3634 11.1882 26.2019L10.0168 27.4308L9.34991 25.8716Z" fill="#9D96F0"/>
<path d="M15.8651 12.4604C14.8187 10.6448 13.9094 8.05704 13.1622 5.77196L11.8965 4.7586L14.5388 4.34625C16.2751 4.85394 17.9353 5.87923 18.9864 7.09836C19.5598 7.75979 20.3064 8.5701 21.1265 9.46275C22.7884 11.2652 24.8566 13.5126 26.4381 15.5907L27.4642 16.9365L25.8139 17.351C20.6651 18.6411 17.6197 14.8298 16.6173 13.5756C16.3663 13.2623 16.1129 12.8871 15.8651 12.4604Z" fill="#9D96F0"/>
</svg>
