<svg viewBox="0 0 32 32" fill="none" xmlns="http://www.w3.org/2000/svg">
<path d="M8.98789 32C8.07808 32 7.34195 31.5625 7.34195 31.0302C7.34195 30.4928 8.07808 30.0599 8.98789 30.0599C9.89702 30.0599 10.6331 30.4928 10.6331 31.0302C10.6331 31.5625 9.89702 32 8.98789 32Z" fill="#645BD0"/>
<path d="M7.27234 19.5571V18.4424C7.27234 18.4424 7.73828 18.4424 9.05682 18.4424C10.1693 18.4424 10.7035 18.4424 10.7035 18.4424V19.5571H7.27234Z" fill="white"/>
<path d="M9.8412 2.33051C9.8412 2.33051 9.31392 -4.76837e-07 8.87831 -4.76837e-07C8.31105 -4.76837e-07 7.98021 2.37173 7.98021 2.37173L9.8412 2.33051Z" fill="#645BD0"/>
<path d="M9.63167 2.14586C9.63167 2.14586 9.23122 0.388807 8.90175 0.388807C8.4751 0.388807 8.22353 2.18163 8.22353 2.18163L9.63167 2.14586Z" fill="white"/>
<path d="M9.80466 1.95066C9.80466 1.95066 9.03476 2.08093 8.84177 2.08093H8.83695C8.65292 2.08093 7.95263 1.96086 7.95263 1.96086C7.95263 1.96086 7.51633 4.89585 7.44603 6.23425C8.06498 6.48948 8.4937 6.56109 9.07888 6.5431C9.74884 6.52043 10.1321 6.38395 10.5291 6.26065C10.4464 5.02888 9.80466 1.95066 9.80466 1.95066Z" fill="#645BD0"/>
<path d="M9.05682 6.3067C7.73828 6.3067 7.27234 6.3067 7.27234 6.3067V17.5443V18.5439V30.0908H10.7035V18.5439V17.5443V6.3067C10.7035 6.3067 10.1693 6.3067 9.05682 6.3067Z" fill="#645BD0"/>
<path d="M7.27234 7.00641V6.30668C7.27234 6.30668 7.73828 6.30668 9.05682 6.30668C10.1693 6.30668 10.7035 6.30668 10.7035 6.30668V7.00641H7.27234Z" fill="white"/>
<path d="M7.27234 30.9863V29.869C7.27234 29.869 7.73828 29.869 9.05682 29.869C10.1693 29.869 10.7035 29.869 10.7035 29.869V30.9863H7.27234Z" fill="white"/>
<path d="M9.11955 30.2158C8.68532 30.2158 8.33104 30.4761 8.33104 30.1764V19.9932C8.33104 19.6949 8.68532 19.4537 9.11955 19.4537C9.55241 19.4537 9.90462 19.6949 9.90462 19.9932V30.1764C9.90462 30.4761 9.55241 30.2158 9.11955 30.2158Z" fill="white"/>
<path d="M19.5907 19.6901L19.4804 11.2128L24.0164 15.2732L19.5907 19.6901ZM14.686 32L31.184 14.9033L14.7315 0.401966L14.686 32Z" fill="#9D96F0"/>
<path d="M15.2208 27.9404L17.1066 27.9383V28.3857L15.2215 28.3893L15.2208 27.9404Z" fill="white"/>
<path d="M15.2195 26.8094L17.1039 26.8053L17.1053 27.2539L15.2195 27.2552V26.8094Z" fill="white"/>
<path d="M15.2133 25.5868L18.0619 25.5784V26.2084L15.2174 26.2138L15.2133 25.5868Z" fill="white"/>
<path d="M15.1698 24.4527L17.057 24.4473V24.8967L15.1698 24.9002V24.4527Z" fill="white"/>
<path d="M15.1671 23.3197L17.0556 23.3162V23.7621L15.1671 23.7663V23.3197Z" fill="white"/>
<path d="M15.1636 22.0963L18.0109 22.0906L18.0116 22.7185L15.1657 22.7268L15.1636 22.0963Z" fill="white"/>
<path d="M15.1202 20.9671L17.0102 20.9609L17.0122 21.407L15.123 21.4124L15.1202 20.9671Z" fill="white"/>
<path d="M15.1188 19.8328L17.0053 19.8271L17.0074 20.2746L15.1188 20.2795V19.8328Z" fill="white"/>
<path d="M15.1161 18.6099L17.9627 18.6031L17.9641 19.2315L15.1188 19.2412L15.1161 18.6099Z" fill="white"/>
<path d="M15.0727 17.4788L16.9598 17.4753L16.9605 17.9207L15.0727 17.9255V17.4788Z" fill="white"/>
<path d="M15.0692 16.3458L16.9585 16.3389V16.7903L15.0713 16.7938L15.0692 16.3458Z" fill="white"/>
<path d="M15.0671 15.1217L17.9124 15.1114L17.9151 15.7468L15.0692 15.7516L15.0671 15.1217Z" fill="white"/>
<path d="M15.1299 13.9892L17.0163 13.983V14.4337L15.1319 14.4351L15.1299 13.9892Z" fill="white"/>
<path d="M15.1257 12.8559L17.0122 12.8519L17.015 13.3021L15.1278 13.3039L15.1257 12.8559Z" fill="white"/>
<path d="M15.123 11.6312L17.9689 11.625L17.971 12.2563L15.1257 12.2625L15.123 11.6312Z" fill="white"/>
<path d="M15.0795 10.5009L16.9674 10.4966V10.9454L15.0795 10.9481V10.5009Z" fill="white"/>
<path d="M15.0747 9.37201L16.964 9.36498V9.81299L15.0768 9.81706L15.0747 9.37201Z" fill="white"/>
<path d="M15.0727 8.14561L17.9207 8.13672L17.9214 8.7667L15.0747 8.77504L15.0727 8.14561Z" fill="white"/>
<path d="M15.0299 7.01532L16.9164 7.00837L16.9171 7.455L15.0313 7.46334L15.0299 7.01532Z" fill="white"/>
<path d="M15.0278 5.88154L16.9137 5.87589L16.9157 6.32204L15.0299 6.32742L15.0278 5.88154Z" fill="white"/>
<path d="M15.023 4.65599L17.8703 4.6511V5.28114L15.0244 5.28735L15.023 4.65599Z" fill="white"/>
<path d="M14.9824 3.52355L16.8689 3.52086L16.8709 3.96674L14.9837 3.9737L14.9824 3.52355Z" fill="white"/>
<path d="M1.92786 0.381773L2.56335 1.87015H1.29926L1.92786 0.381773Z" fill="#9D96F0"/>
<path d="M1.2834 1.90732L1.92786 0.381793L2.58817 1.91966C2.21941 1.81496 1.7521 1.76244 1.2834 1.90732Z" fill="#9D96F0"/>
<path d="M3.74129 5.71406C3.74129 5.71406 3.69787 5.64569 3.64135 5.57056L2.58266 1.90786C2.51925 1.88304 2.45239 1.9264 2.39242 1.99263H2.16427L2.15876 1.96086C2.02229 1.95548 1.8934 1.96382 1.76864 1.98588L1.76795 1.99263H1.68248L1.69145 1.94659C1.54739 1.97002 1.41367 1.74168 1.28616 1.79475L0.174393 5.70979L1.0208 5.71276V5.70979H1.06146L1.02011 5.93731H2.77702L2.74325 5.71276L3.74129 5.71406Z" fill="#9D96F0"/>
<path d="M3.38561 5.71406C3.38561 5.71406 3.34978 5.64569 3.30291 5.57056L2.45719 1.90786C2.40825 1.88304 2.35518 1.9264 2.30556 1.99263H2.1229L2.11808 1.96086C2.00918 1.95548 1.90855 1.96382 1.80792 1.98588L1.80585 1.99263H1.73761L1.7445 1.94659C1.63146 1.97002 1.52256 1.74168 1.42193 1.79475L0.529343 5.70979L1.20757 5.71276V5.70979H1.24134L1.20757 5.93731H2.61296L2.58815 5.71276L3.38561 5.71406Z" fill="white"/>
<path d="M3.72337 30.8477H0.161987V6.00003H3.72337V30.8477Z" fill="#9D96F0"/>
<path d="M3.75301 5.83469C3.75301 5.83469 3.54554 5.39343 3.42492 5.39343C3.08168 5.39343 2.72533 5.83469 2.72533 5.83469H2.67984L2.63504 30.6237L3.70959 30.6264L3.75301 5.83469Z" fill="#9D96F0"/>
<path d="M0.143372 5.8347C0.143372 5.8347 0.34877 5.39343 0.471458 5.39206C0.81195 5.39206 1.1676 5.8347 1.1676 5.8347H1.21378L1.26272 30.6237L0.190236 30.6264L0.143372 5.8347Z" fill="#9D96F0"/>
<path d="M1.87547 5.36377C1.33923 5.36646 1.05801 5.83467 1.05801 5.83467L1.01459 30.6237H2.63503L2.67982 5.83467C2.67982 5.83467 2.42687 5.36646 1.87547 5.36377Z" fill="#9D96F0"/>
<path d="M0.174393 32V31.1998C0.174393 31.1998 0.657562 31.1998 2.01953 31.1998C3.16921 31.1998 3.72337 31.1998 3.72337 31.1998V32H0.174393Z" fill="#9D96F0"/>
<path d="M0 31.5625V30.7642C0 30.7642 0.529349 30.7642 2.02503 30.7642C3.29189 30.7642 3.89981 30.7642 3.89981 30.7642V31.5625H0Z" fill="white"/>
<path d="M1.39643 30.8477H0.933945V5.14115H1.39643V30.8477Z" fill="white"/>
<path d="M3.00859 30.8477H2.55023V5.14115H3.00859V30.8477Z" fill="white"/>
</svg>
