<svg viewBox="0 0 60 60" fill="none" xmlns="http://www.w3.org/2000/svg">
<path d="M10.6641 42.3047V52.8516H49.3359V42.3047H10.6641Z" fill="#FF9F00"/>
<path d="M30 42.3047H49.3359V52.8516H30V42.3047Z" fill="#FF7816"/>
<path d="M49.5117 26.9765L46.664 32.531H13.336L10.4883 26.9765C14.6718 21.1757 21.9493 17.6953 30 17.6953C38.0507 17.6953 45.3282 21.1757 49.5117 26.9765Z" fill="#FF4B00"/>
<path d="M49.5117 26.9765L46.664 32.531H30V17.6953C38.0507 17.6953 45.3282 21.1757 49.5117 26.9765Z" fill="#CC1E0D"/>
<path d="M55.9103 23.4608L49.3359 45.8203H10.6641L4.08966 23.4608L8.51944 21.7735C10.5235 25.6055 14.3555 27.8554 17.4843 28.2422H19.3126C23.3556 27.6096 26.3786 21.422 27.6096 15.5154H32.3909C33.6214 21.422 36.6449 27.6096 40.6874 28.2422H42.5157C45.6445 27.8554 49.4765 25.6055 51.4806 21.7735L55.9103 23.4608Z" fill="#FDBF00"/>
<path d="M55.9103 23.4608L49.3359 45.8203H30V15.5154H32.3904C33.6214 21.422 36.6444 27.6096 40.6874 28.2422H42.5157C45.6445 27.8554 49.4765 25.6055 51.4806 21.7735L55.9103 23.4608Z" fill="#FF9F00"/>
<path d="M5.39062 24.7266C2.48291 24.7266 0 22.3608 0 19.4531C0 16.5454 2.48291 14.1797 5.39062 14.1797C8.29834 14.1797 10.6641 16.5454 10.6641 19.4531C10.6641 22.3608 8.29834 24.7266 5.39062 24.7266Z" fill="#FF9F00"/>
<path d="M54.6094 24.7266C51.7017 24.7266 49.3359 22.3608 49.3359 19.4531C49.3359 16.5454 51.7017 14.1797 54.6094 14.1797C57.5171 14.1797 60 16.5454 60 19.4531C60 22.3608 57.5171 24.7266 54.6094 24.7266Z" fill="#FF7816"/>
<path d="M30 7.14844C27.0818 7.14844 24.7266 9.50363 24.7266 12.4219C24.7266 15.3397 27.0818 17.6953 30 17.6953C32.9182 17.6953 35.2734 15.3397 35.2734 12.4219C35.2734 9.50363 32.9182 7.14844 30 7.14844Z" fill="#FF9F00"/>
<path d="M30 27.5038L23.9882 33.5156L30 39.5274L36.0118 33.5156L30 27.5038Z" fill="#FF4B00"/>
<path d="M40.5469 34.5451L43.0325 37.0308L40.5469 39.5164L38.0612 37.0308L40.5469 34.5451Z" fill="#CC1E0D"/>
<path d="M19.4531 34.5451L21.9388 37.0308L19.4531 39.5164L16.9675 37.0308L19.4531 34.5451Z" fill="#FF4B00"/>
<path d="M30 17.6953V7.14844C32.9182 7.14844 35.2734 9.50363 35.2734 12.4219C35.2734 15.3397 32.9182 17.6953 30 17.6953Z" fill="#FF7816"/>
<path d="M36.0118 33.5156L30 39.5274V27.5038L36.0118 33.5156Z" fill="#CC1E0D"/>
</svg>
