<svg viewBox="0 0 16 16" fill="none" xmlns="http://www.w3.org/2000/svg">
<path d="M8 0C3.58172 0 0 3.58172 0 8C0 12.4183 3.58172 16 8 16C12.4183 16 16 12.4183 16 8C16 3.58172 12.4183 0 8 0ZM8 15C4.134 15 1 11.866 1 8C1 4.134 4.134 1 8 1C11.866 1 15 4.134 15 8C15 11.866 11.866 15 8 15Z" fill="black"/>
<path d="M9.855 3.14502L9.145 3.85502L10.295 5.00002H5C4.44772 5.00002 4 5.44774 4 6.00002V7.50002H5V6.00002H10.295L9.15 7.14502L9.855 7.85002L11.855 5.85002C12.0489 5.65499 12.0489 5.34005 11.855 5.14502L9.855 3.14502Z" fill="black"/>
<path d="M11 10H5.70501L6.85001 8.85502L6.14501 8.15002L4.14501 10.15C3.95113 10.3451 3.95113 10.66 4.14501 10.855L6.14501 12.855L6.85001 12.15L5.70501 11H11C11.5523 11 12 10.5523 12 10V8.50002H11V10Z" fill="black"/>
</svg>
