<svg width="28" height="40" viewBox="0 0 28 40" fill="none" xmlns="http://www.w3.org/2000/svg">
<g clip-path="url(#clip0)">
<path d="M15.3694 39.6111C17.2229 38.1296 17.8285 36.213 17.2046 33.75C16.9385 32.6852 16.1952 31.0648 15.4428 29.9259C15.1492 29.4815 14.8739 29.0648 14.8372 29C14.7271 28.8333 15.6263 29.2037 16.287 29.6018C17.8652 30.537 18.9571 31.8055 19.9114 33.8055C20.1592 34.3333 20.4161 34.963 20.4803 35.213C20.5354 35.4537 20.6179 35.6481 20.6547 35.6481C20.7005 35.6481 20.8382 35.3055 20.9758 34.8889C21.196 34.2315 21.2327 33.963 21.2327 33.0092C21.2327 32.0278 21.2052 31.8148 20.985 31.1574C20.4436 29.5926 19.7738 28.7037 16.8192 25.6389C14.461 23.1944 13.6994 22.2315 13.0296 20.8796C12.2955 19.3889 12.1579 18.75 12.1579 16.9444C12.1579 15.2778 12.2955 14.5463 12.8644 13.0278C13.0204 12.6296 13.1214 12.287 13.103 12.2592C13.0755 12.2407 12.7268 12.537 12.3139 12.9259C10.6072 14.5278 9.42352 16.6111 8.9372 18.8889C8.68946 20.0555 8.70781 22.3148 8.98308 23.6018C9.49692 26.0555 10.5888 28.4722 12.4332 31.25C13.0755 32.2222 13.6902 33.1944 13.8095 33.4259C14.4885 34.7685 14.5986 36.3426 14.0848 37.2963C13.3874 38.5926 11.9652 39.2315 9.95571 39.1389C9.14824 39.1111 8.79039 39.0463 8.16644 38.8241C6.14777 38.1296 4.15663 36.4259 2.64263 34.1204C0.0275355 30.1481 -0.642295 25.463 0.779948 21.1389C0.954288 20.6204 1.19286 20 1.31214 19.7592L1.53236 19.3241L1.58742 19.8889C1.71588 21.1296 2.21137 23.0648 2.72521 24.3055C3.12894 25.287 3.7896 26.3241 4.45943 27.037C5.15679 27.7685 5.97343 28.3518 5.82662 28C4.74388 25.4352 4.27591 23.287 4.27591 20.8796C4.26674 17.0185 5.23019 14.7222 9.15742 9.16665C10.8549 6.7685 11.5615 5.46295 11.9377 3.99999C12.1854 3.05554 12.1946 1.68517 11.956 0.768504L11.7817 0.101837L11.9652 0.203689C12.6167 0.555541 13.6444 1.35184 14.3142 2.02776C16.6999 4.45369 17.9937 7.99999 18.0212 12.1944C18.0212 13.0741 18.0487 13.7963 18.0763 13.7963C18.1038 13.7963 18.2414 13.5092 18.3974 13.1759C19.0122 11.787 19.9389 10.6667 21.1868 9.83332C21.9209 9.34258 22.9853 8.8148 23.0771 8.90739C23.0954 8.92591 23.0312 9.24999 22.9394 9.62962C22.6641 10.7222 22.554 12.1574 22.655 13.2685C22.8935 15.7778 23.5542 17.5741 25.16 20.0741C25.5637 20.7037 26.0592 21.5648 26.2519 21.9907C28.4999 26.8333 27.7108 32.213 24.224 35.7407C22.655 37.3148 20.5262 38.5278 18.0396 39.2593C17.1862 39.5093 15.3511 39.9074 15.1033 39.9074C15.0483 39.8981 15.1675 39.7685 15.3694 39.6111ZM24.2974 29.3518C24.4901 28.6204 24.536 28.2685 24.536 27.3148C24.536 25.3981 24.0956 24.1389 22.6274 21.8148C21.3337 19.7685 20.7923 18.5 20.5629 16.9444C20.4987 16.5648 20.4344 16.2407 20.4161 16.2129C20.3335 16.1389 19.7371 17.5648 19.526 18.3426C19.3517 18.9907 19.315 19.3426 19.315 20.5092C19.315 21.8241 19.3333 21.9352 19.5994 22.7037C19.9298 23.6204 20.5262 24.5555 21.7924 26.1111C22.7284 27.25 23.3156 28.3055 23.4808 29.1481C23.5358 29.4167 23.5817 30 23.5909 30.4444L23.6001 31.25L23.8295 30.7407C23.9579 30.463 24.169 29.8333 24.2974 29.3518Z" fill="#645BD0"/>
</g>
<defs>
<clipPath id="clip0">
<rect width="27.619" height="40" fill="white"/>
</clipPath>
</defs>
</svg>
