<svg viewBox="0 0 27 32" xmlns="http://www.w3.org/2000/svg">
<path d="M13.938 30.2339H12.5073V27.0043H13.938V30.2339Z" fill="#645BD0"/>
<path d="M19.7801 32H6.66455C6.66455 32 7.49896 29.3218 13.2217 29.3218C19.4226 29.3218 19.7801 32 19.7801 32Z" fill="#9D96F0"/>
<path d="M20.4989 25.5559L19.2123 26.1825L6.92542 0.989817L8.21145 0.363211L20.4989 25.5559Z" fill="#645BD0"/>
<path d="M20.5779 25.7163C13.4876 29.1746 4.90478 26.2204 1.44713 19.1301C-2.01178 12.0392 0.943707 3.45765 8.03397 3.8147e-06L8.66182 1.28478C2.28027 4.39755 -0.378969 12.122 2.73253 18.5029C5.8453 24.8838 13.5691 27.5443 19.9507 24.4309L20.5779 25.7163Z" fill="#645BD0"/>
<path d="M19.782 23.3938C13.8995 26.2621 6.77953 23.8081 3.91121 17.9262C1.04289 12.0449 3.49369 4.92625 9.37561 2.0573C15.2569 -0.812275 22.3762 1.63979 25.2439 7.52107C28.1128 13.4024 25.6639 20.5236 19.782 23.3938Z" fill="#4C43BD"/>
<path d="M23.8372 8.20767C26.3322 13.3247 24.2061 19.4908 19.0961 21.9846C13.9803 24.4783 7.81418 22.3579 5.3179 17.2409C2.82352 12.1258 4.94839 5.96026 10.0629 3.46524C15.1729 0.971495 21.3422 3.09258 23.8372 8.20767Z" fill="#645BD0"/>
<path d="M23.3767 11.2175C23.3704 11.22 23.3666 11.22 23.366 11.2225C23.3616 11.2263 23.3609 11.2345 23.3609 11.2364C23.3628 11.232 23.3679 11.2225 23.3767 11.2175Z" fill="#ED8F0C"/>
<path d="M5.35641 8.66688V8.67067C5.35641 8.66688 5.35642 8.66688 5.35831 8.66624C5.35642 8.66688 5.35641 8.66688 5.35641 8.66688Z" fill="#ED8F0C"/>
<path d="M5.35958 8.66055C5.35958 8.66245 5.35768 8.6637 5.35831 8.66623C5.35831 8.66623 5.35768 8.66371 5.35958 8.66245C5.35831 8.66056 5.35831 8.66055 5.35958 8.66055Z" fill="#ED8F0C"/>
<path d="M13.9948 5.81183C13.9892 5.81878 13.9828 5.8232 13.9721 5.83268C13.962 5.82762 13.95 5.82067 13.9424 5.81625C13.9494 5.79983 13.9563 5.78214 13.9614 5.76635C13.9727 5.77645 13.986 5.7834 14.0005 5.79477V5.79287L14.0018 5.79667C14.0056 5.79856 14.0056 5.79793 14.0056 5.79793C14.0068 5.80172 14.0024 5.80677 13.9948 5.81183ZM15.3706 5.40947C15.3939 5.38105 15.4344 5.34315 15.5234 5.39495C15.5241 5.4 15.519 5.40631 15.5203 5.40947C15.4811 5.43158 15.4344 5.44358 15.3984 5.47201C15.3927 5.52443 15.4388 5.55032 15.4584 5.59201C15.2322 5.45558 14.9922 5.31093 14.809 5.22692C14.8046 5.20734 14.8027 5.18713 14.7964 5.16691C14.9177 5.26293 15.2853 5.49601 15.3706 5.40947ZM21.7989 9.79374C21.893 9.91881 21.893 9.91882 22.2909 10.6357C22.3174 10.6755 22.4551 10.8303 22.4975 10.8783C22.517 10.9029 22.5373 10.9244 22.5613 10.9459C22.5973 10.9806 22.6383 11.0109 22.6731 11.0476C22.7021 11.0735 22.7198 11.1133 22.7476 11.1373C22.7849 11.1695 22.8676 11.1846 22.8676 11.1846C22.8758 11.1859 22.8872 11.1569 22.8891 11.1448C22.8986 11.1139 22.855 10.9869 22.855 10.9869C22.8108 10.8574 22.44 10.4854 22.433 10.4797C22.2562 10.3035 22.2442 10.1595 22.253 10.0875C22.2581 10.0862 22.2701 10.0875 22.2802 10.0862C22.4179 10.2176 22.4179 10.2176 22.4817 10.1948C22.5189 10.222 22.5341 10.2807 22.5935 10.2776C22.651 10.1923 22.5853 9.78806 22.5518 9.71479C22.4653 9.51645 22.4653 9.51645 22.044 9.05282C21.9562 8.97513 21.9069 8.83932 21.9056 8.78247C21.9012 8.69657 22.0225 8.67131 22.0092 8.58035C21.9909 8.48181 22.0048 8.31506 22.0048 8.31127C22.0079 8.30369 22.0079 8.29043 22.0143 8.28348C22.0724 8.20768 21.8526 7.72067 21.7925 7.6095C21.6782 7.40611 21.6637 7.38212 21.6391 7.35369C21.6258 7.33853 21.6087 7.31136 21.593 7.2962C21.5633 7.26462 21.5241 7.24505 21.4931 7.20967C21.4666 7.18125 21.4527 7.14146 21.4237 7.11493C21.4211 7.11556 21.1956 6.91154 21.1653 6.89511C21.0756 6.84648 21.0756 6.84648 21.0232 6.75426C20.991 6.71699 20.9594 6.68604 20.9291 6.65572C20.9581 6.68477 20.9885 6.71192 21.015 6.73971C20.9809 6.67971 20.9663 6.60834 20.9164 6.55465C20.8937 6.52559 20.8615 6.50222 20.8438 6.53759C20.8375 6.54327 20.8362 6.55465 20.8331 6.56223C20.8293 6.59003 20.8236 6.61845 20.8179 6.64435C20.7573 6.63993 20.6442 6.58624 20.6284 6.56476C20.5792 6.49654 20.643 6.41127 20.5968 6.34116C20.5918 6.32347 20.5874 6.30388 20.5829 6.2843C20.6638 6.34999 20.6745 6.34746 20.6992 6.34746C20.7118 6.31841 20.691 6.29125 20.7074 6.25841C20.7409 6.25525 20.7636 6.27862 20.8122 6.3222C20.8192 6.32347 21.1729 6.59192 21.2354 6.59065C21.2746 6.5856 21.2708 6.47822 21.068 6.30199C20.9796 6.23124 20.8678 6.19145 20.787 6.11312C20.7863 6.1087 20.4699 5.75371 20.4389 5.6836C20.4781 5.69371 20.4806 5.69119 20.4932 5.67919C20.4857 5.60086 20.0745 5.09113 19.7309 4.85931C19.7043 4.84099 19.674 4.8233 19.5925 4.7715C19.5824 4.78287 19.5805 4.79488 19.5793 4.81004C19.5805 4.79488 19.5824 4.78287 19.5849 4.76644C19.3279 4.61738 19.2161 4.54727 19.1655 4.57064C19.1655 4.58012 19.1643 4.58011 19.1617 4.58138C19.0392 4.51884 18.9204 4.4601 18.7998 4.39694C18.7638 4.35778 18.7265 4.31419 18.6842 4.28134C18.5895 4.20617 18.4574 4.18091 18.3823 4.07542C18.3779 4.07226 18.3772 4.06405 18.3728 4.0571C18.3974 4.02805 18.3974 4.02805 18.3911 3.96109C18.4069 3.94151 18.4315 3.93394 18.4524 3.92131C18.4511 3.90425 18.4511 3.90425 17.9704 3.59348C18.0096 3.60233 18.0456 3.61685 18.0822 3.6238C18.0734 3.60927 18.0734 3.60928 17.8877 3.51769C17.8984 3.51895 17.9117 3.52148 17.9344 3.52969C17.9547 3.536 17.9755 3.5461 18.0001 3.55431C18.0614 3.58463 18.1328 3.62191 18.1719 3.64212C19.3127 4.25987 19.3127 4.25987 19.3759 4.26998C19.3702 4.25671 19.0683 4.02869 18.664 3.82845C18.0185 3.47726 17.6698 3.32061 17.3426 3.2126L17.3413 3.21196C17.2017 3.16206 17.0621 3.121 16.9074 3.08058C16.9478 3.08752 16.9876 3.09637 17.0312 3.10206C16.9756 3.08311 16.9225 3.07238 16.8707 3.05974L16.8739 3.05911C16.9086 3.06922 16.9428 3.07805 16.9743 3.08374L16.9554 3.07931C16.9225 3.07047 16.8891 3.0629 16.8556 3.05532C16.8531 3.05279 16.8474 3.05216 16.8436 3.05089C16.8272 3.04458 16.8038 3.03952 16.7829 3.0351L16.7665 3.03067C16.7173 3.01678 16.6686 3.00605 16.62 2.99405C16.6175 2.99279 16.6149 2.99531 16.6111 2.99278L16.6067 2.99152C16.5953 2.98899 16.5827 2.98646 16.5713 2.9852C16.4848 2.96435 16.4848 2.96436 16.4557 2.96247C16.4886 2.97194 16.5233 2.97572 16.5524 2.9833C16.421 2.96435 16.421 2.96435 16.3168 2.96624C16.318 2.9713 16.3155 2.97825 16.3155 2.9833C16.3105 2.9852 16.3035 2.98583 16.2966 2.98899C16.2997 2.99594 16.3042 3.00983 16.3067 3.01678C16.3806 3.05089 16.4621 3.04647 16.5309 3.08058C16.4873 3.09889 16.4444 3.07236 16.4008 3.07868C16.4223 3.09258 16.4463 3.09952 16.4684 3.10837C16.4652 3.11594 16.4621 3.13111 16.4589 3.14121C16.4722 3.15006 16.4722 3.15007 16.5019 3.16586C16.4406 3.20186 16.3736 3.18228 16.3079 3.2006C16.3244 3.22018 16.3566 3.22017 16.3673 3.24228C16.3635 3.25113 16.3553 3.26628 16.3515 3.27386C16.102 3.30861 16.102 3.30861 16.1001 3.32061C16.1165 3.3364 16.1222 3.34019 16.1829 3.35662C16.0717 3.34967 16.0704 3.35093 16.0439 3.35725C16.0344 3.38757 16.0344 3.38757 16.0294 3.40715C15.8607 3.37115 15.7938 3.36734 15.783 3.39198C15.8355 3.44251 15.9631 3.46525 16.0199 3.44694C16.0667 3.43241 16.2915 3.53536 16.2934 3.53852C16.2561 3.54863 16.2397 3.58653 16.2107 3.60801C16.2107 3.61433 16.2113 3.62191 16.21 3.62633C16.2302 3.6396 16.2492 3.64906 16.2694 3.66359C16.2599 3.66611 16.2505 3.66865 16.2385 3.66991C16.1702 3.64654 16.1001 3.6358 16.0344 3.65665C15.9567 3.63959 15.8791 3.61811 15.7963 3.64527C15.7875 3.65032 15.7875 3.65033 15.7875 3.65033C15.7742 3.68064 15.7401 3.6838 15.7167 3.70843C15.7243 3.74001 15.7546 3.75707 15.8576 3.78865C15.8569 3.79813 15.8551 3.81329 15.8513 3.82403C15.9081 3.84803 15.9631 3.86193 16.0237 3.87899C15.9631 3.86193 15.9081 3.84803 15.85 3.83666C15.8443 3.86066 15.8412 3.86825 15.826 3.8752C15.7736 3.90299 15.7117 3.88593 15.6599 3.91625C15.615 3.93899 15.5904 3.99331 15.5342 3.99647C15.5266 3.99773 15.519 3.99836 15.5095 3.99584C15.3763 3.99331 15.2632 3.90299 15.1324 3.89099C14.9726 3.88025 14.9726 3.88025 14.9461 3.88972C14.9013 3.90551 14.9101 3.97879 14.8507 3.97563C14.821 3.97437 14.7231 3.96552 14.5936 3.93773C14.4762 3.91246 14.3107 3.96299 14.3081 3.96425C14.3081 3.97057 14.3056 3.97499 14.3037 3.98068C14.3145 3.99647 14.3246 4.00911 14.3347 4.02301C14.1711 4.03754 14.0043 4.01352 13.8401 4.03058C13.8047 4.035 13.8035 4.03437 13.7138 4.07985C13.7037 4.08932 13.7037 4.08932 13.7037 4.08932H13.7024C13.7131 4.12911 13.7485 4.13732 13.9494 4.16827C13.9374 4.25923 14.1862 4.23776 14.1894 4.23397C14.1944 4.22828 14.1925 4.21439 14.19 4.20365C14.4686 4.13354 14.4686 4.13353 14.4484 4.10321C14.5153 4.083 14.5816 4.13164 14.6442 4.1089C14.6549 4.10006 14.6562 4.09817 14.6606 4.09438C14.6606 4.09438 14.6644 4.09058 14.665 4.08805C14.6663 4.08616 14.6694 4.08491 14.6713 4.08175L14.6764 4.07606C14.6789 4.07227 14.6789 4.07163 14.6789 4.07163C14.6827 4.06531 14.6827 4.06532 14.6865 4.06153C14.689 4.06153 14.6909 4.05963 14.6941 4.05774L14.6966 4.05269C14.7471 4.07227 14.7964 4.09059 14.8438 4.11017C14.8425 4.16954 14.8514 4.22892 14.8419 4.2864C14.8318 4.33819 14.7433 4.31735 14.7503 4.37735C14.7667 4.52705 14.7667 4.52705 14.7623 4.53527V4.53653C14.7377 4.5738 14.7825 4.64391 14.9619 4.67739C15.0143 4.68939 15.0143 4.68938 15.0238 4.70265C15.0206 4.7077 15.0206 4.71213 15.0181 4.71466C14.9461 4.72666 14.9461 4.72666 14.9366 4.72919C14.9291 4.79551 14.8583 4.79109 14.8255 4.82646C14.8318 4.90479 14.9177 4.925 15.1324 4.98501C15.0712 5.00522 14.9947 4.97932 14.9442 5.04311C14.9063 5.08859 14.984 5.11639 14.9985 5.15618C14.8286 5.11512 14.785 5.10944 14.7648 5.12081C14.6296 4.88899 14.3423 4.79298 14.0978 4.91173C14.0618 4.93005 14.0353 4.95658 14.0068 4.98058C13.9468 4.92752 13.7927 4.88963 13.7832 4.95026C13.7624 5.05891 13.7624 5.0589 13.6942 5.24777C13.6253 5.42652 13.6253 5.42653 13.6999 5.59834C13.7182 5.64634 13.7453 5.67097 13.8072 5.70445C13.7795 5.75498 13.7795 5.75498 13.7776 5.80109V5.80425C13.782 5.863 13.8521 5.91795 13.9424 5.93311C14.2298 5.96533 14.2873 5.97227 14.3366 5.93058C14.3454 5.98554 14.353 6.03985 14.3783 6.09291C14.3947 6.12386 14.4212 6.1485 14.4446 6.17566L14.4307 6.18324C14.3486 6.15924 14.3145 6.1725 14.3044 6.23882C14.346 6.2843 14.3877 6.32662 14.4301 6.36199C14.3877 6.32662 14.346 6.28431 14.3044 6.24641C14.2961 6.2982 14.2905 6.31146 14.2532 6.32978C14.1149 6.21545 14.1149 6.21545 14.106 6.20914C14.0751 6.20345 13.9727 6.2224 13.9727 6.2742C13.9727 6.2742 13.9911 6.39611 14.185 6.38537C14.185 6.41127 14.185 6.41126 14.1572 6.48832C14.1565 6.49653 14.1382 6.52939 14.0574 6.5016C13.9721 6.46749 13.8988 6.57107 13.8988 6.57107C13.8616 6.67845 14.1212 6.66329 14.0511 6.75677C14.0511 6.75677 13.9292 6.90143 13.8527 6.83005C13.5931 6.58687 13.3373 6.6595 13.3335 6.66076C13.1674 6.75993 12.9968 6.73846 12.993 6.73657C12.9147 6.71193 12.8465 6.69676 12.7448 6.75551C12.676 6.79909 12.5926 6.82309 12.5301 6.88373C12.4928 6.92353 12.5098 6.98796 12.4656 7.02902C12.2793 7.13766 12.2408 7.76614 12.2281 7.97206C12.2111 8.25315 12.2111 8.25315 12.1789 8.34032C12.0689 8.67509 12.0689 8.67509 12.0721 8.68836C12.0689 8.69531 12.2142 9.18358 12.333 9.21706C12.4808 9.25369 12.5263 9.17095 12.5616 9.09199C12.5995 8.99661 12.6166 8.96819 12.6981 9.01303C12.8269 9.07557 12.8718 9.26254 13.0461 9.26569C13.096 9.26885 13.1289 9.24169 13.1472 9.23221C13.2647 9.14694 13.2741 8.73321 13.2053 8.59614C12.9173 8.02386 12.9173 8.02387 13.0158 7.96449C13.0442 8.12114 13.2021 8.33842 13.2034 8.34032C13.2419 8.37127 13.2564 8.37127 13.5053 8.37822C13.5236 8.4856 13.547 8.51719 13.6089 8.55446C13.6121 8.65299 13.5148 8.71362 13.5224 8.81026C13.5306 8.90248 13.5577 8.99408 13.5445 9.09072C13.5445 9.09325 13.5438 9.10398 13.5426 9.10966C13.535 9.15514 13.5034 9.17347 13.4902 9.18105L13.4889 9.18231C13.384 9.23979 13.3487 9.3699 13.2419 9.42612C13.2375 9.43117 13.2375 9.43118 13.2375 9.43118C13.2343 9.43118 13.2337 9.43181 13.2337 9.43181C12.9425 9.57014 12.933 9.50193 12.9172 9.3876C12.9172 9.3876 12.8535 9.07241 12.6576 9.2C12.5787 9.25243 12.5951 9.46466 12.7082 9.57646C12.7707 9.63394 12.7941 9.71921 12.7296 9.76595C12.7278 9.76722 12.7265 9.76722 12.7265 9.76722C12.5762 9.85691 12.5648 10.0451 12.5661 10.0477C12.5541 10.2416 12.5541 10.2416 12.537 10.2523C12.5762 10.234 12.6141 10.2182 12.6564 10.198C12.6551 10.2005 12.6564 10.2024 12.6526 10.2062C12.6103 10.222 12.5686 10.2403 12.5263 10.2586C12.5199 10.2662 12.5111 10.2814 12.5023 10.2883C12.4574 10.3616 12.4877 10.4519 12.4404 10.5252C12.4037 10.5903 12.3153 10.5833 12.2812 10.6503C12.266 10.6774 12.2755 10.7197 12.2824 10.7469C12.1365 10.8107 12.1239 10.8158 12.1226 10.8448C12.1163 10.8808 12.1864 10.9711 12.2483 10.9951C12.5597 11.1057 12.5762 11.1878 12.6336 11.455C12.0816 11.6697 12.0816 11.6697 12.0721 11.7272C12.0708 11.7348 12.3222 12.4644 12.4183 12.4915C12.6387 12.5686 12.6387 12.5686 12.8351 12.4069L12.837 12.4063C13.216 12.1763 12.9949 11.7866 13.0846 11.479C13.1522 11.2566 13.1522 11.2566 13.2432 11.251C13.3108 11.244 13.3108 11.244 13.4952 10.9585C13.5243 10.9831 13.5489 11.0071 13.5836 11.0267C13.7864 11.1183 14.0138 11.0962 14.2229 11.1632C14.3416 11.1966 14.3107 11.3849 14.4547 11.3943C14.6372 11.4076 14.5444 11.0362 14.5444 11.0324C14.4124 10.721 13.9879 11.0255 13.8534 10.7103C13.9178 10.6124 13.9178 10.6124 14.4149 10.7772C14.4326 10.7823 14.4503 10.7949 14.4623 10.8019C14.5362 10.8473 14.5614 10.9345 14.6347 10.9762C14.7143 11.0217 14.8608 10.9313 14.8968 11.0558C14.9417 11.2011 14.9417 11.2011 14.9771 11.208C15.0251 11.2169 15.0971 11.1771 15.1318 11.1038C15.1962 10.968 15.0219 10.8675 15.0724 10.7355C15.351 10.6951 15.4596 11.2238 15.7312 11.0229C15.7584 11.0015 15.7818 10.9623 15.7875 10.9452C15.8153 10.8574 15.826 10.8189 16.145 10.6863C16.3711 10.7842 16.3825 11.2137 16.3875 11.4443C16.3105 11.4569 16.2359 11.4171 16.1601 11.4493C16.0679 11.4941 16.1507 11.6375 16.0401 11.666C15.9511 11.6868 15.8576 11.683 15.7774 11.7228C15.723 11.7487 15.6769 11.7708 15.6011 11.7651C15.3062 11.7506 15.0516 11.7361 15.1463 11.9976C15.1931 12.1258 15.147 12.1991 15.0042 12.2193C15.0017 12.2205 14.3214 12.1763 14.2797 12.1643C14.1944 12.1365 14.1641 12.1043 14.1483 11.9451C14.1344 11.8422 14.1275 11.7695 14.0555 11.7853C13.7921 11.8472 13.6102 12.0645 13.3607 12.1593C13.2343 12.2591 13.1712 12.4145 13.0549 12.5275C12.9501 12.6305 12.7442 12.4947 12.6728 12.6741L12.5762 13.0827C12.5389 13.348 12.7372 13.6222 12.5522 13.8862C12.4738 14.0005 12.4599 14.0233 12.4157 14.557C12.4044 14.6827 12.4928 14.7724 12.5294 14.8779C12.5711 15.0023 12.6501 15.1028 12.6936 15.2228C12.7448 15.3592 12.7176 15.5121 12.7758 15.6453C12.8212 15.7502 12.9387 15.9896 13.0512 16.0079C13.283 16.0376 13.283 16.0376 13.3815 16.1235C13.5154 16.2637 13.5154 16.2637 13.5483 16.2732C13.5521 16.2776 14.1199 16.5183 14.3423 16.4627C14.3561 16.4608 14.3675 16.4501 14.3776 16.445C14.4484 16.4065 14.4591 16.3161 14.5235 16.2776C14.6063 16.2328 14.7105 16.2681 14.7895 16.2094L15.0756 15.8898C15.1065 15.8481 15.1539 15.7881 15.2455 15.778C15.351 15.7647 15.411 15.8671 15.5051 15.881C15.6289 15.8986 15.6832 15.7546 15.7976 15.7597C15.8481 15.7571 15.8803 15.7811 15.8923 15.795C15.8942 15.7931 16.1014 16.1475 16.0768 16.2031C16.061 16.2347 16.0313 16.3035 16.0805 16.3799C16.2688 16.6636 16.6257 16.7097 16.8587 16.9358C17.1562 17.2181 16.7463 17.8075 17.2415 17.978C17.2459 17.978 17.707 18.2717 17.7715 18.4208L18.2654 18.976C18.2673 18.9786 18.3551 19.0411 18.4852 18.9792C18.489 18.9779 19.0379 18.6419 19.0809 18.5332C19.4902 17.515 19.2596 17.0413 19.259 17.0381C19.247 17.0185 19.2243 16.9851 19.2337 16.9623C19.2982 16.8095 19.4068 16.6781 19.4675 16.5246C19.5464 16.3199 19.5464 16.3199 19.4997 15.9896C19.4567 15.6826 19.0455 15.6649 19.0019 15.3548L18.9672 14.9581C18.9672 14.9543 19.1137 14.3972 19.2217 14.238C19.2577 14.1881 19.2653 14.1269 19.2799 14.0296C19.3228 13.7245 19.2268 13.4245 19.2363 13.1213C19.1958 13.1276 19.1554 13.1503 19.115 13.175L19.1137 13.1724C19.1567 13.1472 19.1958 13.1225 19.2382 13.0954C19.2388 13.0322 19.2388 12.9678 19.2388 12.9065C19.2388 12.8812 19.2363 12.8503 19.223 12.8162C19.2028 12.7682 19.1712 12.7568 19.1617 12.7492C19.0923 12.7315 19.0379 12.7644 18.9659 12.8724C18.7928 13.132 18.5427 13.2217 18.4979 13.2015C18.3993 13.1604 18.357 13.0581 18.2736 13.0025C18.177 12.94 18.0519 13.0038 17.9578 12.9255C17.9445 12.916 17.9313 12.8939 17.9218 12.8787C17.8479 12.7739 17.695 12.7808 17.6275 12.6703C17.5624 12.5547 17.4481 12.4947 17.3615 12.4018C17.172 12.2016 16.92 12.0727 16.7274 11.8693C16.7217 11.8637 16.6572 11.7891 16.7387 11.7418C16.7589 11.7298 16.9364 11.7342 17.0413 11.9117C17.0501 11.9249 17.0716 11.9628 17.1645 12.0209C17.3994 12.1643 17.5927 12.3601 17.8498 12.4606C17.9332 12.4934 17.985 12.5225 18.0014 12.5326C18.0254 12.5515 18.0905 12.5913 18.1637 12.6747C18.4101 12.9552 18.5535 13.0202 18.5535 13.0202C18.628 12.9931 18.8055 12.6779 18.9261 12.4656C18.9343 12.4492 18.9501 12.4265 18.9615 12.4075C18.9672 12.4006 18.971 12.3898 18.9754 12.3841C19.1194 12.1113 19.1984 11.822 19.2015 11.8213L19.247 11.515C19.2476 11.4518 19.2059 11.3943 19.2123 11.3249C19.2262 11.2105 19.2325 11.136 19.2192 11.0823C19.2041 11.0349 19.1775 11.0242 19.1617 11.0166C19.1257 10.9989 19.0885 11.0166 19.0537 11.0027C18.9754 10.9756 18.9154 10.9193 18.8364 10.8953C18.6122 10.8246 18.568 10.8568 18.5471 10.8739C18.4764 10.9471 18.5459 11.0684 18.4606 11.1385C18.4 11.1846 18.3589 11.1606 18.2578 11.1057C18.0545 10.9932 18.0469 10.9882 18.0014 10.9819C17.894 10.9756 17.7582 10.8675 17.7424 10.7911C17.7462 10.7595 17.7525 10.7134 17.8056 10.721C17.8245 10.721 17.8479 10.7355 17.8561 10.745C17.9439 10.7993 17.9982 10.8183 18.0961 10.8391C18.1227 10.8391 18.1966 10.8473 18.2736 10.8391C18.4164 10.8158 18.4164 10.8158 18.5111 10.7406C18.6255 10.6477 18.7253 10.7715 18.8364 10.7526C18.9249 10.7355 19.0645 10.6951 19.0645 10.6951C19.0777 10.6901 19.0979 10.6812 19.1106 10.6724C19.1523 10.6383 19.1523 10.5814 19.1933 10.5511C19.23 10.5227 19.2836 10.5467 19.3196 10.5107C19.3525 10.4721 19.3626 10.4538 19.41 10.3357C19.5022 10.3723 19.5565 10.4677 19.6557 10.4974C19.734 10.5214 19.734 10.5214 19.8117 10.4589C19.8919 10.6383 19.9159 10.6414 20.1117 10.529C20.3682 10.9175 20.5792 11.1632 20.6827 11.2743C20.8293 11.4297 21.015 11.5409 21.1754 11.6773C21.2247 11.7152 21.2443 11.7342 21.2778 11.7196C21.2986 11.714 21.3157 11.6603 21.31 11.6331C21.3087 11.6142 21.303 11.5965 21.2999 11.5794C21.2999 11.5763 21.2986 11.5756 21.2986 11.5756C21.2797 11.4967 21.2556 11.4436 21.2247 11.3647C21.2215 11.3577 21.0327 10.8783 21.0232 10.8145C20.9872 10.6193 21.063 10.4305 21.0485 10.241C21.0529 10.0584 21.0005 9.87965 21.0232 9.70153C21.0352 9.61878 21.1312 9.59289 21.1495 9.51519C21.1546 9.51267 21.1615 9.50887 21.1685 9.50634C21.2481 9.55119 21.3504 9.54993 21.4256 9.60994C21.5209 9.687 21.5696 9.77227 21.6157 9.8626C21.6511 9.92829 21.6814 9.94977 21.7048 9.96051C21.7483 9.97946 21.7483 9.97945 21.7989 9.79374Z" fill="white" fill-opacity="0.86"/>
<path d="M6.86669 8.42621C6.87111 8.41674 6.87364 8.4022 6.87553 8.38831C6.89006 8.38704 6.90333 8.39336 6.91533 8.3921C6.90143 8.40536 6.88817 8.41295 6.86669 8.42621ZM7.15472 9.33388C7.16609 9.34778 7.1762 9.36357 7.1762 9.36483C7.18252 9.37368 7.19325 9.38064 7.19831 9.392L7.25894 9.62381C7.25894 9.62697 7.22484 9.65982 7.17494 9.68572C7.20841 9.57139 7.20272 9.44884 7.15472 9.33388ZM6.69551 9.02185C6.68098 9.02185 6.66456 9.01553 6.64751 9.01426C6.66456 9.00542 6.67846 8.99342 6.69425 8.98331C6.69425 8.99089 6.69362 8.99659 6.69299 9.00859C6.69488 9.0168 6.69551 9.0168 6.69551 9.02185ZM7.07703 9.19176C7.07703 9.2006 7.08524 9.21829 7.09788 9.24103C7.01324 9.12165 6.89196 9.04965 6.74984 9.02881C6.777 9.00796 6.79784 8.98332 6.83258 8.97385C6.86985 8.96311 6.89827 8.99343 6.90712 9.00733C6.93617 9.03512 6.94312 9.13491 6.98671 9.09765C7.08145 9.01806 7.07829 9.12165 7.07703 9.19176ZM12.9627 21.5266C13.0569 21.3839 13.0569 21.3839 12.7802 21.231C12.8295 21.2165 12.8977 21.1988 12.9438 21.1817C12.9027 21.0042 12.9027 21.0042 12.9027 20.9606C12.9147 20.9373 12.928 20.9051 12.9387 20.8804C12.8598 20.7257 12.7334 20.6082 12.6336 20.468C12.7189 20.2943 12.9981 20.2766 12.9886 20.0245L12.5591 18.7057C12.1946 18.1018 10.7576 18.2749 10.7438 18.2774C10.7349 18.1189 10.7153 17.8214 8.94166 17.2933C8.82164 17.3653 8.82164 17.3653 8.42939 17.3002C8.41739 17.3236 8.39844 17.352 8.38707 17.3729C8.33653 17.3704 8.26958 17.3539 8.22031 17.3375C8.07187 17.5857 8.07188 17.5857 8.00239 17.6236C7.64109 17.5163 7.6013 17.0716 7.27158 16.9295C6.97913 16.8019 7.06376 16.3825 6.75109 16.2681C6.67151 16.3262 6.67151 16.3262 6.67277 16.5915C6.65382 16.5928 6.63045 16.5978 6.6115 16.5978C6.60203 16.5941 5.94764 16.0382 6.10682 15.2524C6.21609 15.2518 6.22809 15.2531 6.33105 15.3497C6.37716 15.3289 6.42517 15.2752 6.44538 15.2265C6.6254 15.1867 6.6254 15.1867 7.01197 15.8601C7.03344 15.8475 7.06376 15.8253 7.08397 15.8089C7.08461 15.7786 7.08966 15.7388 7.08903 15.7041C7.08461 15.4249 6.83826 15.2272 6.83131 14.9455C6.82437 14.6928 7.12061 14.5368 7.05366 14.2595C6.94691 13.8281 7.34737 13.54 7.37011 13.1389C7.41938 13.1566 7.48823 13.1813 7.53624 13.2008C7.6234 13.1579 7.99102 12.8099 7.82869 12.5818C7.78384 12.6008 7.73331 12.6475 7.70552 12.6873C7.4655 12.513 7.51097 12.2698 7.60193 12.2218C7.68341 12.1807 7.68341 12.1807 8.07377 11.8131C8.05798 11.616 7.48255 10.5757 7.47939 10.57C7.3979 10.6477 7.34611 10.7526 7.25831 10.8202C7.14272 10.2889 7.14272 10.2889 7.10734 10.222C6.5635 10.191 6.53444 11.3609 6.54644 11.8681C6.14787 11.1492 6.14787 11.1492 6.10113 11.1334C6.03418 10.7008 6.29568 10.359 6.43212 9.98132C6.44664 9.98953 6.45865 9.99838 6.47191 10.0034C6.43843 10.0874 6.42264 10.1702 6.48897 10.21C6.50792 10.2233 6.50792 10.2232 6.60835 10.2182C6.62224 10.2352 6.63424 10.2176 6.64245 10.2043C6.64245 10.2043 6.71004 10.1197 6.72709 10.0634C6.72772 10.0571 6.72709 10.054 6.72709 10.0483C6.78583 10.042 6.84964 10.0306 6.90838 10.0022C6.9147 9.99965 6.91469 9.99397 6.92038 9.99144C6.97154 9.97944 7.0366 9.94784 7.07703 9.98006C7.17493 10.0622 7.15472 10.2131 7.26147 10.2889C7.29621 10.3117 7.32463 10.3161 7.36064 10.3231C7.42064 10.2934 7.39159 10.1872 7.47939 10.186C7.4857 10.1847 7.4857 10.1847 7.4857 10.1847C7.60508 10.1512 7.55518 9.82911 7.51034 9.75457C7.48823 9.71983 7.47812 9.62886 7.5255 9.60107C7.60319 9.62002 7.54445 9.77351 7.62151 9.74825C7.6234 9.74698 7.72952 9.69772 7.75731 9.51644C7.77563 9.42169 7.76363 9.39452 7.75731 9.38505C7.73394 9.33515 7.67078 9.32252 7.64236 9.2802C7.63794 9.27009 7.63793 9.27008 7.5495 9.25113C7.51097 9.24355 7.51286 9.19555 7.51728 9.11344C7.5255 8.98205 7.51161 8.93468 7.3499 8.80898C7.32337 8.78687 7.32337 8.78688 7.31769 8.64602C7.31706 8.64539 7.29242 8.44704 7.28231 8.43062C7.25452 8.38072 7.16546 8.36242 7.1503 8.36368C7.1383 8.36178 7.13261 8.35925 7.13072 8.35167C7.1364 8.34914 7.14777 8.35104 7.15662 8.34599C7.33727 8.25819 7.4396 8.07564 7.44339 7.88299C7.46297 7.84382 7.48129 7.80402 7.50845 7.76676C7.57224 7.68022 7.65056 7.60569 7.70931 7.51916C7.75037 7.45852 7.76616 7.38273 7.83185 7.33915C8.06872 7.17239 8.06872 7.17238 8.08451 7.15153C8.15905 7.06057 8.21463 6.95257 8.28664 6.85909C8.31696 6.81929 8.37065 6.80161 8.39844 6.76371C8.41423 6.74602 8.42813 6.72328 8.44013 6.69485C8.47108 6.62663 8.46097 6.61843 8.43507 6.6039C8.41486 6.59063 8.41423 6.57358 8.41738 6.54326C8.41486 6.54768 8.4136 6.54831 8.4117 6.55147C8.37507 6.58558 8.28159 6.58053 8.28159 6.58053C8.25821 6.57738 8.25821 6.57738 8.15399 6.6437C8.11988 6.61654 8.10156 6.67338 8.06998 6.68222C8.05924 6.67338 8.05671 6.64433 8.03903 6.65443C8.00492 6.66896 7.99292 6.71002 7.96576 6.73149C7.96008 6.72896 7.95692 6.72833 7.95565 6.72517C7.94744 6.62347 7.84322 6.73718 7.84195 6.73718C7.81858 6.76624 7.79648 6.8016 7.77311 6.8395C7.76237 6.81803 7.75352 6.79844 7.74594 6.77697C7.72825 6.77634 7.58677 6.86098 7.51603 7.01637C7.47939 7.09216 7.54255 7.21218 7.54255 7.21218C7.55961 7.22103 7.57856 7.20522 7.60508 7.18248C7.60508 7.18248 7.66825 7.13385 7.68783 7.12564C7.69605 7.14522 7.69099 7.15027 7.66573 7.18248C7.62025 7.23301 7.58929 7.30124 7.52486 7.33029C7.50465 7.31829 7.48634 7.26965 7.46423 7.29618C7.41685 7.3505 7.39411 7.4181 7.35937 7.47937C7.34358 7.50211 7.32842 7.52168 7.3139 7.54505C7.31137 7.54063 7.30505 7.5318 7.30063 7.52801C7.31832 7.50211 7.33916 7.47431 7.36506 7.4301C7.43518 7.29998 7.5015 7.0909 7.44212 7.07763C7.44023 7.0789 7.44023 7.0789 7.44023 7.0789C7.43454 7.07574 7.42633 7.07258 7.42002 7.07258C7.40675 7.07384 7.36569 7.08016 7.21725 7.3764C7.21725 7.3764 7.20525 7.40736 7.19073 7.44083C7.13451 7.40736 7.07577 7.38461 7.00818 7.3764C7.00944 7.36756 7.01323 7.36062 7.01449 7.35367C7.01955 7.33851 7.02271 7.32082 7.02397 7.30314C7.02523 7.28861 7.0145 7.28418 7.01071 7.28292C6.98355 7.28924 6.95639 7.32461 6.93175 7.36377C6.88627 7.36251 6.84711 7.37515 6.80036 7.38462C6.79784 7.37957 6.79405 7.37325 6.79215 7.36883C6.78963 7.3663 6.78584 7.36757 6.78521 7.36883C6.75994 7.37452 6.74288 7.38777 6.72709 7.40356C6.71825 7.40735 6.70815 7.40672 6.69993 7.41051C6.61971 7.44968 6.55971 7.5078 6.5117 7.57601C6.43148 7.63855 6.30642 7.74656 6.30452 7.74656C6.26978 7.79519 6.25652 7.92657 6.25652 7.92657L6.25715 7.92783C6.26978 7.92973 6.27484 7.91836 6.28242 7.91394C6.28242 7.91394 6.28431 7.91331 6.28557 7.91457C6.28304 7.94489 6.2521 7.96764 6.25968 8.00238C6.26536 8.00111 6.32284 7.95752 6.36453 7.8533C6.37337 7.83372 6.39611 7.7914 6.39611 7.7914C6.39611 7.7914 6.41063 7.77434 6.42706 7.75666C6.42579 7.77118 6.42517 7.78697 6.42264 7.80277C6.3999 7.82424 6.36895 7.86151 6.33357 7.92657C6.31778 7.95878 6.29757 8.02385 6.27989 8.0807C6.23441 8.09018 6.18956 8.09522 6.14471 8.11733C6.14345 8.09522 6.15229 8.07185 6.13019 8.05669C6.10681 8.04658 6.04239 8.14323 5.9887 8.23925C5.93438 8.29673 5.89964 8.37062 5.87942 8.44831C5.85858 8.49695 5.83584 8.5677 5.82952 8.61254C5.82636 8.61381 5.82384 8.61381 5.81879 8.61571C5.79163 8.62897 5.77204 8.6517 5.74678 8.67002C5.74804 8.65928 5.74993 8.64791 5.75309 8.63591C5.73035 8.65044 5.70509 8.67318 5.68803 8.6915C5.66466 8.69087 5.62803 8.68644 5.60466 8.68518C5.58065 8.71044 5.55096 8.74897 5.52759 8.77929C5.58065 8.50263 5.58823 8.43063 5.58318 8.40979C5.58823 8.38326 5.59265 8.36051 5.59897 8.3403C5.68424 8.16281 5.68109 8.13817 5.67477 8.1148C5.67351 8.11164 5.67098 8.11291 5.67098 8.11165C5.67098 8.11165 5.67034 8.11165 5.67034 8.11292C5.68171 8.08133 5.6994 8.04027 5.71961 7.99416C5.65329 8.05732 5.61855 8.09522 5.44485 8.46789C5.43095 8.50769 5.43095 8.5077 5.43095 8.5077L5.38042 8.62138C5.37979 8.62391 5.37853 8.6277 5.37537 8.62897C5.40569 8.56643 5.40821 8.55381 5.41453 8.53928L5.36589 8.65296C5.36147 8.65928 5.35831 8.66623 5.35642 8.67128C5.35642 8.67128 5.35642 8.67128 5.35642 8.67065C5.35642 8.67128 5.35515 8.67128 5.35389 8.67255C5.35389 8.67255 5.35515 8.67508 5.35515 8.67697L5.33368 8.71866C5.33684 8.71803 5.33684 8.71802 5.33684 8.71802L5.29262 8.81846L5.28377 8.83678C5.2743 8.86015 5.26672 8.88668 5.25535 8.91131L5.23956 8.95236C5.23261 8.97005 5.22504 8.98901 5.21682 9.00985C5.2143 9.01554 5.21303 9.01869 5.21303 9.02375V9.02438C5.21303 9.02691 5.20734 9.03512 5.18082 9.10018C5.1745 9.12544 5.15997 9.15639 5.15303 9.17787C5.15303 9.17787 5.15176 9.18988 5.14671 9.20061C5.07597 9.39011 5.01911 9.56444 4.96858 9.73119C4.91552 9.89858 4.8852 10.0199 4.84162 10.1923C4.84036 10.1992 4.83973 10.2005 4.83783 10.2062C4.84036 10.2011 4.84036 10.1992 4.84099 10.1936C4.83088 10.2371 4.82204 10.2833 4.80877 10.3338C4.80751 10.3357 4.80752 10.3357 4.80625 10.3376C4.80562 10.3407 4.80562 10.349 4.80436 10.3527C4.80499 10.3591 4.80183 10.366 4.7993 10.3742L4.80436 10.3546C4.80057 10.3628 4.7993 10.3742 4.79678 10.3786C4.77151 10.4974 4.78351 10.5043 4.79551 10.5132C4.80056 10.5069 4.80751 10.4986 4.81635 10.4923C4.82014 10.4955 4.8233 10.5031 4.82646 10.5069C4.8353 10.4797 4.86878 10.3527 4.84983 10.3287C4.83846 10.3117 4.83783 10.2738 4.84478 10.222C4.87763 10.1367 4.90794 10.0495 4.93637 9.96237C4.73803 12.4915 4.56496 14.6757 5.62297 15.9397C5.62297 15.8064 5.59265 15.6895 5.54591 15.5746C6.0127 16.6421 6.08597 16.6964 6.57297 17.0381C6.82121 16.8991 7.42759 17.6211 7.43896 17.6287C7.65309 17.9363 8.08514 17.9313 8.31569 18.2262C8.53992 18.5174 8.4755 18.9242 8.70732 19.2141C8.7269 19.2363 8.74964 19.2666 8.77175 19.2836C9.4653 19.902 10.3414 20.2494 11.0457 20.8495C11.8346 21.5298 12.7417 22.1639 14.0296 22.2258C14.0877 22.2265 14.0877 22.2265 14.0909 22.2258C14.1149 22.2183 14.1496 22.2157 14.1761 22.2107C14.1496 22.1879 14.1041 22.1601 14.0681 22.1564C13.3487 22.0995 13.0821 21.6997 12.9627 21.5266Z" fill="white" fill-opacity="0.86"/>
<path d="M9.83733 8.43378C9.86765 8.3902 9.86322 8.19122 9.80953 8.16217C9.77542 8.14511 9.77543 8.14512 9.65225 8.18871C9.5973 8.20829 9.59036 8.19313 9.5373 8.11038C9.5853 8.0649 9.5853 8.0649 9.7609 8.0251C9.76279 8.02384 9.76279 8.02384 9.76279 8.02384C9.76911 8.01373 9.78111 8.00616 9.79058 7.99668C9.78237 7.92025 9.65099 7.88551 9.70216 7.79203C9.75143 7.70044 9.85754 7.82803 9.91881 7.75539C9.94913 7.71623 9.94913 7.71623 9.96366 7.40609C9.96619 7.31955 10.0003 7.2406 10.0129 7.15659C10.0357 7.01004 9.95229 6.8755 9.96618 6.72959C9.98324 6.58621 10.1468 6.52305 10.1569 6.37525C10.1588 6.34682 10.1513 6.30513 10.114 6.26407C10.0275 6.27481 9.94724 6.27986 9.80385 6.44472C9.78617 6.49335 9.78617 6.49335 9.69458 6.56915C9.69331 6.56789 9.687 6.56284 9.67879 6.56158C9.70405 6.46178 9.7969 6.39672 9.80953 6.2925C9.77669 6.21165 9.74321 6.13836 9.64784 6.28238C9.64405 6.28238 9.6371 6.27797 9.63078 6.27607C9.63394 6.20343 9.63709 6.10426 9.40591 6.17816C9.37496 6.19459 9.21831 6.28112 9.15768 6.44472C9.11346 6.37713 9.11346 6.37714 9.10209 6.37398C9.08377 6.4043 9.07177 6.44029 9.05598 6.50409C9.02882 6.48009 8.92523 6.46051 8.91828 6.71127C8.91322 6.71317 8.90691 6.7176 8.90249 6.72076C8.87912 6.68538 8.88164 6.6399 8.84437 6.61652C8.82037 6.6241 8.82037 6.62411 8.71931 6.79782C8.71173 6.79655 8.70731 6.78582 8.70605 6.78329C8.6991 6.78518 8.69404 6.7877 8.68899 6.7896C8.68394 6.78644 8.67825 6.78139 8.6713 6.77886C8.68078 6.71001 8.68078 6.70686 8.67825 6.68475C8.67509 6.68285 8.66688 6.68096 8.66182 6.67591C8.56202 6.7435 8.56203 6.74349 8.43949 6.77633C8.40096 6.81992 8.34095 6.83319 8.30368 6.8793C8.27463 6.91341 8.18051 7.03783 8.16661 7.11931C8.07945 7.3486 8.07945 7.34861 7.98407 7.39409C7.78447 7.4901 7.7611 7.55516 7.7491 7.58295C7.73646 7.62653 7.74215 7.64991 7.74404 7.6657C7.76363 7.74087 7.77436 7.79014 7.75731 7.88678C7.74467 7.95057 7.73077 8.01879 7.84826 7.99921C7.85142 7.99984 7.85142 7.99921 7.85142 7.99921C7.92659 7.96384 7.99923 7.91393 8.07818 7.88109C8.07818 7.88109 8.13692 7.92025 8.1723 8.00615C8.18809 8.21775 8.20009 8.27713 8.20009 8.27713C8.21778 8.37062 8.14956 8.45146 8.16472 8.54179C8.17482 8.59737 8.24304 8.5778 8.26831 8.61444C8.26515 8.63276 8.26136 8.65043 8.25568 8.66685C8.19441 8.73128 8.22851 8.78687 8.29105 8.88983C8.23104 8.97763 8.21841 9.02817 8.23484 9.08944C8.19315 9.15766 8.09271 9.31115 8.16851 9.70466C8.28663 9.80004 8.26389 9.95227 8.31253 10.0704C8.31442 10.0717 8.42559 10.311 8.50897 10.2245C8.53297 10.198 8.54308 10.1891 8.57277 10.2106C8.68331 10.2776 8.73636 10.2586 8.74963 10.2529C8.86711 10.1872 8.85069 9.80952 8.85006 9.77036C8.8469 9.74951 8.9347 9.28841 9.10209 9.18545C9.17852 9.16271 9.17852 9.16271 9.33075 8.89678C9.41286 8.75845 9.58088 8.72118 9.68637 8.61254C9.71605 8.58285 9.81838 8.46157 9.83733 8.43378Z" fill="white" fill-opacity="0.86"/>
<path d="M19.2091 4.49042C19.2097 4.49105 19.211 4.49547 19.2104 4.49926C19.2546 4.55611 19.3411 4.61485 19.3689 4.62938C19.4731 4.70265 19.5976 4.74119 19.7056 4.80941C19.7618 4.84541 19.8111 4.89404 19.8717 4.93005C19.8717 4.93257 20.1124 5.07217 20.1389 5.07849C20.1395 5.07596 20.1427 5.07533 20.1452 5.0728C20.1414 5.0589 20.1345 5.04058 19.8149 4.79992C19.7586 4.75887 19.7586 4.75887 19.5729 4.64328C19.5224 4.61106 19.2344 4.44873 19.2091 4.49042Z" fill="#ED8F0C"/>
<path d="M14.1148 22.03C14.1079 22.0319 14.0965 22.0338 14.0978 22.0376C14.099 22.0446 14.1357 22.0679 14.1578 22.0762C14.1774 22.0787 14.2349 22.0869 14.2412 22.0743C14.2399 22.0705 14.2317 22.0667 14.2342 22.0578C14.257 22.0604 14.2904 22.061 14.3012 22.0572C14.3264 22.0446 14.2797 22.0269 14.2626 22.0199C14.2424 22.0098 14.1167 22.0294 14.1148 22.03Z" fill="#ED8F0C"/>
<path d="M22.0648 8.82541C22.0635 8.82731 22.061 8.82858 22.0597 8.83047C22.0515 8.85005 22.042 8.91701 22.0907 9.00734C22.1336 9.08756 22.1621 9.07366 22.1835 9.06734C22.1677 8.88985 22.1677 8.88984 22.1589 8.87152C22.1583 8.87026 22.1058 8.7793 22.0648 8.82541Z" fill="#ED8F0C"/>
<path d="M7.13831 7.33916C7.14084 7.33726 7.22611 7.19829 7.18505 7.19071C7.17874 7.19008 7.14274 7.22356 7.11052 7.28736C7.10231 7.30441 7.09347 7.3202 7.10231 7.35746C7.10736 7.36757 7.10926 7.3859 7.13831 7.33916Z" fill="#ED8F0C"/>
<path d="M6.67152 10.3174C6.65257 10.354 6.63551 10.4816 6.72773 10.4513C6.72899 10.4329 6.73531 10.4146 6.73657 10.3969C6.75362 10.3022 6.7391 10.2858 6.71257 10.287C6.70183 10.2889 6.68478 10.2908 6.67152 10.3174Z" fill="#ED8F0C"/>
</svg>
