<svg viewBox="0 0 15 9" xmlns="http://www.w3.org/2000/svg">
    <path fill-rule="evenodd" clip-rule="evenodd" d="M7.50002 4.375C8.70627 4.375 9.68752 3.39375 9.68752 2.1875C9.68752 0.98125 8.70627 0 7.50002 0C6.29377 0 5.31252 0.98125 5.31252 2.1875C5.31252 3.39375 6.29377 4.375 7.50002 4.375ZM3.125 6.25002V4.37502H5V3.12502H3.125V1.25002H1.875V3.12502H0V4.37502H1.875V6.25002H3.125ZM7.50002 5.46875C6.03752 5.46875 3.12502 6.2 3.12502 7.65625V8.75H11.875V7.65625C11.875 6.2 8.96251 5.46875 7.50002 5.46875ZM7.49999 6.71877C6.38124 6.71877 5.11249 7.13752 4.58749 7.50002H10.4125C9.88749 7.13752 8.61874 6.71877 7.49999 6.71877ZM8.4375 2.18752C8.4375 1.66877 8.01875 1.25002 7.5 1.25002C6.98125 1.25002 6.5625 1.66877 6.5625 2.18752C6.5625 2.70627 6.98125 3.12502 7.5 3.12502C8.01875 3.12502 8.4375 2.70627 8.4375 2.18752ZM10.625 4.375C11.8312 4.375 12.8125 3.39375 12.8125 2.1875C12.8125 0.98125 11.8312 0 10.625 0C10.475 0 10.325 0.0125 10.1812 0.04375C10.6562 0.63125 10.9375 1.375 10.9375 2.1875C10.9375 3 10.6437 3.7375 10.1687 4.325C10.3187 4.35625 10.4687 4.375 10.625 4.375ZM13.125 7.65626C13.125 6.80626 12.7 6.14376 12.075 5.63751C13.475 5.93126 15 6.60001 15 7.65626V8.75001H13.125V7.65626Z" />
</svg>
