<svg viewBox="0 0 60 46" fill="none" xmlns="http://www.w3.org/2000/svg">
    <path d="M58.0069 12.6306L34.0893 0.946719C32.0275 -0.084209 28.5223 -0.084209 26.4605 0.946719L1.99313 12.6306C0.274914 13.4553 0 14.6237 0 15.2423C0 15.8608 0.274914 16.9605 1.99313 17.8539L3.98625 18.8161V29.8127C2.74914 30.2938 1.85567 31.5309 1.85567 32.9055C1.85567 34.28 2.74914 35.5172 3.91753 35.9983L0.824742 45.8264H9.48454L6.39175 35.9983C7.62887 35.5172 8.45361 34.28 8.45361 32.9055C8.45361 31.4622 7.56014 30.2938 6.32302 29.8127V19.9845L9.96564 21.7715V36.067C9.96564 36.2732 10.0344 36.4794 10.1718 36.6855C10.5155 37.0979 16.9072 45.8264 29.9656 45.8264C43.0241 45.8264 49.4158 37.0292 49.6907 36.6855C49.8282 36.4794 49.8969 36.2732 49.8969 36.067V21.8402L58.0069 17.8539C59.7251 17.0292 60 15.8608 60 15.2423C59.9313 14.6237 59.7251 13.4553 58.0069 12.6306ZM47.6976 35.7233C46.5979 37.0979 40.6873 43.6959 29.9656 43.6959C19.244 43.6959 13.3333 37.0979 12.2337 35.7233V22.7337L26.4605 29.5378C27.4914 30.0189 28.866 30.2938 30.2405 30.2938C31.6838 30.2938 33.0584 30.0189 34.0893 29.4691L47.6976 22.8024V35.7233ZM57.0447 15.9295L48.7972 19.9845C48.4536 19.9845 48.1787 20.122 48.0412 20.3969L33.1271 27.6134C31.6838 28.3694 28.866 28.3694 27.354 27.6134L9.00344 18.8161L30.1031 16.3419C30.7216 16.2732 31.134 15.7234 31.0653 15.1735C30.9966 14.555 30.4467 14.1426 29.8969 14.2113L5.42955 17.0979L2.95533 15.9295C2.33677 15.6546 2.19931 15.311 2.19931 15.311C2.19931 15.2423 2.33677 14.9673 2.95533 14.6924L27.4227 2.93985C28.1787 2.5962 29.2096 2.39002 30.2405 2.39002C31.3402 2.39002 32.4399 2.5962 33.1271 2.93985L57.0447 14.6237C57.6632 14.8986 57.8007 15.1735 57.8007 15.311C57.8007 15.311 57.5945 15.6546 57.0447 15.9295Z" fill="black"/>
</svg>
