<svg viewBox="0 0 70 46" fill="none" xmlns="http://www.w3.org/2000/svg">
<path d="M70 45.3906H0V4.99997H70V45.3906Z" fill="#645BD0"/>
<path d="M33.9785 41.2786C23.2955 37.2029 13.2366 37.1744 2.53025 41.1791C2.56643 30.12 2.61424 15.1933 2.65042 4.13676C13.3567 0.130779 23.4156 0.16309 34.0987 4.24015C34.0625 15.2979 34.0134 30.2183 33.9785 41.2786Z" fill="white"/>
<path d="M67.8846 3.26447C62.3615 1.15939 57.0904 0.126892 51.765 0.10751C46.4358 0.0894203 41.1557 1.08702 35.6171 3.16109L35.064 3.37045L34.5096 3.1572C28.9878 1.05213 23.7154 0.0170441 18.3862 0.000244141C13.0595 -0.017849 7.78069 0.983627 2.24468 3.04994L1.49388 3.33297L1.36594 42.8449L2.93475 42.2633C8.20585 40.2888 13.2198 39.339 18.2608 39.3545C23.3032 39.3739 28.3094 40.356 33.565 42.3616L34.7422 42.8125L34.7396 42.9586L34.9374 42.8823L35.1273 42.9586V42.8138L36.3123 42.368C41.5795 40.3999 46.5935 39.4462 51.6371 39.4643C56.6782 39.4759 61.6818 40.4684 66.9399 42.4701L68.5036 43.0658L68.6315 3.54876L67.8846 3.26447Z" fill="#645BD0"/>
<path d="M33.9746 41.8563C23.2955 37.7844 13.234 37.7521 2.52768 41.7567C2.56645 30.6951 2.61167 15.7786 2.64656 4.71566C13.3554 0.710976 23.4131 0.745869 34.0948 4.81646C34.0586 15.8807 34.0121 30.7985 33.9746 41.8563Z" fill="white"/>
<path d="M35.9014 41.8653C46.6103 37.8593 56.6692 37.8917 67.3483 41.9648C67.3858 30.9044 67.4349 15.9841 67.4711 4.92759C56.7893 0.851833 46.7278 0.819523 36.0254 4.82679C35.9867 15.8833 35.9376 30.8049 35.9014 41.8653Z" fill="white"/>
<path d="M31.1369 10.7311C20.4577 7.41132 16.1816 7.39967 5.4792 10.6458C5.4792 8.26677 5.48438 11.2713 5.48438 8.75785C16.1894 5.513 20.4628 5.52591 31.1433 8.84183C31.1433 11.2713 31.1369 8.84185 31.1369 10.7311Z" fill="#645BD0"/>
<path d="M38.8555 10.753C49.5592 7.50562 53.8326 7.51853 64.5131 10.8409C64.5131 8.46705 64.5183 11.4715 64.5183 8.94778C53.8378 5.63574 49.5631 5.61892 38.8606 8.86505C38.8606 11.0709 38.8555 7.86616 38.8555 10.753Z" fill="#645BD0"/>
<path d="M31.1369 16.9416C20.4577 13.6206 16.1816 13.6089 5.4792 16.8564C5.4792 14.4773 5.48438 17.4818 5.48438 14.9684C16.1894 11.7223 20.4628 11.7365 31.1433 15.0524C31.1433 17.4818 31.1369 15.0524 31.1369 16.9416Z" fill="#645BD0"/>
<path d="M38.8555 16.9637C49.5592 13.7162 53.8326 13.7291 64.5131 17.0515C64.5131 14.6777 64.5183 17.6822 64.5183 15.1584C53.8378 11.8463 49.5631 11.8282 38.8606 15.077C38.8606 17.2815 38.8555 14.0768 38.8555 16.9637Z" fill="#645BD0"/>
<path d="M31.1369 23.1509C20.4577 19.8311 16.1816 19.8195 5.4792 23.0656C5.4792 20.6866 5.48438 23.6924 5.48438 21.1777C16.1894 17.9328 20.4628 17.947 31.1433 21.263C31.1433 23.6924 31.1369 21.2629 31.1369 23.1509Z" fill="#645BD0"/>
<path d="M38.8555 23.1742C49.5592 19.9268 53.8326 19.9384 64.5131 23.2621C64.5131 20.8869 64.5183 23.8927 64.5183 21.3689C53.8378 18.0569 49.5631 18.0388 38.8606 21.2862C38.8606 23.4921 38.8555 20.286 38.8555 23.1742Z" fill="#645BD0"/>
<path d="M31.1369 29.3615C20.4577 26.0404 16.1816 26.0301 5.4792 29.2762C5.4792 26.8972 5.48438 29.9016 5.48438 27.3882C16.1894 24.1434 20.4628 24.1563 31.1433 27.4722C31.1433 29.9017 31.1369 27.4722 31.1369 29.3615Z" fill="#645BD0"/>
<path d="M38.8555 29.3821C49.5592 26.136 53.8326 26.1489 64.5131 29.4713C64.5131 27.0975 64.5183 30.1032 64.5183 27.5781C53.8378 24.2661 49.5631 24.2493 38.8606 27.4968C38.8606 29.7026 38.8555 26.4965 38.8555 29.3821Z" fill="#645BD0"/>
<path d="M31.1369 35.5708C20.4577 32.251 16.1816 32.2406 5.4792 35.4855C5.4792 33.1077 5.48438 36.1122 5.48438 33.5988C16.1894 30.3526 20.4628 30.3668 31.1433 33.6828C31.1433 36.1122 31.1369 33.6828 31.1369 35.5708Z" fill="#645BD0"/>
<path d="M38.8555 35.5927C49.5592 32.3466 53.8326 32.3595 64.5131 35.6819C64.5131 33.308 64.5183 36.3112 64.5183 33.7887C53.8378 30.4767 49.5631 30.4586 38.8606 33.706C38.8606 35.9119 38.8555 32.7071 38.8555 35.5927Z" fill="#645BD0"/>
</svg>
