<svg viewBox="0 0 50 61" fill="none" xmlns="http://www.w3.org/2000/svg">
<path d="M26.3532 57.1645H23.6481V51.0581H26.3532V57.1645Z" fill="#9D96F0"/>
<path d="M37.3991 60.5037H12.6009C12.6009 60.5037 14.1786 55.4399 24.9988 55.4399C36.7231 55.4399 37.3991 60.5037 37.3991 60.5037Z" fill="#9D96F0"/>
<path d="M38.7582 48.3196L36.3254 49.5043L13.0942 1.87149L15.5257 0.686737L38.7582 48.3196Z" fill="#9D96F0"/>
<path d="M38.9075 48.6229C25.5016 55.1617 9.27366 49.576 2.73615 36.1701C-3.80376 22.7631 1.78431 6.53752 15.1902 3.8147e-06L16.3773 2.42919C4.31141 8.31462 -0.716532 22.9195 5.16652 34.9842C11.052 47.0489 25.6557 52.0792 37.7215 46.1926L38.9075 48.6229Z" fill="#9D96F0"/>
<path d="M37.4027 44.2316C26.2803 49.6548 12.8183 45.015 7.39508 33.8938C1.97183 22.7739 6.60565 9.31427 17.7268 3.88983C28.8468 -1.5358 42.3076 3.10041 47.7297 14.2204C53.1541 25.3404 48.5239 38.8048 37.4027 44.2316Z" fill="#645BD0"/>
<path d="M45.07 15.5186C49.7874 25.1935 45.7674 36.8521 36.1057 41.5671C26.4332 46.2821 14.7746 42.2729 10.0547 32.598C5.33852 22.9267 9.35609 11.2693 19.0262 6.55188C28.688 1.83685 40.3526 5.84726 45.07 15.5186Z" fill="#645BD0"/>
<path d="M44.1994 21.2093C44.1874 21.2141 44.1802 21.2141 44.179 21.2189C44.1707 21.2261 44.1695 21.2416 44.1695 21.2452C44.1731 21.2368 44.1826 21.2189 44.1994 21.2093Z" fill="#645BD0"/>
<path d="M10.1276 16.3868V16.394C10.1276 16.3868 10.1276 16.3868 10.1312 16.3856C10.1276 16.3868 10.1276 16.3868 10.1276 16.3868Z" fill="#645BD0"/>
<path d="M10.1336 16.3749C10.1336 16.3784 10.13 16.3808 10.1312 16.3856C10.1312 16.3856 10.13 16.3808 10.1336 16.3784C10.1312 16.3749 10.1312 16.3749 10.1336 16.3749Z" fill="#645BD0"/>
<path d="M26.873 11.0596C26.8623 11.0728 26.8503 11.0811 26.83 11.0991C26.8109 11.0895 26.7882 11.0764 26.7739 11.068C26.787 11.0369 26.8002 11.0035 26.8097 10.9736C26.8312 10.9928 26.8563 11.0059 26.8838 11.0274C26.8838 11.0238 26.8838 11.0238 26.8838 11.0238L26.8862 11.031C26.8862 11.0298 26.8862 11.0298 26.8862 11.0298C26.8933 11.0334 26.8933 11.0334 26.8933 11.0334C26.8957 11.0405 26.8874 11.0501 26.873 11.0596ZM29.4742 10.2989C29.5184 10.2451 29.5948 10.1735 29.7632 10.2714C29.7644 10.281 29.7548 10.2929 29.7572 10.2989C29.6832 10.3407 29.5948 10.3634 29.5267 10.4171C29.516 10.5162 29.6032 10.5652 29.6402 10.644C29.2126 10.3861 28.7588 10.1126 28.4125 9.95372C28.4041 9.9167 28.4005 9.87849 28.3886 9.84027C28.6179 10.0218 29.313 10.4625 29.4742 10.2989ZM41.6284 18.5884C41.8064 18.8249 41.8064 18.8249 42.5588 20.1804C42.6089 20.2556 42.8693 20.5482 42.9493 20.639C42.9863 20.6856 43.0245 20.7262 43.0699 20.7668C43.138 20.8325 43.2156 20.8898 43.2813 20.9591C43.3362 21.008 43.3697 21.0833 43.4222 21.1287C43.4927 21.1896 43.6491 21.2182 43.6491 21.2182C43.6647 21.2206 43.6862 21.1657 43.6898 21.143C43.7077 21.0845 43.6253 20.8444 43.6253 20.8444C43.5417 20.5996 42.8406 19.8962 42.8275 19.8854C42.4931 19.5522 42.4704 19.2799 42.4871 19.1437C42.4967 19.1413 42.5194 19.1438 42.5385 19.1414C42.7988 19.3898 42.7988 19.3898 42.9194 19.3468C42.9899 19.3981 43.0186 19.5092 43.1308 19.5032C43.2395 19.342 43.1153 18.5777 43.052 18.4391C42.8884 18.0641 42.8884 18.0641 42.0918 17.1875C41.9258 17.0406 41.8326 16.7838 41.8302 16.6764C41.8219 16.5139 42.0512 16.4662 42.0261 16.2942C41.9915 16.1079 42.0178 15.7926 42.0178 15.7854C42.0237 15.7711 42.0237 15.746 42.0357 15.7329C42.1455 15.5896 41.7299 14.6688 41.6165 14.4586C41.4003 14.074 41.3728 14.0286 41.3263 13.9749C41.3012 13.9462 41.2689 13.8949 41.2391 13.8662C41.1829 13.8065 41.1089 13.7695 41.0504 13.7026C41.0002 13.6489 40.9739 13.5736 40.919 13.5235C40.9142 13.5247 40.4879 13.1389 40.4305 13.1078C40.261 13.0159 40.261 13.0159 40.1618 12.8415C40.1009 12.7711 40.0412 12.7125 39.9839 12.6552C40.0388 12.7101 40.0961 12.7615 40.1463 12.814C40.0818 12.7006 40.0543 12.5656 39.96 12.4641C39.917 12.4092 39.8561 12.365 39.8227 12.4319C39.8107 12.4426 39.8083 12.4641 39.8024 12.4785C39.7952 12.531 39.7844 12.5848 39.7737 12.6337C39.659 12.6254 39.4453 12.5238 39.4154 12.4832C39.3223 12.3543 39.4429 12.193 39.3557 12.0605C39.3461 12.027 39.3378 11.99 39.3294 11.953C39.4823 12.0772 39.5026 12.0724 39.5492 12.0724C39.5731 12.0174 39.5336 11.9661 39.5647 11.904C39.628 11.898 39.671 11.9422 39.7629 12.0246C39.7761 12.027 40.4449 12.5346 40.5631 12.5322C40.6372 12.5226 40.63 12.3196 40.2466 11.9864C40.0794 11.8526 39.868 11.7774 39.7152 11.6293C39.714 11.6209 39.1156 10.9498 39.0571 10.8172C39.1312 10.8363 39.1359 10.8315 39.1598 10.8088C39.1455 10.6608 38.368 9.69697 37.7183 9.25867C37.6682 9.22404 37.6108 9.19058 37.4568 9.09265C37.4377 9.11414 37.4341 9.13685 37.4317 9.16551C37.4341 9.13685 37.4377 9.11414 37.4424 9.08308C36.9564 8.80123 36.745 8.66868 36.6494 8.71287C36.6494 8.73079 36.6471 8.73078 36.6423 8.73317C36.4106 8.61493 36.1861 8.50387 35.9579 8.38444C35.8899 8.3104 35.8194 8.22798 35.7394 8.16588C35.5603 8.02376 35.3106 7.97599 35.1685 7.77654C35.1602 7.77057 35.159 7.75504 35.1506 7.7419C35.1972 7.68697 35.1972 7.68696 35.1852 7.56037C35.2151 7.52335 35.2617 7.50903 35.3011 7.48514C35.2987 7.4529 35.2987 7.45291 34.3898 6.86532C34.4639 6.88204 34.532 6.9095 34.6012 6.92264C34.5845 6.89517 34.5845 6.89518 34.2334 6.72201C34.2537 6.7244 34.2788 6.72917 34.3218 6.7447C34.36 6.75664 34.3994 6.77573 34.446 6.79126C34.5618 6.84858 34.6968 6.91906 34.7708 6.95728C36.9277 8.12529 36.9277 8.12528 37.0471 8.14439C37.0364 8.11931 36.4655 7.68818 35.7012 7.30959C34.4806 6.64557 33.8214 6.34938 33.2027 6.14516L33.2003 6.14396H33.1991C32.9352 6.04962 32.6725 5.97198 32.3799 5.89554C32.4563 5.90868 32.5315 5.92541 32.6139 5.93616C32.5088 5.90033 32.4085 5.88004 32.3106 5.85615L32.3166 5.85496C32.3823 5.87407 32.4468 5.89077 32.5065 5.90152L32.4706 5.89315C32.4085 5.87643 32.3452 5.86212 32.2819 5.84779C32.2772 5.84301 32.2664 5.84181 32.2592 5.83942C32.2282 5.82747 32.184 5.81792 32.1446 5.80956L32.1135 5.80119C32.0204 5.77492 31.9284 5.75463 31.8365 5.73194C31.8317 5.72956 31.8269 5.73433 31.8198 5.72955L31.8114 5.72716C31.7899 5.72238 31.766 5.7176 31.7445 5.71521C31.5809 5.6758 31.5809 5.67581 31.526 5.67223C31.5881 5.69014 31.6537 5.69729 31.7087 5.71162C31.4603 5.67579 31.4603 5.67579 31.2632 5.67937C31.2656 5.68892 31.2608 5.70206 31.2608 5.71162C31.2513 5.7152 31.2381 5.71641 31.225 5.72238C31.231 5.73552 31.2393 5.76178 31.2441 5.77492C31.3838 5.83941 31.5379 5.83105 31.6681 5.89554C31.5857 5.93018 31.5045 5.88002 31.4221 5.89196C31.4627 5.91823 31.508 5.93136 31.5498 5.94808C31.5439 5.96242 31.5379 5.99108 31.5319 6.01019C31.557 6.02691 31.557 6.02693 31.6131 6.05679C31.4973 6.12486 31.3707 6.08784 31.2465 6.12247C31.2775 6.1595 31.3385 6.15949 31.3588 6.20129C31.3516 6.21801 31.3361 6.24667 31.3289 6.261C30.8572 6.32669 30.8572 6.32669 30.8536 6.34938C30.8846 6.37924 30.8954 6.38641 31.01 6.41746C30.7998 6.40432 30.7974 6.40671 30.7473 6.41866C30.7294 6.47598 30.7294 6.47599 30.7198 6.51301C30.4009 6.44494 30.2744 6.43774 30.2541 6.48432C30.3532 6.57986 30.5944 6.62287 30.7019 6.58824C30.7903 6.56077 31.2154 6.75543 31.219 6.7614C31.1486 6.78051 31.1175 6.85218 31.0626 6.89278C31.0626 6.90473 31.0638 6.91906 31.0614 6.92742C31.0996 6.9525 31.1354 6.9704 31.1736 6.99787C31.1557 7.00264 31.1378 7.00743 31.1151 7.00982C30.9861 6.96563 30.8536 6.94533 30.7294 6.98475C30.5825 6.9525 30.4356 6.91187 30.2791 6.96323C30.2624 6.97278 30.2624 6.97279 30.2624 6.97279C30.2373 7.03012 30.1728 7.03608 30.1286 7.08265C30.143 7.14237 30.2003 7.17462 30.395 7.23433C30.3938 7.25225 30.3902 7.28092 30.383 7.30122C30.4905 7.3466 30.5944 7.37289 30.7091 7.40514C30.5944 7.37289 30.4905 7.3466 30.3806 7.3251C30.3699 7.37048 30.3639 7.38483 30.3353 7.39796C30.2361 7.45051 30.1191 7.41825 30.0212 7.47558C29.9364 7.51858 29.8898 7.62129 29.7835 7.62726C29.7692 7.62965 29.7548 7.63084 29.7369 7.62606C29.4849 7.62128 29.2711 7.45051 29.0239 7.42782C28.7218 7.40752 28.7218 7.40751 28.6716 7.42543C28.5868 7.45529 28.6035 7.59384 28.4913 7.58787C28.4352 7.58548 28.25 7.56874 28.0052 7.5162C27.7831 7.46843 27.4702 7.56396 27.4654 7.56635C27.4654 7.57829 27.4606 7.58665 27.457 7.5974C27.4773 7.62726 27.4964 7.65116 27.5156 7.67744C27.2062 7.70491 26.8909 7.65951 26.5804 7.69175C26.5136 7.70011 26.5112 7.69892 26.3416 7.78491C26.3225 7.80282 26.3225 7.80281 26.3225 7.80281C26.3225 7.80281 26.3225 7.80281 26.3201 7.80281C26.3404 7.87805 26.4073 7.89358 26.787 7.9521C26.7643 8.12408 27.2349 8.08348 27.2409 8.07631C27.2504 8.06556 27.2468 8.03929 27.2421 8.01899C27.7687 7.88642 27.7687 7.88641 27.7305 7.82908C27.8571 7.79087 27.9825 7.88284 28.1008 7.83984C28.1211 7.82312 28.1234 7.81954 28.1318 7.81238C28.1318 7.80999 28.139 7.8052 28.1402 7.80042C28.1425 7.79684 28.1485 7.79447 28.1521 7.7885C28.1521 7.7873 28.1581 7.77774 28.1617 7.77774C28.1664 7.77057 28.1664 7.76937 28.1664 7.76937C28.1736 7.75743 28.1736 7.75744 28.1808 7.75027C28.1855 7.75027 28.1891 7.74668 28.1951 7.7431C28.1951 7.73952 28.1987 7.73476 28.1999 7.73356C28.2954 7.77059 28.3886 7.80521 28.4781 7.84223C28.4757 7.9545 28.4925 8.06676 28.4746 8.17544C28.4555 8.27337 28.2882 8.23396 28.3014 8.34741C28.3324 8.63046 28.3324 8.63046 28.3241 8.64598C28.3241 8.64837 28.3241 8.64838 28.3241 8.64838C28.2775 8.71884 28.3623 8.8514 28.7015 8.9147C28.8006 8.93739 28.8006 8.93738 28.8185 8.96246C28.8125 8.97201 28.8125 8.9804 28.8078 8.98517C28.6716 9.00787 28.6716 9.00786 28.6537 9.01264C28.6394 9.13804 28.5056 9.12968 28.4435 9.19656C28.4555 9.34466 28.6179 9.38287 29.0239 9.49633C28.9081 9.53455 28.7636 9.48557 28.668 9.6062C28.5964 9.69218 28.7433 9.74474 28.7707 9.81998C28.4495 9.74235 28.3671 9.73159 28.3289 9.75309C28.0733 9.31479 27.5299 9.13325 27.0677 9.35777C26.9996 9.39241 26.9495 9.44258 26.8957 9.48796C26.7823 9.38764 26.4909 9.31599 26.4729 9.43064C26.4335 9.63605 26.4335 9.63605 26.3045 9.99314C26.1744 10.3311 26.1744 10.3311 26.3153 10.656C26.3499 10.7467 26.4013 10.7933 26.5183 10.8566C26.4658 10.9522 26.4658 10.9522 26.4622 11.0393V11.0453C26.4706 11.1564 26.6031 11.2603 26.7739 11.289C27.3173 11.3499 27.426 11.363 27.5191 11.2842C27.5359 11.3881 27.5502 11.4908 27.5979 11.5911C27.629 11.6496 27.6792 11.6962 27.7234 11.7475L27.6971 11.7619C27.5418 11.7165 27.4773 11.7416 27.4582 11.867C27.5371 11.953 27.6159 12.033 27.6959 12.0998C27.6159 12.033 27.5371 11.953 27.4582 11.8813C27.4427 11.9792 27.4319 12.0043 27.3615 12.0389C27.0999 11.8228 27.0999 11.8228 27.0832 11.8108C27.0247 11.8001 26.8312 11.8359 26.8312 11.9339C26.8312 11.9362 26.8659 12.1644 27.2325 12.1441C27.2325 12.193 27.2325 12.193 27.1799 12.3387C27.1788 12.3542 27.1441 12.4164 26.9913 12.3638C26.83 12.2993 26.6915 12.494 26.6915 12.4952C26.621 12.6982 27.1119 12.6695 26.9793 12.8463C26.9769 12.8463 26.7488 13.1198 26.6043 12.9848C26.1135 12.525 25.6298 12.6624 25.6226 12.6647C25.3085 12.8522 24.9861 12.8117 24.9789 12.8081C24.8308 12.7615 24.7018 12.7328 24.5095 12.8439C24.3794 12.9263 24.2217 12.9717 24.1035 13.0863C24.033 13.1616 24.0653 13.2834 23.9817 13.361C23.6294 13.5664 23.5565 14.7547 23.5326 15.1441C23.5004 15.6755 23.5004 15.6755 23.4395 15.8404C23.2317 16.4733 23.2317 16.4733 23.2376 16.4984C23.2317 16.5115 23.5063 17.4347 23.7309 17.498C24.0103 17.5673 24.0963 17.4109 24.1632 17.2616C24.2349 17.0812 24.2671 17.0275 24.4212 17.1123C24.6648 17.2305 24.7496 17.584 25.0792 17.59C25.1736 17.596 25.2357 17.5446 25.2703 17.5267C25.4924 17.3655 25.5103 16.5832 25.3802 16.324C24.8356 15.242 24.8356 15.242 25.0219 15.1298C25.0756 15.4259 25.3742 15.8368 25.3766 15.8404C25.4494 15.8989 25.4769 15.8989 25.9475 15.912C25.9821 16.1151 26.0263 16.1748 26.1433 16.2452C26.1493 16.4315 25.9654 16.5462 25.9797 16.7289C25.9952 16.9033 26.0466 17.0765 26.0215 17.2592C26.0215 17.264 26.0203 17.2842 26.0179 17.295C26.0036 17.381 25.9439 17.4156 25.9188 17.43C25.9164 17.4323 25.9164 17.4323 25.9164 17.4323C25.7182 17.541 25.6513 17.787 25.4494 17.8933C25.4411 17.9029 25.4411 17.9029 25.4411 17.9029C25.4351 17.9029 25.4339 17.9041 25.4339 17.9041C24.8833 18.1656 24.8654 18.0367 24.8356 17.8205C24.838 17.8181 24.7149 17.2245 24.3447 17.4658C24.1954 17.5649 24.2265 17.9662 24.4403 18.1776C24.5585 18.2863 24.6027 18.4475 24.4809 18.5359C24.4773 18.5383 24.4773 18.5383 24.4749 18.5383C24.1907 18.7078 24.1692 19.0637 24.1716 19.0685C24.1489 19.4352 24.1489 19.4352 24.1166 19.4555C24.1907 19.4208 24.2623 19.391 24.3423 19.3527C24.34 19.3575 24.3423 19.3611 24.3352 19.3683C24.2552 19.3981 24.1763 19.4328 24.0963 19.4674C24.0844 19.4817 24.0676 19.5104 24.0509 19.5235C23.9661 19.6621 24.0235 19.8329 23.9339 19.9714C23.8646 20.0944 23.6974 20.0813 23.6329 20.2079C23.6043 20.2592 23.6222 20.3392 23.6353 20.3906C23.3594 20.5112 23.3356 20.5208 23.3332 20.5757C23.3212 20.6438 23.4538 20.8146 23.5708 20.8599C24.1596 21.0689 24.1907 21.2242 24.2993 21.7294C23.2555 22.1354 23.2555 22.1354 23.2376 22.2441C23.2352 22.2585 23.7106 23.6378 23.8921 23.6892C24.3089 23.8349 24.3089 23.8349 24.6803 23.5292C24.6839 23.528 24.6839 23.528 24.6839 23.528C25.4005 23.0933 24.9825 22.3564 25.1521 21.7748C25.2798 21.3544 25.2798 21.3544 25.4518 21.3436C25.5796 21.3305 25.5796 21.3305 25.9283 20.7907C25.9833 20.8372 26.0299 20.8826 26.0955 20.9197C26.4789 21.0928 26.9089 21.051 27.3042 21.1776C27.5287 21.2409 27.4702 21.5968 27.7425 21.6147C28.0876 21.6398 27.912 20.9376 27.912 20.9304C27.6624 20.3416 26.8599 20.9173 26.6055 20.3213C26.7273 20.1362 26.7273 20.1362 27.6672 20.4479C27.7007 20.4575 27.7341 20.4813 27.7568 20.4945C27.8965 20.5805 27.9443 20.7453 28.0828 20.8241C28.2333 20.9101 28.5104 20.7393 28.5785 20.9746C28.6633 21.2493 28.6633 21.2493 28.7301 21.2624C28.8209 21.2791 28.9571 21.2039 29.0227 21.0654C29.1446 20.8086 28.8149 20.6187 28.9105 20.3691C29.4372 20.2926 29.6426 21.2923 30.1561 20.9125C30.2075 20.8719 30.2517 20.7978 30.2624 20.7656C30.315 20.5996 30.3353 20.5267 30.9384 20.2759C31.3659 20.4611 31.3874 21.2732 31.397 21.7091C31.2513 21.733 31.1104 21.6577 30.967 21.7186C30.7927 21.8034 30.9491 22.0745 30.7401 22.1283C30.5717 22.1677 30.395 22.1605 30.2433 22.2358C30.1406 22.2847 30.0534 22.3265 29.9101 22.3158C29.3524 22.2883 28.8711 22.2609 29.0502 22.7553C29.1386 22.9977 29.0514 23.1362 28.7815 23.1744C28.7767 23.1768 27.4905 23.0933 27.4116 23.0706C27.2504 23.018 27.1931 22.9571 27.1632 22.6561C27.137 22.4615 27.1238 22.3241 26.9877 22.354C26.4897 22.471 26.1457 22.8819 25.674 23.061C25.4351 23.2497 25.3157 23.5435 25.0959 23.7573C24.8977 23.9519 24.5083 23.6952 24.3734 24.0344L24.1907 24.8071C24.1202 25.3087 24.4952 25.827 24.1453 26.3262C23.9972 26.5423 23.9709 26.5853 23.8873 27.5945C23.8658 27.8322 24.033 28.0018 24.1023 28.2012C24.1811 28.4365 24.3304 28.6264 24.4128 28.8533C24.5095 29.1112 24.4582 29.4003 24.568 29.6523C24.654 29.8505 24.8762 30.3032 25.0888 30.3378C25.5271 30.3939 25.5271 30.3939 25.7134 30.5563C25.9666 30.8215 25.9666 30.8215 26.0287 30.8394C26.0358 30.8478 27.1095 31.3028 27.5299 31.1977C27.5562 31.1941 27.5777 31.1738 27.5968 31.1642C27.7305 31.0914 27.7508 30.9206 27.8726 30.8477C28.0291 30.7629 28.2261 30.8298 28.3754 30.7188L28.9164 30.1145C28.975 30.0356 29.0645 29.9222 29.2377 29.9031C29.4372 29.878 29.5506 30.0715 29.7286 30.0977C29.9626 30.1312 30.0654 29.8589 30.2815 29.8684C30.3771 29.8636 30.438 29.909 30.4607 29.9353C30.4642 29.9317 30.856 30.6017 30.8094 30.7068C30.7795 30.7665 30.7234 30.8967 30.8166 31.0412C31.1725 31.5775 31.8472 31.6646 32.2879 32.0922C32.8504 32.626 32.0753 33.7403 33.0117 34.0628C33.02 34.0628 33.8918 34.6181 34.0137 34.9L34.9476 35.9497C34.9512 35.9545 35.1172 36.0727 35.3632 35.9557C35.3704 35.9533 36.4082 35.318 36.4894 35.1125C37.2633 33.1874 36.8274 32.2916 36.8262 32.2857C36.8035 32.2486 36.7605 32.1853 36.7784 32.1423C36.9002 31.8533 37.1057 31.6049 37.2203 31.3147C37.3696 30.9278 37.3696 30.9278 37.2812 30.3032C37.2 29.7227 36.4225 29.6893 36.3401 29.1029L36.2744 28.3529C36.2744 28.3457 36.5515 27.2924 36.7557 26.9914C36.8238 26.8971 36.8381 26.7812 36.8656 26.5973C36.9468 26.0204 36.7653 25.4531 36.7832 24.8799C36.7068 24.8918 36.6303 24.9348 36.5539 24.9814L36.5515 24.9766C36.6327 24.9289 36.7068 24.8823 36.7868 24.8309C36.788 24.7115 36.788 24.5897 36.788 24.4738C36.788 24.4261 36.7832 24.3676 36.7581 24.3031C36.7199 24.2123 36.6602 24.1908 36.6423 24.1765C36.5109 24.143 36.4082 24.2051 36.272 24.4094C35.9448 24.9002 35.4719 25.0698 35.3871 25.0316C35.2008 24.9539 35.1208 24.7605 34.9631 24.6554C34.7804 24.5371 34.5439 24.6578 34.366 24.5097C34.3409 24.4918 34.3158 24.45 34.2979 24.4213C34.1582 24.2231 33.8691 24.2362 33.7414 24.0272C33.6183 23.8086 33.4022 23.6952 33.2386 23.5196C32.8803 23.141 32.4038 22.8974 32.0395 22.5128C32.0288 22.5021 31.9069 22.3612 32.061 22.2716C32.0992 22.2489 32.4348 22.2573 32.6331 22.5928C32.6498 22.6179 32.6904 22.6896 32.866 22.7995C33.3102 23.0706 33.6757 23.4408 34.1617 23.6307C34.3194 23.6928 34.4173 23.7477 34.4484 23.7668C34.4938 23.8027 34.6168 23.8779 34.7553 24.0356C35.2211 24.5658 35.4898 24.6876 35.4922 24.6888C35.6331 24.6375 35.9687 24.0415 36.1968 23.6402C36.2123 23.6092 36.2422 23.5662 36.2637 23.5304C36.2744 23.5172 36.2816 23.4969 36.29 23.4862C36.5623 22.9702 36.7116 22.4233 36.7175 22.4221L36.8035 21.8428C36.8047 21.7234 36.7259 21.6147 36.7378 21.4834C36.7641 21.2672 36.776 21.1263 36.751 21.0247C36.7223 20.9352 36.6721 20.9149 36.6423 20.9006C36.5742 20.8671 36.5037 20.9006 36.438 20.8743C36.29 20.8229 36.1765 20.7166 36.0272 20.6712C35.6033 20.5375 35.5196 20.5984 35.4802 20.6306C35.3465 20.7692 35.4778 20.9985 35.3166 21.131C35.202 21.2182 35.1243 21.1728 34.9333 21.0689C34.5487 20.8564 34.5344 20.8468 34.4484 20.8349C34.2454 20.8229 33.9886 20.6187 33.9587 20.4742C33.9659 20.4145 33.9778 20.3273 34.0781 20.3416C34.114 20.3416 34.1582 20.3691 34.1737 20.387C34.3397 20.4897 34.4424 20.5255 34.6275 20.565C34.6777 20.565 34.8174 20.5805 34.9631 20.565C35.233 20.5208 35.233 20.5208 35.4122 20.3786C35.6283 20.2031 35.817 20.4372 36.0272 20.4013C36.1944 20.3691 36.4584 20.2927 36.4584 20.2927C36.4834 20.2831 36.5217 20.2664 36.5455 20.2496C36.6244 20.1852 36.6244 20.0777 36.702 20.0204C36.7713 19.9666 36.8728 20.012 36.9409 19.9439C37.003 19.8711 37.0221 19.8364 37.1116 19.6131C37.286 19.6824 37.3887 19.8627 37.5762 19.9189C37.7243 19.9642 37.7243 19.9642 37.8712 19.846C38.0229 20.1852 38.0682 20.1912 38.4385 19.9786C38.9234 20.7131 39.3223 21.1776 39.5181 21.3878C39.7952 21.6816 40.1463 21.8918 40.4497 22.1498C40.5428 22.2214 40.5798 22.2572 40.6431 22.2298C40.6825 22.219 40.7148 22.1175 40.704 22.0662C40.7017 22.0304 40.6909 21.9969 40.6849 21.9647C40.6849 21.9587 40.6825 21.9575 40.6825 21.9575C40.6467 21.8082 40.6013 21.7079 40.5428 21.5586C40.5368 21.5455 40.1797 20.639 40.1618 20.5184C40.0938 20.1493 40.2371 19.7923 40.2096 19.434C40.218 19.0888 40.1188 18.7508 40.1618 18.414C40.1845 18.2576 40.3661 18.2086 40.4007 18.0617C40.4102 18.057 40.4234 18.0498 40.4365 18.045C40.587 18.1298 40.7805 18.1274 40.9226 18.2409C41.1029 18.3866 41.1949 18.5478 41.2821 18.7186C41.349 18.8428 41.4063 18.8834 41.4505 18.9037C41.5329 18.9395 41.5329 18.9395 41.6284 18.5884Z" fill="white"/>
<path d="M13.3955 16.0028C13.4039 15.9849 13.4087 15.9574 13.4122 15.9311C13.4397 15.9287 13.4648 15.9407 13.4875 15.9383C13.4612 15.9634 13.4361 15.9777 13.3955 16.0028ZM13.9401 17.719C13.9616 17.7452 13.9807 17.7751 13.9807 17.7775C13.9927 17.7942 14.013 17.8074 14.0225 17.8288L14.1372 18.2671C14.1372 18.2731 14.0727 18.3352 13.9783 18.3842C14.0416 18.168 14.0309 17.9363 13.9401 17.719ZM13.0719 17.129C13.0444 17.129 13.0134 17.117 12.9811 17.1146C13.0134 17.0979 13.0396 17.0752 13.0695 17.0561C13.0695 17.0705 13.0683 17.0812 13.0671 17.1039C13.0707 17.1194 13.0719 17.1194 13.0719 17.129ZM13.7932 17.4502C13.7932 17.467 13.8087 17.5004 13.8326 17.5434C13.6726 17.3177 13.4433 17.1815 13.1746 17.1421C13.2259 17.1027 13.2653 17.0561 13.331 17.0382C13.4015 17.0179 13.4552 17.0752 13.472 17.1015C13.5269 17.1541 13.54 17.3428 13.6224 17.2723C13.8016 17.1218 13.7956 17.3177 13.7932 17.4502ZM24.9216 40.7722C25.0995 40.5023 25.0995 40.5023 24.5764 40.2133C24.6696 40.1859 24.7985 40.1524 24.8857 40.1202C24.8081 39.7846 24.8081 39.7846 24.8081 39.7022C24.8308 39.658 24.8559 39.5971 24.8762 39.5505C24.7269 39.2579 24.488 39.0357 24.2993 38.7706C24.4606 38.4422 24.9884 38.4087 24.9705 37.9322L24.1584 35.4386C23.4693 34.2968 20.7523 34.6241 20.726 34.6288C20.7093 34.3291 20.6723 33.7666 17.3187 32.7681C17.0918 32.9043 17.0918 32.9043 16.3502 32.7813C16.3275 32.8255 16.2917 32.8792 16.2702 32.9186C16.1746 32.9138 16.048 32.8828 15.9549 32.8517C15.6742 33.3211 15.6742 33.3211 15.5428 33.3927C14.8597 33.1897 14.7845 32.3489 14.1611 32.0802C13.6081 31.839 13.7681 31.046 13.177 30.8298C13.0265 30.9397 13.0265 30.9397 13.0289 31.4413C12.993 31.4437 12.9489 31.4532 12.913 31.4532C12.8951 31.4461 11.6578 30.3951 11.9588 28.9094C12.1654 28.9082 12.1881 28.9106 12.3828 29.0933C12.47 29.0539 12.5607 28.9524 12.5989 28.8604C12.9393 28.7852 12.9393 28.7852 13.6702 30.0583C13.7108 30.0344 13.7681 29.9926 13.8063 29.9616C13.8075 29.9042 13.8171 29.829 13.8159 29.7633C13.8076 29.2355 13.3418 28.8616 13.3286 28.329C13.3155 27.8513 13.8756 27.5563 13.749 27.032C13.5472 26.2163 14.3044 25.6717 14.3474 24.9133C14.4405 24.9468 14.5707 24.9933 14.6615 25.0304C14.8263 24.9492 15.5213 24.2911 15.2144 23.86C15.1296 23.8958 15.0341 23.9842 14.9815 24.0594C14.5277 23.7298 14.6137 23.27 14.7857 23.1792C14.9397 23.1016 14.9397 23.1016 15.6778 22.4065C15.6479 22.0339 14.5599 20.0669 14.554 20.0562C14.3999 20.2031 14.302 20.4013 14.136 20.5291C13.9174 19.5247 13.9174 19.5247 13.8505 19.3981C12.8223 19.3396 12.7673 21.5514 12.79 22.5104C12.0364 21.1513 12.0364 21.1513 11.948 21.1215C11.8215 20.3034 12.3159 19.6573 12.5739 18.9431C12.6013 18.9586 12.624 18.9754 12.6491 18.9849C12.5858 19.1437 12.5559 19.3002 12.6813 19.3754C12.7172 19.4005 12.7172 19.4005 12.9071 19.391C12.9333 19.4232 12.956 19.3898 12.9715 19.3647C12.9715 19.3647 13.0993 19.2047 13.1316 19.0984C13.1328 19.0864 13.1316 19.0804 13.1316 19.0697C13.2426 19.0578 13.3633 19.0363 13.4743 18.9825C13.4863 18.9777 13.4863 18.967 13.497 18.9622C13.5938 18.9395 13.7168 18.8798 13.7932 18.9407C13.9783 19.096 13.9401 19.3814 14.142 19.5247C14.2076 19.5677 14.2614 19.5761 14.3294 19.5892C14.4429 19.5331 14.388 19.3324 14.554 19.33C14.5659 19.3277 14.5659 19.3277 14.5659 19.3277C14.7916 19.2644 14.6973 18.6553 14.6125 18.5144C14.5707 18.4487 14.5516 18.2767 14.6412 18.2241C14.788 18.26 14.677 18.5502 14.8227 18.5024C14.8263 18.5 15.0269 18.4069 15.0795 18.0641C15.1141 17.885 15.0914 17.8336 15.0795 17.8157C15.0353 17.7213 14.9159 17.6975 14.8621 17.6175C14.8537 17.5983 14.8537 17.5983 14.6865 17.5625C14.6137 17.5482 14.6173 17.4574 14.6256 17.3022C14.6412 17.0537 14.6149 16.9642 14.3092 16.7265C14.259 16.6847 14.259 16.6847 14.2482 16.4184C14.247 16.4172 14.2005 16.0422 14.1814 16.0111C14.1288 15.9168 13.9604 15.8822 13.9318 15.8845C13.9091 15.881 13.8983 15.8762 13.8947 15.8618C13.9055 15.8571 13.927 15.8607 13.9437 15.8511C14.2853 15.6851 14.4787 15.3399 14.4859 14.9757C14.5229 14.9016 14.5576 14.8264 14.6089 14.7559C14.7295 14.5923 14.8776 14.4514 14.9887 14.2878C15.0663 14.1731 15.0962 14.0298 15.2204 13.9474C15.6682 13.6321 15.6682 13.6321 15.6981 13.5927C15.839 13.4207 15.9441 13.2165 16.0803 13.0398C16.1376 12.9645 16.2391 12.9311 16.2917 12.8594C16.3215 12.826 16.3478 12.783 16.3705 12.7292C16.429 12.6002 16.4099 12.5847 16.3609 12.5573C16.3227 12.5322 16.3215 12.4999 16.3275 12.4426C16.3227 12.451 16.3203 12.4522 16.3167 12.4581C16.2475 12.5226 16.0707 12.5131 16.0707 12.5131C16.0265 12.5071 16.0265 12.5071 15.8295 12.6325C15.765 12.5812 15.7303 12.6886 15.6706 12.7053C15.6503 12.6886 15.6455 12.6337 15.6121 12.6528C15.5476 12.6803 15.5249 12.7579 15.4736 12.7985C15.4628 12.7937 15.4569 12.7925 15.4545 12.7866C15.4389 12.5943 15.2419 12.8093 15.2395 12.8093C15.1953 12.8642 15.1535 12.9311 15.1093 13.0027C15.089 12.9621 15.0723 12.9251 15.058 12.8845C15.0245 12.8833 14.757 13.0433 14.6233 13.3371C14.554 13.4804 14.6734 13.7074 14.6734 13.7074C14.7056 13.7241 14.7415 13.6942 14.7916 13.6512C14.7916 13.6512 14.9111 13.5593 14.9481 13.5437C14.9636 13.5808 14.9541 13.5903 14.9063 13.6512C14.8203 13.7468 14.7618 13.8757 14.64 13.9307C14.6017 13.908 14.5671 13.816 14.5253 13.8662C14.4357 13.9689 14.3927 14.0967 14.3271 14.2126C14.2972 14.2555 14.2685 14.2925 14.2411 14.3367C14.2363 14.3284 14.2244 14.3117 14.216 14.3045C14.2494 14.2555 14.2888 14.203 14.3378 14.1194C14.4704 13.8734 14.5958 13.4781 14.4835 13.453C14.4799 13.4554 14.4799 13.4554 14.4799 13.4554C14.4692 13.4494 14.4537 13.4434 14.4417 13.4434C14.4166 13.4458 14.339 13.4577 14.0583 14.0179C14.0583 14.0179 14.0357 14.0764 14.0082 14.1397C13.9019 14.0764 13.7908 14.0334 13.663 14.0179C13.6654 14.0011 13.6726 13.988 13.675 13.9749C13.6845 13.9462 13.6905 13.9128 13.6929 13.8793C13.6953 13.8519 13.675 13.8435 13.6678 13.8411C13.6165 13.8531 13.5651 13.9199 13.5185 13.994C13.4325 13.9916 13.3585 14.0155 13.2701 14.0334C13.2653 14.0239 13.2582 14.0119 13.2546 14.0036C13.2498 13.9988 13.2426 14.0012 13.2415 14.0036C13.1937 14.0143 13.1614 14.0394 13.1316 14.0692C13.1149 14.0764 13.0958 14.0752 13.0802 14.0824C12.9286 14.1564 12.8151 14.2663 12.7243 14.3953C12.5727 14.5135 12.3362 14.7177 12.3326 14.7177C12.2669 14.8097 12.2418 15.0581 12.2418 15.0581L12.243 15.0605C12.2669 15.0641 12.2765 15.0426 12.2908 15.0342C12.2908 15.0342 12.2944 15.033 12.2968 15.0354C12.292 15.0927 12.2335 15.1357 12.2478 15.2014C12.2586 15.199 12.3672 15.1166 12.4461 14.9196C12.4628 14.8825 12.5058 14.8025 12.5058 14.8025C12.5058 14.8025 12.5332 14.7703 12.5643 14.7368C12.5619 14.7643 12.5607 14.7942 12.5559 14.824C12.5129 14.8646 12.4544 14.9351 12.3875 15.0581C12.3577 15.119 12.3195 15.242 12.286 15.3495C12.2 15.3674 12.1152 15.377 12.0304 15.4188C12.0281 15.377 12.0448 15.3328 12.003 15.3041C11.9588 15.285 11.837 15.4677 11.7355 15.6493C11.6328 15.758 11.5671 15.8977 11.5289 16.0446C11.4894 16.1365 11.4464 16.2703 11.4345 16.3551C11.4285 16.3575 11.4238 16.3575 11.4142 16.3611C11.3629 16.3861 11.3258 16.4291 11.2781 16.4638C11.2804 16.4435 11.284 16.422 11.29 16.3993C11.247 16.4267 11.1992 16.4697 11.167 16.5044C11.1228 16.5032 11.0535 16.4948 11.0093 16.4924C10.964 16.5402 10.9078 16.613 10.8636 16.6704C10.9639 16.1473 10.9783 16.0111 10.9687 15.9717C10.9783 15.9216 10.9866 15.8786 10.9986 15.8403C11.1598 15.5048 11.1538 15.4582 11.1419 15.414C11.1395 15.408 11.1347 15.4104 11.1347 15.408C11.1347 15.408 11.1335 15.408 11.1335 15.4104C11.155 15.3507 11.1885 15.2731 11.2267 15.1859C11.1013 15.3053 11.0356 15.377 10.7072 16.0816C10.6809 16.1568 10.6809 16.1568 10.6809 16.1568L10.5854 16.3718C10.5842 16.3766 10.5818 16.3838 10.5758 16.3861C10.6331 16.2679 10.6379 16.244 10.6499 16.2166L10.5579 16.4315C10.5495 16.4435 10.5436 16.4566 10.54 16.4662C10.54 16.4662 10.54 16.4662 10.54 16.465C10.54 16.4662 10.5376 16.4662 10.5352 16.4685C10.5352 16.4685 10.5376 16.4733 10.5376 16.4769L10.497 16.5557C10.503 16.5545 10.503 16.5545 10.503 16.5545L10.4194 16.7444L10.4026 16.7791C10.3847 16.8233 10.3704 16.8734 10.3489 16.92L10.319 16.9976C10.3059 17.031 10.2916 17.0669 10.2761 17.1063C10.2713 17.117 10.2689 17.123 10.2689 17.1326V17.1338C10.2689 17.1385 10.2581 17.1541 10.208 17.2771C10.196 17.3248 10.1686 17.3834 10.1554 17.424C10.1554 17.424 10.153 17.4467 10.1435 17.467C10.0097 17.8253 9.90223 18.1549 9.80669 18.4702C9.70637 18.7866 9.64904 19.016 9.56664 19.342C9.56425 19.3551 9.56306 19.3575 9.55948 19.3683C9.56426 19.3587 9.56425 19.3551 9.56544 19.3444C9.54633 19.4268 9.52961 19.514 9.50453 19.6095C9.50214 19.6131 9.50215 19.6131 9.49977 19.6167C9.49857 19.6227 9.49857 19.6382 9.49618 19.6454C9.49737 19.6573 9.49141 19.6704 9.48663 19.6859L9.49618 19.6489C9.48901 19.6645 9.48663 19.6859 9.48185 19.6943C9.43408 19.9188 9.45677 19.932 9.47946 19.9487C9.48901 19.9368 9.50214 19.9212 9.51886 19.9093C9.52603 19.9153 9.532 19.9296 9.53798 19.9367C9.5547 19.8854 9.61799 19.6453 9.58216 19.6C9.56067 19.5677 9.55948 19.4961 9.57262 19.3981C9.63472 19.2369 9.69204 19.0721 9.74578 18.9073C9.37078 23.6892 9.04354 27.819 11.044 30.2088C11.044 29.9568 10.9866 29.7359 10.8983 29.5185C11.7808 31.5368 11.9194 31.6395 12.8402 32.2856C13.3095 32.0229 14.456 33.388 14.4775 33.4023C14.8824 33.9839 15.6993 33.9744 16.1352 34.5321C16.5592 35.0827 16.4374 35.8518 16.8757 36.4C16.9127 36.4418 16.9557 36.4991 16.9975 36.5313C18.3088 37.7005 19.9653 38.3574 21.2969 39.492C22.7886 40.7782 24.5036 41.9773 26.9387 42.0943C27.0486 42.0955 27.0486 42.0955 27.0546 42.0943C27.0999 42.08 27.1656 42.0752 27.2158 42.0657C27.1656 42.0227 27.0796 41.9701 27.0116 41.9629C25.6513 41.8555 25.1473 41.0995 24.9216 40.7722Z" fill="white"/>
<path d="M19.0122 16.0171C19.0696 15.9347 19.0612 15.5585 18.9597 15.5035C18.8952 15.4713 18.8952 15.4713 18.6623 15.5537C18.5584 15.5907 18.5453 15.5621 18.445 15.4056C18.5357 15.3196 18.5357 15.3196 18.8677 15.2444C18.8713 15.242 18.8713 15.242 18.8713 15.242C18.8832 15.2229 18.9059 15.2086 18.9238 15.1906C18.9083 15.0461 18.6599 14.9804 18.7567 14.8037C18.8498 14.6305 19.0504 14.8718 19.1663 14.7344C19.2236 14.6604 19.2236 14.6604 19.2511 14.074C19.2559 13.9104 19.3204 13.7611 19.3442 13.6022C19.3872 13.3252 19.2296 13.0708 19.2559 12.7949C19.2881 12.5238 19.5974 12.4044 19.6165 12.1249C19.6201 12.0712 19.6058 11.9924 19.5353 11.9147C19.3717 11.935 19.22 11.9446 18.9489 12.2563C18.9155 12.3482 18.9155 12.3482 18.7423 12.4915C18.7399 12.4892 18.728 12.4796 18.7125 12.4772C18.7602 12.2885 18.9358 12.1655 18.9597 11.9685C18.8976 11.8156 18.8343 11.677 18.654 11.9493C18.6468 11.9493 18.6336 11.941 18.6217 11.9374C18.6277 11.8001 18.6336 11.6126 18.1965 11.7523C18.138 11.7833 17.8418 11.947 17.7272 12.2563C17.6436 12.1285 17.6436 12.1285 17.6221 12.1225C17.5875 12.1799 17.5648 12.2479 17.5349 12.3685C17.4836 12.3231 17.2877 12.2861 17.2745 12.7603C17.265 12.7638 17.253 12.7722 17.2447 12.7782C17.2005 12.7113 17.2053 12.6253 17.1348 12.5811C17.0894 12.5955 17.0894 12.5955 16.8983 12.9239C16.884 12.9215 16.8757 12.9012 16.8733 12.8964C16.8601 12.9 16.8506 12.9048 16.841 12.9084C16.8315 12.9024 16.8207 12.8928 16.8076 12.8881C16.8255 12.7579 16.8255 12.7519 16.8207 12.7101C16.8147 12.7065 16.7992 12.703 16.7897 12.6934C16.601 12.8212 16.601 12.8212 16.3693 12.8833C16.2964 12.9657 16.183 12.9908 16.1125 13.078C16.0576 13.1425 15.8796 13.3777 15.8533 13.5318C15.6885 13.9653 15.6885 13.9653 15.5082 14.0513C15.1308 14.2328 15.0866 14.3558 15.0639 14.4084C15.04 14.4908 15.0508 14.535 15.0544 14.5648C15.0914 14.707 15.1117 14.8001 15.0794 14.9828C15.0556 15.1035 15.0293 15.2324 15.2514 15.1954C15.2574 15.1966 15.2574 15.1954 15.2574 15.1954C15.3995 15.1285 15.5369 15.0342 15.6861 14.9721C15.6861 14.9721 15.7972 15.0461 15.8641 15.2085C15.8939 15.6086 15.9166 15.7209 15.9166 15.7209C15.9501 15.8977 15.8211 16.0505 15.8498 16.2213C15.8689 16.3264 15.9979 16.2894 16.0456 16.3587C16.0397 16.3933 16.0325 16.4267 16.0217 16.4578C15.9059 16.5796 15.9704 16.6847 16.0886 16.8793C15.9752 17.0454 15.9513 17.1409 15.9823 17.2568C15.9035 17.3857 15.7136 17.676 15.8569 18.42C16.0803 18.6003 16.0373 18.8882 16.1292 19.1115C16.1328 19.1139 16.343 19.5665 16.5007 19.4029C16.546 19.3527 16.5651 19.336 16.6213 19.3766C16.8303 19.5032 16.9306 19.4674 16.9557 19.4566C17.1778 19.3324 17.1468 18.6182 17.1456 18.5442C17.1396 18.5048 17.3056 17.633 17.6221 17.4383C17.7666 17.3953 17.7666 17.3953 18.0544 16.8925C18.2097 16.6309 18.5274 16.5605 18.7268 16.3551C18.7829 16.2989 18.9764 16.0696 19.0122 16.0171Z" fill="white"/>
<path d="M36.3195 8.49023C36.3207 8.49142 36.323 8.49977 36.3218 8.50693C36.4054 8.61442 36.5691 8.72549 36.6216 8.75296C36.8187 8.8915 37.0539 8.96436 37.2582 9.09335C37.3645 9.16142 37.4576 9.25337 37.5723 9.32144C37.5723 9.32622 38.0273 9.59017 38.0774 9.60211C38.0786 9.59733 38.0846 9.59613 38.0894 9.59135C38.0822 9.56508 38.0691 9.53044 37.4648 9.07541C37.3585 8.99778 37.3585 8.99779 37.0074 8.77923C36.9118 8.71832 36.3672 8.4114 36.3195 8.49023Z" fill="#645BD0"/>
<path d="M26.6875 41.6531C26.6744 41.6567 26.6529 41.6603 26.6553 41.6675C26.6577 41.6806 26.7269 41.7248 26.7687 41.7403C26.8058 41.7451 26.9145 41.7606 26.9264 41.7367C26.924 41.7295 26.9085 41.7224 26.9133 41.7056C26.9563 41.7104 27.0195 41.7116 27.0398 41.7045C27.0876 41.6806 26.9992 41.6471 26.967 41.634C26.9288 41.6149 26.6911 41.6519 26.6875 41.6531Z" fill="#645BD0"/>
<path d="M41.7188 16.6866C41.7164 16.6902 41.7116 16.6926 41.7093 16.6961C41.6937 16.7332 41.6758 16.8598 41.7678 17.0305C41.849 17.1822 41.9027 17.1559 41.9433 17.144C41.9135 16.8084 41.9135 16.8084 41.8967 16.7738C41.8956 16.7714 41.7964 16.5994 41.7188 16.6866Z" fill="#645BD0"/>
<path d="M13.4967 13.8764C13.5015 13.8729 13.6627 13.6101 13.5851 13.5958C13.5731 13.5946 13.5051 13.6579 13.4441 13.7785C13.4286 13.8107 13.4119 13.8406 13.4286 13.911C13.4382 13.9302 13.4417 13.9648 13.4967 13.8764Z" fill="#645BD0"/>
<path d="M12.6141 19.5074C12.5783 19.5767 12.546 19.8179 12.7204 19.7606C12.7228 19.726 12.7347 19.6914 12.7371 19.6579C12.7693 19.4788 12.7419 19.4477 12.6917 19.4501C12.6714 19.4537 12.6392 19.4573 12.6141 19.5074Z" fill="#645BD0"/>
</svg>