<svg viewBox="0 0 32 21" xmlns="http://www.w3.org/2000/svg">
<path d="M32 20.75H0V2.2857H32V20.75Z" fill="#645BD0"/>
<path d="M15.533 18.8702C10.6494 17.007 6.051 16.994 1.15669 18.8247C1.17323 13.7692 1.19509 6.94549 1.21163 1.89109C6.10594 0.059782 10.7043 0.0745544 15.588 1.93835C15.5714 6.99334 15.549 13.8141 15.533 18.8702Z" fill="white"/>
<path d="M31.033 1.49233C28.5081 0.530008 26.0985 0.0580082 23.664 0.0491467C21.2278 0.0408764 18.814 0.496923 16.2821 1.44507L16.0293 1.54077L15.7758 1.44329C13.2516 0.480972 10.8413 0.00778961 8.40512 0.000110626C5.97007 -0.00815964 3.55689 0.449657 1.02614 1.39426L0.682918 1.52364L0.624435 19.5862L1.34161 19.3204C3.75125 18.4177 6.04333 17.9835 8.34782 17.9906C10.6529 17.9995 12.9414 18.4484 15.344 19.3653L15.8822 19.5714L15.881 19.6382L15.9714 19.6034L16.0582 19.6382V19.572L16.5999 19.3682C19.0078 18.4685 21.2999 18.0326 23.6055 18.0408C25.91 18.0461 28.1974 18.4998 30.6011 19.4149L31.3159 19.6872L31.3744 1.62229L31.033 1.49233Z" fill="#645BD0"/>
<path d="M15.5313 19.1343C10.6493 17.2729 6.04981 17.2581 1.1555 19.0888C1.17322 14.032 1.1939 7.21309 1.20985 2.15573C6.10534 0.32502 10.7031 0.340971 15.5862 2.20181C15.5696 7.25976 15.5484 14.0793 15.5313 19.1343Z" fill="white"/>
<path d="M16.412 19.1384C21.3075 17.3071 25.9059 17.3219 30.7878 19.1839C30.8049 14.1277 30.8274 7.30702 30.8439 2.25261C25.9608 0.38941 21.3613 0.37464 16.4688 2.20654C16.451 7.26094 16.4286 14.0823 16.412 19.1384Z" fill="white"/>
<path d="M14.234 4.90566C9.35209 3.38804 7.39731 3.38271 2.50478 4.86666C2.50478 3.7791 2.50714 5.15259 2.50714 4.00359C7.40086 2.52023 9.35444 2.52613 14.2369 4.04198C14.2369 5.15258 14.234 4.04199 14.234 4.90566Z" fill="#645BD0"/>
<path d="M17.7625 4.91568C22.6556 3.43114 24.6092 3.43704 29.4917 4.95585C29.4917 3.87065 29.4941 5.24413 29.4941 4.09041C24.6116 2.57634 22.6574 2.56865 17.7649 4.0526C17.7649 5.061 17.7625 3.59596 17.7625 4.91568Z" fill="#645BD0"/>
<path d="M14.234 7.74475C9.35209 6.22654 7.39731 6.22123 2.50478 7.70577C2.50478 6.61821 2.50714 7.9917 2.50714 6.8427C7.40086 5.35875 9.35444 5.36524 14.2369 6.88109C14.2369 7.99169 14.234 6.88108 14.234 7.74475Z" fill="#645BD0"/>
<path d="M17.7625 7.75482C22.6556 6.27028 24.6092 6.27618 29.4917 7.79498C29.4917 6.70979 29.4941 8.08327 29.4941 6.92955C24.6116 5.41547 22.6574 5.40719 17.7649 6.89232C17.7649 7.90013 17.7625 6.43509 17.7625 7.75482Z" fill="#645BD0"/>
<path d="M14.234 10.5833C9.35209 9.06566 7.39731 9.06035 2.50478 10.5443C2.50478 9.45674 2.50714 10.8308 2.50714 9.68121C7.40086 8.19785 9.35444 8.20436 14.2369 9.72021C14.2369 10.8308 14.234 9.7202 14.234 10.5833Z" fill="#645BD0"/>
<path d="M17.7625 10.5939C22.6556 9.10939 24.6092 9.1147 29.4917 10.6341C29.4917 9.5483 29.4941 10.9224 29.4941 9.76864C24.6116 8.25457 22.6574 8.2463 17.7649 9.73084C17.7649 10.7392 17.7625 9.27361 17.7625 10.5939Z" fill="#645BD0"/>
<path d="M14.234 13.4224C9.35209 11.9042 7.39731 11.8995 2.50478 13.3834C2.50478 12.2958 2.50714 13.6693 2.50714 12.5203C7.40086 11.037 9.35444 11.0429 14.2369 12.5587C14.2369 13.6693 14.234 12.5587 14.234 13.4224Z" fill="#645BD0"/>
<path d="M17.7625 13.4318C22.6556 11.9479 24.6092 11.9538 29.4917 13.4726C29.4917 12.3874 29.4941 13.7615 29.4941 12.6072C24.6116 11.0931 22.6574 11.0854 17.7649 12.5699C17.7649 13.5783 17.7625 12.1127 17.7625 13.4318Z" fill="#645BD0"/>
<path d="M14.234 16.2609C9.35209 14.7433 7.39731 14.7386 2.50478 16.2219C2.50478 15.1349 2.50714 16.5084 2.50714 15.3594C7.40086 13.8755 9.35444 13.882 14.2369 15.3978C14.2369 16.5084 14.234 15.3978 14.234 16.2609Z" fill="#645BD0"/>
<path d="M17.7625 16.271C22.6556 14.787 24.6092 14.7929 29.4917 16.3117C29.4917 15.2265 29.4941 16.5994 29.4941 15.4463C24.6116 13.9322 22.6574 13.9239 17.7649 15.4085C17.7649 16.4169 17.7625 14.9518 17.7625 16.271Z" fill="#645BD0"/>
</svg>
