<svg width="60" height="65" viewBox="0 0 60 65" fill="none" xmlns="http://www.w3.org/2000/svg">
<path d="M32.5477 15.1117C31.651 15.0861 30.9514 14.8903 29.9358 15.0321C28.9027 14.8957 28.2127 15.0983 27.3214 15.132C18.2395 16.2043 12.3865 25.7575 15.4075 34.3411C16.2016 36.595 17.3994 38.6477 18.5163 40.7288C19.9302 43.3973 20.9431 46.1536 21.5427 49.1638C21.8195 50.6034 21.7763 51.4569 22.2179 52.7952L29.9358 42.7427L37.905 52.7425C38.3398 51.4002 38.2885 50.5413 38.5654 49.1017C39.1353 46.0901 40.1305 43.3271 41.5337 40.6518C42.6208 38.5613 43.8078 36.4991 44.5844 34.2384C47.5486 25.6346 41.6336 16.1232 32.5477 15.1117Z" fill="#645BD0"/>
<path d="M26.5478 62.8056C26.397 63.1865 27.081 63.8258 27.5136 64.1435C28.2887 64.7336 29.1126 64.7472 29.9371 64.8148C29.9654 64.8159 30.0046 64.8173 30.041 64.8187C30.0653 64.8196 30.1045 64.8198 30.1436 64.8212C30.9644 64.8076 31.9018 64.8579 32.7072 64.3207C33.2875 63.948 33.7808 63.053 33.7808 63.053L26.5478 62.8056Z" fill="#9D96F0"/>
<path fill-rule="evenodd" clip-rule="evenodd" d="M37.6764 56.7573C37.6493 57.3144 37.4274 57.7435 37.0769 57.7248L23.0423 57.8567C22.6878 57.8433 22.4155 57.3717 22.4424 56.8187C22.4712 56.2779 22.7853 55.8442 23.1422 55.8619L37.1753 55.7339C37.526 55.7499 37.7058 56.2058 37.6764 56.7573Z" fill="#9D96F0"/>
<path d="M26.7321 63.3245C27.1502 63.3484 27.4051 63.3242 27.5779 63.4023L32.3748 63.4915C32.5172 63.4793 32.6877 63.4722 32.9214 63.4757C34.304 63.4724 35.2627 63.137 36.2335 62.2276C36.8627 61.6338 37.3065 60.7978 37.6114 59.5943L22.5243 59.6222C22.7578 60.6337 23.1031 61.259 23.6004 61.7967C24.5164 62.7705 25.3536 63.2184 26.7321 63.3245Z" fill="#9D96F0"/>
<path d="M11.4074 33.1081C11.4074 33.1081 11.2643 33.3579 11.009 33.7333C10.8821 33.9211 10.7227 34.1439 10.5377 34.3721C10.4432 34.4896 10.3473 34.6125 10.2473 34.7408C10.1947 34.807 10.1326 34.811 10.0596 34.7921C9.99346 34.7799 9.93135 34.8002 9.86382 34.807C8.78885 34.9879 7.36815 35.2391 5.93936 35.4808C4.51866 35.7226 3.09392 35.9629 2.02705 36.1439C1.95413 36.1628 1.88661 36.1561 1.82854 36.1912C1.76777 36.2425 1.70697 36.2425 1.6354 36.1885C1.49495 36.1007 1.35991 36.0156 1.23431 35.9386C0.984477 35.7806 0.767072 35.6199 0.580708 35.493C0.221483 35.2283 0 35.0446 0 35.0446C0 35.0446 0.148549 34.8016 0.402437 34.4329C0.529381 34.2479 0.688735 34.0223 0.873749 33.8022C0.96423 33.6807 1.05875 33.5591 1.16409 33.4322C1.2127 33.3552 1.27349 33.3417 1.34506 33.3647C1.41258 33.3674 1.48011 33.3471 1.54898 33.339C2.61315 33.154 4.03655 32.9149 5.46669 32.6705C6.89008 32.4274 8.31483 32.1884 9.3844 32.0047C9.44517 31.9872 9.51809 31.9872 9.58427 31.9561C9.63558 31.9183 9.70039 31.8954 9.76926 31.9426C9.90836 32.0304 10.0448 32.1155 10.169 32.1898C10.4216 32.3464 10.639 32.5085 10.8186 32.6449C11.19 32.9095 11.4074 33.1081 11.4074 33.1081Z" fill="#9D96F0"/>
<path d="M11.6357 24.9418C11.6357 24.9418 11.3966 25.1052 10.9996 25.3388C10.8038 25.4442 10.5607 25.5833 10.2933 25.6927C10.1664 25.7602 10.0245 25.8304 9.87464 25.9047C9.80307 25.9385 9.73826 25.9142 9.68559 25.8723C9.63157 25.8277 9.56403 25.8169 9.49921 25.7967C8.4607 25.4942 7.07245 25.0796 5.68147 24.6758C4.29049 24.2693 2.90761 23.8587 1.8664 23.5549C1.80563 23.5414 1.74348 23.5117 1.67326 23.513C1.59898 23.5211 1.54226 23.4995 1.50039 23.4212C1.41261 23.2821 1.3316 23.1524 1.24922 23.0174C1.10337 22.7743 0.968314 22.5312 0.864328 22.3341C0.649603 21.9397 0.532118 21.6831 0.532118 21.6831C0.532118 21.6831 0.76844 21.5292 1.16413 21.3037C1.35995 21.1997 1.60437 21.066 1.86772 20.9417C1.99736 20.881 2.14188 20.8121 2.29043 20.7419C2.36335 20.696 2.43087 20.7081 2.48489 20.7567C2.53621 20.7959 2.60374 20.8013 2.66721 20.8256C3.70843 21.1281 5.09806 21.5386 6.48229 21.9438C7.87462 22.357 9.2602 22.7622 10.3041 23.0674C10.3703 23.0795 10.4243 23.1133 10.4972 23.1106C10.5688 23.1011 10.6282 23.1106 10.6714 23.1849C10.7606 23.3253 10.8443 23.4603 10.9226 23.5832C11.0806 23.8263 11.2076 24.0694 11.3143 24.2747C11.529 24.6785 11.6357 24.9418 11.6357 24.9418Z" fill="#9D96F0"/>
<path d="M15.1036 17.7978C15.1036 17.7978 14.8106 17.8276 14.3609 17.8384C14.134 17.8438 13.8599 17.8532 13.5722 17.8343C13.4237 17.8208 13.2657 17.814 13.0996 17.8086C13.0145 17.8073 12.978 17.7627 12.9469 17.6911C12.924 17.6263 12.8619 17.5898 12.82 17.5412C12.0475 16.7796 11.0144 15.7613 9.98266 14.7471C8.95631 13.7356 7.9205 12.7174 7.15074 11.9598C7.10077 11.9098 7.06027 11.8571 6.99815 11.8288C6.92657 11.8085 6.89416 11.7585 6.89416 11.6667C6.88201 11.506 6.87523 11.3453 6.86848 11.1981C6.83877 10.9077 6.84147 10.6336 6.84147 10.4108C6.84147 9.95703 6.86848 9.67746 6.86848 9.67746C6.86848 9.67746 7.13994 9.64909 7.59234 9.63829C7.81382 9.63829 8.09338 9.6356 8.38103 9.65316C8.53363 9.65856 8.68758 9.668 8.85369 9.67475C8.94957 9.6707 8.99278 9.70987 9.01304 9.78145C9.05085 9.84222 9.10217 9.88139 9.15079 9.93001C9.91785 10.6903 10.951 11.7032 11.9841 12.7201C13.0118 13.7329 14.0449 14.7458 14.8146 15.5102C14.866 15.5561 14.9038 15.6101 14.974 15.6411C15.0361 15.6614 15.0888 15.7019 15.0888 15.7924C15.0955 15.9531 15.109 16.1124 15.1171 16.261C15.1428 16.5486 15.1428 16.8228 15.1374 17.0524C15.132 17.5034 15.1036 17.7978 15.1036 17.7978Z" fill="#9D96F0"/>
<path d="M21.6143 13.325C21.6143 13.325 21.328 13.2481 20.9012 13.086C20.6933 13.0036 20.438 12.9077 20.1801 12.7794C20.0383 12.7187 19.9046 12.6539 19.7452 12.5863C19.6655 12.5512 19.648 12.4891 19.6507 12.4162C19.6507 12.35 19.6129 12.2933 19.5886 12.2244C19.1591 11.2318 18.5865 9.90432 18.0099 8.57951C17.4373 7.2493 16.862 5.91908 16.4366 4.92514C16.4082 4.86167 16.392 4.79818 16.3475 4.74281C16.2894 4.70365 16.2705 4.64154 16.3042 4.55646C16.3596 4.40386 16.4109 4.25125 16.4568 4.1081C16.5419 3.8326 16.6526 3.58143 16.7283 3.3748C16.9025 2.95211 17.0294 2.70092 17.0294 2.70092C17.0294 2.70092 17.2968 2.78331 17.7168 2.94536C17.9261 3.02909 18.1854 3.12363 18.4461 3.25192C18.5784 3.3181 18.7256 3.38021 18.8755 3.44909C18.9674 3.48285 18.9917 3.53956 18.9836 3.61114C18.9917 3.67866 19.0254 3.73266 19.047 3.79748C19.4819 4.79413 20.0504 6.12165 20.6203 7.45321C21.197 8.77937 21.7763 10.1028 22.199 11.1049C22.2341 11.163 22.2463 11.2291 22.2935 11.2764C22.3462 11.3223 22.38 11.375 22.3489 11.4601C22.2936 11.6154 22.2463 11.7666 22.199 11.9084C22.1153 12.1852 22.0073 12.4405 21.9168 12.6512C21.7439 13.0671 21.6143 13.325 21.6143 13.325Z" fill="#9D96F0"/>
<path d="M30.3909 11.5533C30.3909 11.5533 30.1654 11.3844 29.8183 11.0779C29.6536 10.9239 29.4496 10.7416 29.2511 10.5269C29.1539 10.4229 29.0445 10.3041 28.9284 10.1879C28.8662 10.1298 28.877 10.0623 28.8973 9.99751C28.9176 9.93404 28.9054 9.86922 28.9068 9.799C28.8717 8.71457 28.8203 7.26685 28.7636 5.82995C28.7244 4.3836 28.6623 2.9305 28.6272 1.85148C28.6218 1.78531 28.6353 1.71509 28.6069 1.65161C28.5732 1.58679 28.5678 1.52063 28.638 1.46256C28.7461 1.33562 28.846 1.21 28.9378 1.09656C29.1215 0.869678 29.3146 0.673883 29.4658 0.511827C29.7764 0.182313 29.9871 -5.72205e-06 29.9871 -5.72205e-06C29.9871 -5.72205e-06 30.2086 0.168803 30.5422 0.472658C30.7042 0.626612 30.9041 0.812988 31.108 1.02501C31.2093 1.13305 31.3187 1.24109 31.4321 1.36263C31.5051 1.42205 31.5077 1.48415 31.478 1.54763C31.4591 1.6138 31.4726 1.68267 31.4672 1.7529C31.5091 2.83057 31.5631 4.27961 31.6144 5.72461C31.663 7.16961 31.7117 8.60923 31.7522 9.69501C31.7576 9.76658 31.7468 9.83275 31.7765 9.89352C31.8062 9.957 31.8224 10.0232 31.7603 10.088C31.6522 10.2109 31.5537 10.3311 31.4605 10.4499C31.2782 10.6768 31.0878 10.8726 30.9298 11.0374C30.6151 11.3655 30.3909 11.5533 30.3909 11.5533Z" fill="#9D96F0"/>
<path d="M48.5804 32.9757C48.5804 32.9757 48.7911 32.7759 49.1611 32.5085C49.3421 32.3761 49.5622 32.21 49.8093 32.052C49.9349 31.9764 50.066 31.89 50.2132 31.8035C50.2766 31.759 50.3401 31.7711 50.3955 31.8116C50.4603 31.8441 50.5292 31.844 50.5967 31.8602C51.6608 32.0358 53.091 32.2627 54.5211 32.499C55.9459 32.7326 57.372 32.9609 58.4416 33.1418C58.5118 33.1472 58.5739 33.1702 58.6414 33.1662C58.7089 33.1392 58.7765 33.1513 58.8278 33.2283C58.9277 33.3579 59.0263 33.4808 59.1208 33.5943C59.2991 33.8211 59.4625 34.044 59.5922 34.2236C59.8514 34.5895 60 34.8367 60 34.8367C60 34.8367 59.7839 35.0204 59.422 35.2864C59.2329 35.416 59.0155 35.5781 58.7684 35.7334C58.6455 35.8144 58.5145 35.8982 58.3727 35.99C58.3011 36.0427 58.239 36.04 58.1836 35.9954C58.1147 35.9589 58.0513 35.967 57.9878 35.9481C56.9061 35.778 55.4867 35.543 54.0579 35.308C52.6318 35.0784 51.2084 34.8448 50.1335 34.6679C50.0633 34.6584 50.0011 34.6395 49.9404 34.6503C49.8701 34.6733 49.8094 34.6679 49.754 34.6017C49.6459 34.4734 49.5487 34.3532 49.4569 34.2344C49.2705 34.0102 49.1098 33.7847 48.9829 33.5997C48.7222 33.2256 48.5804 32.9757 48.5804 32.9757Z" fill="#9D96F0"/>
<path d="M48.29 24.8135C48.29 24.8135 48.4008 24.5461 48.6087 24.1423C48.7154 23.937 48.8396 23.6939 49.0003 23.4495C49.0773 23.3226 49.1557 23.1875 49.2461 23.0484C49.2853 22.9741 49.3515 22.9633 49.415 22.9741C49.4879 22.9768 49.5486 22.9431 49.6135 22.9282C50.6533 22.619 52.0389 22.2017 53.4245 21.7803C54.8114 21.3657 56.1903 20.9458 57.2355 20.6338C57.2909 20.6108 57.3638 20.6054 57.4151 20.5649C57.4705 20.515 57.5313 20.4974 57.6096 20.546C57.7581 20.6162 57.8973 20.6851 58.0337 20.7459C58.301 20.8674 58.5455 20.9984 58.7386 21.1024C59.1356 21.3252 59.376 21.4765 59.376 21.4765C59.376 21.4765 59.2558 21.7344 59.0479 22.1328C58.9425 22.3286 58.8142 22.5717 58.6603 22.8188C58.5833 22.9498 58.5036 23.0835 58.4172 23.2199C58.378 23.2996 58.3159 23.3226 58.2443 23.3172C58.1836 23.3131 58.1147 23.3442 58.0458 23.359C57.0127 23.671 55.6271 24.0896 54.2415 24.5083C52.8613 24.9202 51.4704 25.3442 50.4346 25.6535C50.3711 25.6737 50.3063 25.6859 50.2482 25.7291C50.1969 25.7737 50.1361 25.798 50.0632 25.7656C49.9092 25.6913 49.7647 25.6211 49.6297 25.5576C49.3663 25.4496 49.13 25.3091 48.9288 25.2024C48.5277 24.9755 48.29 24.8135 48.29 24.8135Z" fill="#9D96F0"/>
<path d="M44.7707 17.6911C44.7707 17.6911 44.7464 17.3967 44.7397 16.9497C44.7343 16.7201 44.7261 16.4487 44.7505 16.1583C44.7532 16.0057 44.768 15.8518 44.7802 15.687C44.7802 15.5979 44.8288 15.5574 44.899 15.5385C44.9584 15.5047 44.999 15.4507 45.0449 15.4061C45.8133 14.6364 46.8383 13.6168 47.8592 12.5945C48.8802 11.5681 49.9093 10.5485 50.6763 9.78683C50.7249 9.73551 50.7776 9.69232 50.81 9.6356C50.8289 9.56402 50.8775 9.52215 50.9667 9.52755C51.1328 9.51675 51.2894 9.50862 51.4366 9.50322C51.7283 9.48026 52.0065 9.48027 52.2267 9.48298C52.6804 9.49108 52.96 9.51674 52.96 9.51674C52.96 9.51674 52.9843 9.79492 52.987 10.25C52.987 10.4729 52.9937 10.7457 52.9654 11.0333C52.9627 11.1832 52.9519 11.3453 52.9478 11.506C52.9478 11.5965 52.9032 11.6464 52.8384 11.668C52.7763 11.695 52.7344 11.7517 52.6858 11.8004C51.9187 12.5647 50.8978 13.5897 49.8701 14.6066C48.8424 15.633 47.8268 16.654 47.0584 17.4224C47.0111 17.4696 46.9558 17.5075 46.9301 17.5696C46.9045 17.6412 46.868 17.6884 46.7748 17.6938C46.6154 17.6952 46.4588 17.7046 46.3103 17.7181C46.0199 17.7397 45.7431 17.7343 45.5162 17.7303C45.0638 17.7235 44.7707 17.6911 44.7707 17.6911Z" fill="#9D96F0"/>
<path d="M38.2385 13.2657C38.2385 13.2657 38.1049 13.0104 37.9225 12.5945C37.8307 12.3838 37.7267 12.1286 37.6416 11.8531C37.5903 11.7113 37.5376 11.5614 37.4863 11.4101C37.4566 11.3251 37.4863 11.2724 37.5376 11.2224C37.5903 11.1765 37.5998 11.1063 37.6322 11.0509C38.0508 10.0448 38.6153 8.71729 39.1839 7.38843C39.7457 6.05147 40.3115 4.72263 40.7288 3.72328C40.7504 3.65846 40.7923 3.59902 40.795 3.53555C40.7896 3.46262 40.8152 3.4032 40.9044 3.37079C41.0556 3.30327 41.1947 3.23845 41.3298 3.17498C41.5918 3.04264 41.847 2.9454 42.0604 2.86437C42.4736 2.69556 42.741 2.61455 42.741 2.61455C42.741 2.61455 42.8761 2.86168 43.0489 3.28303C43.1299 3.48965 43.2326 3.73812 43.3231 4.01227C43.3771 4.15677 43.4311 4.30668 43.4797 4.46333C43.5121 4.54571 43.4946 4.60917 43.4432 4.65103C43.396 4.7037 43.3798 4.76854 43.3501 4.83066C42.9314 5.8273 42.3683 7.16155 41.8065 8.49446C41.2352 9.82602 40.6775 11.1589 40.2507 12.1529C40.2251 12.2218 40.19 12.2758 40.1967 12.3446C40.1927 12.4149 40.1792 12.4783 40.0954 12.5121C39.9415 12.581 39.8051 12.6471 39.6646 12.712C39.4067 12.8443 39.1555 12.9402 38.9435 13.0226C38.514 13.186 38.2385 13.2657 38.2385 13.2657Z" fill="#9D96F0"/>
</svg>
