<svg viewBox="0 0 24 33" xmlns="http://www.w3.org/2000/svg">
<rect x="5.13232" y="5.99237" width="14.3643" height="11.802" fill="white"/>
<path d="M6.3746 25.6831C6.3746 19.1143 6.38237 18.8814 6.51436 18.8814C6.59977 18.8814 6.80941 18.9901 6.98023 19.1143C7.24422 19.3007 7.39951 19.5336 7.80327 20.3489C8.33125 21.3971 8.54089 21.6378 8.99123 21.7232C9.33287 21.7853 9.50369 21.7077 10.4199 21.0477C11.2818 20.4343 11.6001 20.279 12.0427 20.279C12.4852 20.279 12.8036 20.4343 13.6654 21.0477C14.5817 21.7077 14.7525 21.7853 15.0941 21.7232C15.5445 21.6378 15.7541 21.3971 16.2821 20.3489C16.6858 19.5336 16.8411 19.3007 17.1051 19.1143C17.2759 18.9901 17.4856 18.8814 17.571 18.8814C17.703 18.8814 17.7107 19.1143 17.7107 25.6753C17.7107 32.4382 17.7107 32.477 17.5554 32.3916C17.47 32.345 16.9576 31.9878 16.4218 31.5919C15.8861 31.1959 15.3659 30.8232 15.2805 30.7611C15.1873 30.6989 14.4186 30.1477 13.5723 29.5343L12.0349 28.424L11.7864 28.6025C11.6467 28.6957 10.4199 29.5809 9.05335 30.5669C7.6868 31.553 6.52213 32.3838 6.47554 32.4227C6.3979 32.4692 6.3746 31.0949 6.3746 25.6831Z" fill="#EA3535"/>
<path d="M8.68845 22.8956C8.18376 21.9251 7.79554 21.4592 7.22873 21.1719C6.56875 20.8381 6.19605 20.7992 5.15561 20.939C4.65092 21.0089 4.18505 21.0788 4.12294 21.0943C4.022 21.1253 4.00647 20.9701 4.00647 19.984C4.00647 18.7261 3.94435 18.4544 3.48625 17.8177C3.13685 17.3363 2.57004 16.9869 1.59948 16.6608C1.13361 16.4977 0.729861 16.3657 0.722096 16.3502C0.706567 16.3424 0.830799 16.094 1.00162 15.7989C1.75477 14.51 1.92559 13.9277 1.79359 13.19C1.66936 12.5534 1.38208 12.0642 0.659981 11.2955L0 10.5734L0.760919 10.0843C2.00324 9.27675 2.4691 8.6323 2.55451 7.64621C2.58557 7.25022 2.53898 6.96293 2.33711 6.18649C2.19735 5.65074 2.09641 5.2004 2.11194 5.17711C2.13523 5.16158 2.53122 5.10722 2.99709 5.06064C4.06859 4.95194 4.37917 4.87429 4.83727 4.57924C5.60595 4.09784 5.87771 3.63197 6.18052 2.30425C6.29699 1.79179 6.40569 1.35698 6.42122 1.34145C6.42899 1.32592 6.85603 1.48121 7.35296 1.68309C8.43222 2.12567 8.9835 2.19555 9.67454 1.99367C10.2957 1.81509 10.6529 1.54333 11.4138 0.65818C11.9495 0.0447858 12.0815 -0.0639169 12.1514 0.0292568C12.5707 0.596064 13.3782 1.45792 13.6655 1.65203C14.5506 2.23437 15.3426 2.24213 16.7247 1.68309C17.2294 1.48121 17.6487 1.32592 17.6642 1.34145C17.6797 1.35698 17.7884 1.79179 17.9049 2.30425C18.2077 3.63974 18.4639 4.07455 19.2248 4.56371C19.7218 4.87429 20.0091 4.95194 21.0883 5.06064C21.5542 5.10722 21.9502 5.16158 21.9657 5.17711C21.9812 5.19263 21.8803 5.61192 21.7483 6.12437C21.2281 8.03443 21.593 8.95064 23.2779 10.0454C23.6739 10.3017 24 10.5424 24 10.5734C24 10.6122 23.7127 10.9539 23.3555 11.3343C22.649 12.103 22.3928 12.5378 22.2918 13.1512C22.1831 13.8423 22.3229 14.3935 22.8353 15.3486C23.0916 15.8144 23.3012 16.2337 23.3012 16.2803C23.3012 16.3269 22.9984 16.4667 22.6257 16.5909C21.2514 17.0568 20.6846 17.4683 20.2653 18.3224C20.1022 18.6485 20.0789 18.8115 20.0634 19.852C20.0556 20.4964 20.0479 21.0399 20.0401 21.0632C20.0401 21.0865 19.582 21.0399 19.0152 20.9623C17.8428 20.7992 17.4002 20.8458 16.7713 21.1875C16.22 21.4825 15.9094 21.863 15.4125 22.8568C15.1718 23.3382 14.9621 23.7497 14.9466 23.7653C14.9311 23.7808 14.6127 23.5712 14.2401 23.3072C13.0443 22.4531 12.361 22.2124 11.5691 22.3832C11.0178 22.4997 10.6684 22.6782 9.85312 23.2761C9.48043 23.5479 9.16208 23.773 9.15432 23.773C9.13879 23.773 8.92915 23.377 8.68845 22.8956ZM11.2507 15.993C11.3905 15.8921 12.8502 14.3159 14.4963 12.4757C16.1501 10.6433 17.5865 9.04382 17.6952 8.92735C17.9515 8.64783 18.0214 8.02667 17.835 7.73938C17.5089 7.25022 16.8489 7.09493 16.3986 7.41327C16.2588 7.50645 14.9233 8.95064 13.4248 10.6122C11.934 12.2816 10.6762 13.6482 10.6373 13.6637C10.583 13.687 8.8748 12.204 8.17599 11.5284C7.50825 10.8918 6.45228 11.2877 6.45228 12.1729C6.45228 12.367 6.50663 12.6232 6.57651 12.7319C6.70851 12.9493 9.99288 15.8998 10.2802 16.0629C10.5519 16.2182 10.9867 16.1794 11.2507 15.993Z" fill="#CCB90A"/>
</svg>
