<svg viewBox="0 0 60 60" xmlns="http://www.w3.org/2000/svg">
<path d="M46.433 29.9981C48.0323 27.7437 49.3766 25.5031 50.4458 23.3282C54.8461 25.1446 57.6143 27.4975 57.6143 29.9981C57.6143 32.38 55.0001 34.8036 50.4622 36.7021C49.3918 34.5183 48.0373 32.2639 46.433 29.9981ZM18.3838 41.6149C18.8496 44.3565 19.4846 46.9139 20.276 49.2188C17.942 50.1845 15.8012 50.7083 14.005 50.7083C12.4511 50.7083 11.2633 50.3082 10.4744 49.523C8.79052 47.8379 8.9218 44.277 10.7938 39.7252C13.0949 40.5116 15.646 41.1478 18.3838 41.6149ZM13.5695 29.9981C11.9639 32.2639 10.6107 34.5145 9.5378 36.7021C4.9999 34.8061 2.38823 32.3825 2.38823 29.9981C2.3857 27.6136 4.99738 25.1901 9.54033 23.2929C10.6107 25.4754 11.9639 27.731 13.5695 29.9981ZM41.6174 18.375C41.1503 15.6371 40.5129 13.0823 39.724 10.7761C42.0605 9.81043 44.2013 9.28532 46 9.28532C47.5526 9.28532 48.7379 9.68548 49.5256 10.4706C51.212 12.1595 51.0794 15.7192 49.2087 20.2735C46.9455 19.4883 44.3919 18.8484 41.6174 18.375ZM35.1343 42.3786C36.495 42.2851 37.823 42.1539 39.1219 41.986C38.7129 44.2152 38.1865 46.3106 37.5503 48.2166C35.7692 47.3254 33.9187 46.2247 32.0291 44.9271C33.0692 44.1281 34.1043 43.2786 35.1343 42.3786ZM24.8682 42.3786C25.8982 43.2786 26.9358 44.1281 27.9734 44.9271C26.085 46.2247 24.2307 47.3254 22.4547 48.2166C21.8172 46.3106 21.2921 44.2152 20.8806 41.986C22.1795 42.1551 23.5087 42.2851 24.8682 42.3786ZM24.872 17.6138C23.5087 17.7073 22.1795 17.8411 20.8806 18.0102C21.2921 15.7772 21.8172 13.6844 22.4547 11.7796C24.2307 12.6695 26.085 13.7702 27.9734 15.0666C26.9358 15.8656 25.8995 16.7201 24.872 17.6138ZM35.1343 17.6164C34.1068 16.7227 33.0692 15.8669 32.0291 15.0666C33.9187 13.7702 35.7692 12.6695 37.5503 11.7796C38.1865 13.6844 38.7129 15.7747 39.1219 17.9988C37.8356 17.8335 36.4988 17.7123 35.1343 17.6164ZM44.9309 27.9721C44.1255 26.932 43.276 25.8944 42.3823 24.8682C42.2915 23.5239 42.1614 22.2048 41.9935 20.9147C44.2417 21.3389 46.3244 21.8703 48.1989 22.4951C47.3065 24.2812 46.2033 26.1204 44.9309 27.9721ZM42.3823 35.1293C43.276 34.1018 44.1255 33.0642 44.9309 32.0253C46.2121 33.8948 47.3229 35.7453 48.2191 37.5453C46.3143 38.1827 44.2177 38.7091 41.991 39.1206C42.1564 37.8192 42.2864 36.4862 42.3823 35.1293ZM15.0729 32.0253C15.8744 33.0642 16.7239 34.0993 17.6202 35.1255C17.711 36.4862 17.8461 37.8192 18.0089 39.1206C15.781 38.7091 13.6882 38.1827 11.7821 37.5453C12.6758 35.7427 13.7879 33.8935 15.0729 32.0253ZM17.6202 24.8707C16.7239 25.8944 15.8744 26.9307 15.0729 27.9709C13.7879 26.1014 12.6809 24.2484 11.7821 22.4496C13.6882 21.8109 15.781 21.2871 18.0102 20.8756C17.8461 22.1783 17.711 23.5087 17.6202 24.8707ZM42.5439 31.2099C42.5515 30.8034 42.5704 30.402 42.5704 29.9968C42.5704 29.5904 42.5515 29.1927 42.5439 28.7876C42.8658 29.1927 43.1637 29.5954 43.4679 29.9981C43.1637 30.402 42.8658 30.806 42.5439 31.2099ZM38.0237 39.7252C38.3127 39.4437 38.6056 39.1698 38.8896 38.8858C39.1736 38.5993 39.4463 38.3052 39.7252 38.0136C39.6697 38.5261 39.5952 39.0221 39.5245 39.5207C39.0259 39.5902 38.5324 39.6659 38.0237 39.7252ZM28.804 42.5427C29.2054 42.5477 29.5967 42.5654 30.0006 42.5654C30.4058 42.5654 30.7959 42.5477 31.1998 42.5427C30.7959 42.8582 30.4008 43.1611 30.0006 43.4616C29.6017 43.1611 29.2054 42.8582 28.804 42.5427ZM20.2722 38.0136C20.555 38.3052 20.8251 38.5993 21.1116 38.8858C21.3969 39.1698 21.6898 39.4437 21.9788 39.7252C21.4714 39.6659 20.9741 39.5902 20.478 39.5207C20.4073 39.0221 20.3328 38.5235 20.2722 38.0136ZM17.4561 28.7876C17.446 29.1927 17.4308 29.5904 17.4308 29.9981C17.4308 30.402 17.446 30.8034 17.4561 31.2036C17.1342 30.8034 16.8388 30.3995 16.5359 29.9968C16.8388 29.5929 17.1342 29.1927 17.4561 28.7876ZM21.9763 20.2735C21.6898 20.5499 21.3969 20.8251 21.1116 21.1091C20.8251 21.3969 20.555 21.691 20.2722 21.9813C20.3328 21.4714 20.4073 20.9753 20.478 20.4742C20.9741 20.4035 21.4714 20.3328 21.9763 20.2735ZM31.1998 17.4536C30.7933 17.446 30.4058 17.427 30.0006 17.427C29.5967 17.427 29.2054 17.4435 28.804 17.4498C29.2054 17.1355 29.6017 16.8325 30.0006 16.5321C30.4008 16.8325 30.7933 17.138 31.1998 17.4536ZM39.7252 21.9813C39.4463 21.691 39.1736 21.3944 38.8896 21.1091C38.6144 20.8314 38.3317 20.5663 38.054 20.2975C38.5526 20.3593 39.0398 20.4351 39.5283 20.507C39.5952 20.9955 39.6697 21.4802 39.7252 21.9813ZM30.0006 40.1796H29.9981C28.5818 40.1796 27.1946 40.1241 25.825 40.0484C24.8051 39.1408 23.794 38.189 22.8018 37.1994C21.8046 36.1997 20.863 35.1835 19.9516 34.1598C19.8734 32.7928 19.8191 31.4081 19.8191 29.9981C19.8191 28.5881 19.8734 27.2034 19.9516 25.8351C20.863 24.8101 21.8021 23.7952 22.798 22.7955C23.7927 21.8046 24.8013 20.8566 25.8187 19.9491C27.1946 19.8721 28.5856 19.8178 30.0006 19.8178C31.4182 19.8178 32.8155 19.8759 34.1889 19.9617C35.205 20.8617 36.211 21.8109 37.1981 22.7955C38.1979 23.7952 39.1383 24.8101 40.0522 25.8351C40.1267 27.2034 40.1784 28.5869 40.1784 29.9968C40.1784 31.4081 40.1266 32.7928 40.0459 34.1598C39.1383 35.1848 38.1979 36.1997 37.1981 37.1994C36.2073 38.189 35.2 39.1408 34.1788 40.0484C32.8079 40.1241 31.4182 40.1796 30.0006 40.1796ZM30.0006 2.38444C32.3825 2.38444 34.8061 4.99485 36.7046 9.53402C34.5398 10.5969 32.2841 11.9538 30.0006 13.572C27.7159 11.9525 25.4602 10.5943 23.2992 9.53149C25.1964 4.99485 27.62 2.38444 30.0006 2.38444ZM14.005 9.28532C15.8012 9.28532 17.942 9.81043 20.276 10.7761C19.4846 13.0823 18.8496 15.6384 18.3838 18.3775C15.646 18.8433 13.0949 19.4833 10.7938 20.2697C8.9218 15.7179 8.79052 12.1583 10.4744 10.4706C11.2633 9.68548 12.4511 9.28532 14.005 9.28532ZM30.0006 57.6105C27.62 57.6105 25.1964 54.9988 23.2992 50.4622C25.4615 49.4006 27.7159 48.0437 30.0006 46.4229C32.2841 48.0412 34.5398 49.3981 36.7046 50.4609C34.8061 54.9988 32.3825 57.6105 30.0006 57.6105ZM46 50.7083C44.2013 50.7083 42.0605 50.1845 39.724 49.2188C40.5129 46.9139 41.1503 44.3565 41.6174 41.6149C44.3528 41.1478 46.9076 40.5116 49.2062 39.7252C51.0769 44.2795 51.2094 47.8379 49.5256 49.523C48.7366 50.3082 47.5501 50.7083 46 50.7083ZM60 29.9981C60 26.5028 56.7534 23.385 51.4354 21.1243C53.6974 15.5841 53.6406 11.209 51.212 8.78672C49.9623 7.53706 48.2103 6.89836 46 6.89836C43.9185 6.89836 41.4912 7.48028 38.8732 8.55069C36.5569 3.04462 33.4264 3.8147e-06 30.0006 3.8147e-06C26.5748 3.8147e-06 23.4431 3.04462 21.1293 8.55069C18.5139 7.48028 16.0865 6.89836 14.005 6.89836C11.7922 6.89836 10.0364 7.53706 8.79051 8.78672C6.35936 11.209 6.30258 15.5816 8.56206 21.1205C3.05094 23.438 0 26.5685 0 29.9981C0 33.4277 3.05094 36.5582 8.56206 38.877C6.30258 44.4146 6.36188 48.7871 8.79051 51.2082C10.0364 52.4629 11.7897 53.0966 14.005 53.0966C16.089 53.0966 18.5139 52.5146 21.1293 51.4442C23.4481 56.949 26.5748 59.9962 30.0006 59.9962C33.4264 59.9962 36.5569 56.9478 38.8757 51.4442C41.4912 52.5134 43.9185 53.0966 46 53.0966C48.2128 53.0966 49.9623 52.4629 51.2095 51.2082C53.6381 48.7884 53.6974 44.4159 51.4379 38.877C56.9491 36.5582 60 33.4277 60 29.9981Z" fill="#645BD0"/>
</svg>
