<svg viewBox="0 0 33 32" xmlns="http://www.w3.org/2000/svg">
<path d="M24.7658 16C25.6189 14.7976 26.3359 13.6025 26.9061 12.4425C29.2531 13.4113 30.7296 14.6663 30.7296 16C30.7296 17.2704 29.3353 18.5631 26.9149 19.5757C26.344 18.4109 25.6215 17.2085 24.7658 16ZM9.80534 22.196C10.0538 23.6583 10.3924 25.0223 10.8146 26.2517C9.5697 26.7668 8.42786 27.0462 7.46981 27.0462C6.64103 27.0462 6.00749 26.8327 5.5867 26.414C4.68858 25.5152 4.7586 23.6159 5.75704 21.1881C6.98439 21.6076 8.34504 21.9469 9.80534 22.196ZM7.23754 16C6.38115 17.2085 5.65942 18.4089 5.08715 19.5757C2.66678 18.5645 1.2738 17.2718 1.2738 16C1.27245 14.7282 2.66544 13.4356 5.0885 12.4237C5.65942 13.5877 6.38115 14.7908 7.23754 16ZM22.1974 9.80062C21.9482 8.34032 21.6083 6.97765 21.1875 5.74761C22.4337 5.23256 23.5755 4.95248 24.5349 4.95248C25.363 4.95248 25.9952 5.16591 26.4153 5.58468C27.3148 6.4855 27.2441 8.38409 26.2463 10.8132C25.0392 10.3944 23.6772 10.0531 22.1974 9.80062ZM18.7395 22.6033C19.4653 22.5535 20.1735 22.4835 20.8663 22.3939C20.6482 23.5829 20.3674 24.7005 20.0281 25.7172C19.0781 25.2418 18.0911 24.6547 17.0833 23.9626C17.638 23.5365 18.1901 23.0834 18.7395 22.6033ZM13.2639 22.6033C13.8133 23.0834 14.3667 23.5365 14.9201 23.9626C13.9129 24.6547 12.9239 25.2418 11.9766 25.7172C11.6366 24.7005 11.3565 23.5829 11.137 22.3939C11.8298 22.4842 12.5388 22.5535 13.2639 22.6033ZM13.2659 9.39465C12.5388 9.44447 11.8298 9.51584 11.137 9.60606C11.3565 8.41506 11.6366 7.29879 11.9766 6.28284C12.9239 6.75749 13.9129 7.34458 14.9201 8.03601C14.3667 8.46219 13.8139 8.91798 13.2659 9.39465ZM18.7395 9.39599C18.1915 8.91933 17.638 8.46286 17.0833 8.03601C18.0911 7.34458 19.0781 6.75749 20.0281 6.28284C20.3674 7.29879 20.6482 8.41371 20.8663 9.59999C20.1803 9.5118 19.4673 9.44716 18.7395 9.39599ZM23.9647 14.9194C23.5351 14.3647 23.082 13.8112 22.6054 13.2639C22.5569 12.5469 22.4875 11.8433 22.398 11.1552C23.5971 11.3814 24.7079 11.6649 25.7077 11.9981C25.2317 12.9508 24.6433 13.9317 23.9647 14.9194ZM22.6054 18.7368C23.082 18.1888 23.5351 17.6354 23.9647 17.0813C24.648 18.0784 25.2405 19.0654 25.7185 20.0254C24.7026 20.3654 23.5843 20.6462 22.3966 20.8656C22.4848 20.1715 22.5542 19.4605 22.6054 18.7368ZM8.03938 17.0813C8.4669 17.6354 8.92 18.1874 9.39802 18.7348C9.44649 19.4606 9.51853 20.1715 9.60538 20.8656C8.41708 20.6462 7.30081 20.3654 6.28419 20.0254C6.76086 19.064 7.35401 18.0777 8.03938 17.0813ZM9.39802 13.2652C8.92 13.8112 8.4669 14.364 8.03938 14.9187C7.35401 13.9216 6.76355 12.9333 6.28419 11.9739C7.30081 11.6332 8.41708 11.3538 9.60606 11.1344C9.51853 11.8292 9.44649 12.5388 9.39802 13.2652ZM22.6915 16.6463C22.6956 16.4295 22.7057 16.2154 22.7057 15.9993C22.7057 15.7825 22.6956 15.5705 22.6915 15.3543C22.8632 15.5705 23.0221 15.7852 23.1843 16C23.0221 16.2154 22.8632 16.4309 22.6915 16.6463ZM20.2806 21.1881C20.4348 21.038 20.591 20.8919 20.7424 20.7404C20.8939 20.5876 21.0394 20.4307 21.1881 20.2752C21.1585 20.5485 21.1188 20.8131 21.0811 21.0791C20.8151 21.1161 20.5519 21.1565 20.2806 21.1881ZM15.3631 22.6909C15.5772 22.6936 15.7859 22.703 16.0013 22.703C16.2175 22.703 16.4255 22.6936 16.6409 22.6909C16.4255 22.8592 16.2148 23.0207 16.0013 23.181C15.7886 23.0207 15.5772 22.8592 15.3631 22.6909ZM10.8125 20.2752C10.9633 20.4307 11.1074 20.5876 11.2603 20.7404C11.4124 20.8919 11.5686 21.038 11.7228 21.1881C11.4521 21.1565 11.1869 21.1161 10.9223 21.0791C10.8846 20.8131 10.8449 20.5472 10.8125 20.2752ZM9.3105 15.3543C9.30512 15.5705 9.29703 15.7825 9.29703 16C9.29703 16.2154 9.30512 16.4295 9.3105 16.643C9.13882 16.4295 8.98128 16.2141 8.8197 15.9993C8.98128 15.7839 9.13882 15.5705 9.3105 15.3543ZM11.7214 10.8132C11.5686 10.9607 11.4124 11.1074 11.2603 11.2589C11.1074 11.4124 10.9633 11.5693 10.8125 11.7241C10.8449 11.4521 10.8846 11.1875 10.9223 10.9203C11.1869 10.8826 11.4521 10.8449 11.7214 10.8132ZM16.6409 9.30916C16.4242 9.30512 16.2175 9.29501 16.0013 9.29501C15.7859 9.29501 15.5772 9.30377 15.3631 9.30713C15.5772 9.13949 15.7886 8.97791 16.0013 8.81767C16.2148 8.97791 16.4242 9.14084 16.6409 9.30916ZM21.1881 11.7241C21.0394 11.5693 20.8939 11.4111 20.7424 11.2589C20.5957 11.1108 20.4449 10.9694 20.2967 10.826C20.5627 10.859 20.8226 10.8994 21.0831 10.9378C21.1188 11.1983 21.1585 11.4568 21.1881 11.7241ZM16.0013 21.4305H16C15.2446 21.4305 14.5047 21.4009 13.7742 21.3605C13.2302 20.8764 12.6909 20.3688 12.1617 19.8409C11.6299 19.3077 11.1276 18.7657 10.6415 18.2197C10.5998 17.4906 10.5708 16.752 10.5708 16C10.5708 15.248 10.5998 14.5094 10.6415 13.7796C11.1276 13.2329 11.6285 12.6916 12.1597 12.1584C12.6903 11.6299 13.2282 11.1242 13.7708 10.6402C14.5047 10.5991 15.2466 10.5702 16.0013 10.5702C16.7574 10.5702 17.5027 10.6011 18.2352 10.6469C18.7772 11.1269 19.3138 11.6332 19.8403 12.1584C20.3735 12.6916 20.8751 13.2329 21.3625 13.7796C21.4022 14.5094 21.4298 15.2473 21.4298 15.9993C21.4298 16.752 21.4022 17.4906 21.3591 18.2197C20.8751 18.7664 20.3735 19.3077 19.8403 19.8409C19.3118 20.3688 18.7745 20.8764 18.2298 21.3605C17.4987 21.4009 16.7574 21.4305 16.0013 21.4305ZM16.0013 1.27178C17.2718 1.27178 18.5645 2.66409 19.577 5.08513C18.4224 5.65201 17.2193 6.37577 16.0013 7.23888C14.7827 6.37509 13.5796 5.65067 12.427 5.08378C13.4389 2.66409 14.7316 1.27178 16.0013 1.27178ZM7.46981 4.95248C8.42786 4.95248 9.5697 5.23256 10.8146 5.74761C10.3924 6.97765 10.0538 8.341 9.80534 9.80197C8.34504 10.0504 6.98439 10.3917 5.75704 10.8112C4.7586 8.38341 4.68858 6.48483 5.5867 5.58468C6.00749 5.16591 6.64103 4.95248 7.46981 4.95248ZM16.0013 30.7275C14.7316 30.7275 13.4389 29.3346 12.427 26.9149C13.5803 26.3487 14.7827 25.6249 16.0013 24.7605C17.2193 25.6236 18.4224 26.3473 19.577 26.9142C18.5645 29.3346 17.2718 30.7275 16.0013 30.7275ZM24.5349 27.0462C23.5755 27.0462 22.4337 26.7668 21.1875 26.2517C21.6083 25.0223 21.9482 23.6583 22.1974 22.196C23.6563 21.9469 25.019 21.6076 26.245 21.1881C27.2428 23.6173 27.3134 25.5152 26.4153 26.414C25.9945 26.8327 25.3617 27.0462 24.5349 27.0462ZM32.002 16C32.002 14.1357 30.2704 12.4728 27.434 11.267C28.6404 8.31205 28.6101 5.97853 27.3148 4.68655C26.6483 4.02002 25.7138 3.67936 24.5349 3.67936C23.4247 3.67936 22.13 3.98973 20.7337 4.56066C19.4983 1.6239 17.8286 0 16.0013 0C14.1741 0 12.5038 1.6239 11.2697 4.56066C9.87469 3.98973 8.58001 3.67936 7.46981 3.67936C6.28958 3.67936 5.35308 4.02002 4.68857 4.68655C3.39187 5.97853 3.36159 8.3107 4.56672 11.265C1.62727 12.5011 0 14.1708 0 16C0 17.8292 1.62727 19.4989 4.56672 20.7357C3.36159 23.6893 3.39322 26.0215 4.68857 27.3128C5.35308 27.982 6.28824 28.32 7.46981 28.32C8.58136 28.32 9.87469 28.0096 11.2697 27.4387C12.5065 30.3748 14.1741 32 16.0013 32C17.8286 32 19.4983 30.3741 20.735 27.4387C22.13 28.0089 23.4247 28.32 24.5349 28.32C25.7151 28.32 26.6483 27.982 27.3135 27.3128C28.6088 26.0221 28.6404 23.69 27.4353 20.7357C30.3748 19.4989 32.002 17.8292 32.002 16Z" fill="#645BD0"/>
<path d="M18.5382 16C18.5382 17.3997 17.4031 18.5355 16.0014 18.5355C14.5996 18.5355 13.4652 17.3997 13.4652 16C13.4652 14.5983 14.5996 13.4632 16.0014 13.4632C17.4031 13.4632 18.5382 14.5983 18.5382 16Z" fill="white"/>
</svg>
