<svg viewBox="0 0 16 16" xmlns="http://www.w3.org/2000/svg">
    <path fill-rule="evenodd" clip-rule="evenodd" d="M10.6029 9.72849H11.2765L15.5314 13.9919L14.2609 15.2624L9.99753 11.0075V10.3339L9.76731 10.0951C8.79526 10.9308 7.5333 11.4338 6.16049 11.4338C3.09939 11.4338 0.618103 8.95256 0.618103 5.89145C0.618103 2.83035 3.09939 0.34906 6.16049 0.34906C9.2216 0.34906 11.7029 2.83035 11.7029 5.89145C11.7029 7.26426 11.1998 8.52622 10.3642 9.49827L10.6029 9.72849ZM2.32347 5.8914C2.32347 8.01456 4.03735 9.72844 6.16051 9.72844C8.28368 9.72844 9.99755 8.01456 9.99755 5.8914C9.99755 3.76824 8.28368 2.05436 6.16051 2.05436C4.03735 2.05436 2.32347 3.76824 2.32347 5.8914Z" />
</svg>
