<svg  viewBox="0 0 24 31" fill="none" xmlns="http://www.w3.org/2000/svg">
<path d="M3.28752 20.5714L3.43132 20.4277L11.4204 12.4386L19.4095 4.44948L19.6382 4.22076C19.8997 4.35245 20.1354 4.47133 20.3364 4.57276C20.5949 4.70316 20.7962 4.80473 20.9219 4.86761C21.4114 5.12862 21.4815 5.16377 21.8119 5.32896C22.1591 5.50258 22.1895 5.51465 22.6625 5.67238C22.7425 5.71211 22.8105 5.74494 22.8698 5.77357C23.0048 5.83877 23.0946 5.88209 23.177 5.93509C23.2646 5.99149 23.3041 6.03567 23.3393 6.114C23.3857 6.21723 23.4314 6.39952 23.4608 6.75581C23.4712 6.88247 23.4792 7.02566 23.4852 7.18847C23.4761 7.18337 23.4668 7.17843 23.4573 7.1737C23.3441 7.11762 23.2298 7.10534 23.1326 7.11418C22.9636 7.12955 22.8273 7.21093 22.757 7.25582C22.6741 7.30879 22.588 7.37566 22.5115 7.43608L22.5089 7.4381C22.4042 7.52191 22.0725 7.83515 21.5964 8.29275C21.1075 8.76269 20.4403 9.4104 19.6438 10.1885C18.0506 11.7447 15.9379 13.8248 13.6943 16.052C13.6942 16.052 13.6942 16.0521 13.6941 16.0521L5.54798 24.1331C4.784 23.1594 4.10858 22.141 3.58545 21.1504C3.48275 20.955 3.38348 20.7621 3.28752 20.5714Z" fill="#645BD0" stroke="#645BD0"/>
<path d="M18.2232 4.22152L10.7133 11.7315L3.24787 19.1969L2.883 18.3394L2.88216 18.3375C1.90166 16.0602 1.25307 12.3668 1.25307 8.97452V6.14598L2.33535 5.74327L2.33537 5.74333L2.34318 5.74028C3.12029 5.43619 5.69047 4.24898 8.02065 3.03479L12.0775 0.990881L15.3517 2.70447L15.3534 2.70537L18.2232 4.22152ZM22.7478 10.746L22.7478 10.7462C22.33 17.9133 19.3166 23.7601 14.1145 27.6245C13.5794 27.9974 13.0666 28.3416 12.6622 28.5914C12.4583 28.7173 12.2898 28.8144 12.1637 28.8783C12.1216 28.8997 12.0878 28.9155 12.0618 28.9267C12.0391 28.919 12.0051 28.9064 11.9582 28.8859C11.843 28.8356 11.6926 28.7573 11.5111 28.6514C11.1496 28.4405 10.6975 28.1396 10.2144 27.7894C9.24489 27.0865 8.19087 26.2143 7.53221 25.5242L7.53223 25.5242L7.52842 25.5203L6.565 24.5328L14.3985 16.762L14.3986 16.7618C16.6407 14.5362 18.7516 12.458 20.3426 10.9038C21.1382 10.1266 21.8032 9.48101 22.2894 9.01372C22.5242 8.78798 22.7165 8.60464 22.8613 8.4685C22.8595 8.57007 22.8562 8.68596 22.8511 8.81791C22.8335 9.28271 22.797 9.90904 22.7478 10.746ZM12.0088 28.9469C12.0089 28.9468 12.0106 28.9462 12.0138 28.9455C12.0104 28.9465 12.0088 28.9469 12.0088 28.9469ZM23.3114 8.08888C23.3152 8.08673 23.3171 8.08591 23.317 8.08604C23.317 8.08616 23.315 8.08724 23.3114 8.08888Z" fill="white" stroke="#645BD0"/>
</svg>
