<svg viewBox="0 0 32 32" fill="none" xmlns="http://www.w3.org/2000/svg">
<path d="M20.3994 17.4389C19.4516 16.9212 18.3647 16.6278 17.2125 16.6278H14.8819C13.6974 16.6278 12.5827 16.938 11.6176 17.482L20.3994 17.4389ZM20.3994 17.4389C22.4667 18.5671 23.8732 20.7625 23.8732 23.2884M20.3994 17.4389L23.8732 23.2884M8.22127 26.0347V25.0347V23.2884C8.22127 20.795 9.59224 18.6224 11.6171 17.4823L8.22127 26.0347ZM8.22127 26.0347H9.22127M8.22127 26.0347H9.22127M9.22127 26.0347H22.8732H23.8732M9.22127 26.0347H23.8732M23.8732 26.0347V25.0347M23.8732 26.0347V25.0347M23.8732 25.0347V23.2884M23.8732 25.0347V23.2884" fill="white" stroke="#645BD0" stroke-width="2"/>
<path d="M10.6625 11.5985C10.6625 8.54377 13.026 5.96536 16.0475 5.96536C19.0691 5.96536 21.4325 8.54377 21.4325 11.5985C21.4325 13.8165 20.1974 15.7633 18.3707 16.6796L10.6625 11.5985ZM10.6625 11.5985C10.6625 13.8165 11.8976 15.7633 13.7243 16.6796L10.6625 11.5985ZM13.7249 16.6799C14.4283 17.0331 15.217 17.231 16.0475 17.231C16.878 17.231 17.6667 17.0331 18.3701 16.6799H13.7249Z" fill="white" stroke="#645BD0" stroke-width="2"/>
</svg>