<svg viewBox="0 0 64 72" fill="none" xmlns="http://www.w3.org/2000/svg">
<path d="M19.5551 52.8492C18.7825 51.5188 18.0032 49.9478 17.1924 48.0357L16.6513 46.7538L17.609 45.7544C21.0822 42.1343 21.5492 37.8005 19.1295 31.7301C18.9198 31.2163 18.6406 30.6463 18.2742 30.0154C16.4886 26.9406 13.1434 23.1092 10.4237 20.1131L9.68037 19.2914L9.93589 18.2099C10.8037 14.5791 12.6551 11.8461 15.2955 10.3127L17.7425 8.89175C20.3746 7.3632 23.6687 7.10814 27.2578 8.15066L28.3294 8.46154L28.6691 9.51765C29.9289 13.3615 31.5959 18.1675 33.386 21.2501C33.7479 21.8733 34.0994 22.4086 34.4441 22.8366C38.52 27.9452 42.5127 29.6891 47.3839 28.4635L48.7294 28.1254L49.569 29.2339C50.8167 30.8923 51.8105 32.3487 52.5837 33.6803C53.1276 34.6167 53.5684 35.5032 53.8923 36.303C55.4185 40.1407 59.9232 51.4632 48.6919 60.3021L46.8414 61.3418L44.6138 62.6704C31.3648 68.0476 23.7581 58.5207 21.1894 55.2943C20.6498 54.6197 20.1039 53.7942 19.5551 52.8492Z" fill="#645BD0"/>
<path d="M32.8014 24.1343C30.4915 21.2453 28.4044 15.4613 26.6789 10.1724C23.9926 9.37943 21.1401 9.3507 18.8011 10.7091L17.7974 11.2919L17.3578 11.5472L16.3541 12.13C14.0178 13.4868 12.629 15.9785 11.9864 18.7047C15.7247 22.8247 19.7167 27.5024 21.0783 30.9422C23.0178 35.8036 24.1849 41.9197 19.1242 47.2056C20.2873 49.9471 21.5331 52.3534 22.8396 53.992C27.4068 59.7238 34.3741 65.4249 45.4793 59.9723L45.5056 60.0176C45.5861 59.9653 45.6335 59.9131 45.7136 59.8665C45.7883 59.8232 45.871 59.7999 45.9452 59.7623L45.9189 59.717C56.1559 52.7758 54.6546 43.9004 51.9482 37.0881C51.1698 35.1428 49.6946 32.8697 47.8955 30.4975C40.7951 32.2838 36.0625 28.2283 32.8014 24.1343Z" fill="#645BD0"/>
<path d="M17.1948 48.0343C15.2775 43.5422 13.5465 38.0975 12.1548 33.721C11.4582 31.5474 10.8355 29.5708 10.2871 28.0089C9.28121 25.1626 9.14806 21.4953 9.93828 18.2084L12.2682 15.6141L13.5393 17.2914C16.5745 20.6271 19.9438 24.5125 21.9124 27.9026C22.3816 28.7104 22.7571 29.4718 23.0341 30.1716C24.1415 32.9571 27.5318 41.4564 20.6416 48.6536L18.4451 50.9577L17.1948 48.0343Z" fill="#645BD0"/>
<path d="M29.7471 23.3632C27.785 19.959 26.0802 15.107 24.679 10.8224L22.3059 8.92237L27.2602 8.14921C30.5157 9.10114 33.6287 11.0236 35.5995 13.3094C36.6746 14.5496 38.0745 16.0689 39.6122 17.7427C42.7283 21.1222 46.6062 25.3361 49.5714 29.2325L51.4954 31.7559L48.401 32.5332C38.7471 34.952 33.0369 27.8058 31.1574 25.4543C30.6868 24.8669 30.2117 24.1633 29.7471 23.3632Z" fill="#645BD0"/>
<path d="M30.1175 28.3113C30.6055 29.1516 30.081 30.3557 28.9557 31.0092C27.8276 31.6643 26.519 31.5247 26.0311 30.6844L16.8883 14.9407C16.3997 14.0993 16.9232 12.8869 18.0513 12.2318C19.1766 11.5783 20.4862 11.7262 20.9748 12.5676L30.1175 28.3113Z" fill="#9D96F0"/>
</svg>
