<svg viewBox="0 0 60 60" fill="none" xmlns="http://www.w3.org/2000/svg">
<g clip-path="url(#clip0)">
<path d="M53.75 55H6.25C2.805 55 0 52.195 0 48.75V43.75C0 43.06 0.56 42.5 1.25 42.5H2.5C5.2575 42.5 7.5 40.2575 7.5 37.5C7.5 34.7425 5.2575 32.5 2.5 32.5H1.25C0.56 32.5 0 31.94 0 31.25V26.25C0 22.805 2.805 20 6.25 20H53.75C57.195 20 60 22.805 60 26.25V31.25C60 31.94 59.44 32.5 58.75 32.5H57.5C54.7425 32.5 52.5 34.7425 52.5 37.5C52.5 38.835 53.02 40.09 53.965 41.035C54.9075 41.98 56.1625 42.5 57.4975 42.5H58.7475C59.4375 42.5 59.9975 43.06 59.9975 43.75V48.75C60 52.195 57.195 55 53.75 55ZM2.5 45V48.75C2.5 50.8175 4.1825 52.5 6.25 52.5H53.75C55.8175 52.5 57.5 50.8175 57.5 48.75V45H57.4975C55.495 45 53.6125 44.22 52.1975 42.805C50.78 41.3875 50 39.5025 50 37.5C50 33.365 53.365 30 57.5 30V26.25C57.5 24.1825 55.8175 22.5 53.75 22.5H6.25C4.1825 22.5 2.5 24.1825 2.5 26.25V30C6.635 30 10 33.365 10 37.5C10 41.635 6.635 45 2.5 45Z" fill="black"/>
<path d="M21.25 25C20.56 25 20 24.44 20 23.75V21.25C20 20.56 20.56 20 21.25 20C21.94 20 22.5 20.56 22.5 21.25V23.75C22.5 24.44 21.94 25 21.25 25Z" fill="black"/>
<path d="M21.25 46.1525C20.56 46.1525 20 45.5925 20 44.9025V40.675C20 39.985 20.56 39.425 21.25 39.425C21.94 39.425 22.5 39.9825 22.5 40.675V44.905C22.5 45.595 21.94 46.1525 21.25 46.1525ZM21.25 35.5775C20.56 35.5775 20 35.0175 20 34.3275V30.0975C20 29.4075 20.56 28.8475 21.25 28.8475C21.94 28.8475 22.5 29.4075 22.5 30.0975V34.3275C22.5 35.0175 21.94 35.5775 21.25 35.5775Z" fill="black"/>
<path d="M21.25 55C20.56 55 20 54.44 20 53.75V51.25C20 50.56 20.56 50 21.25 50C21.94 50 22.5 50.56 22.5 51.25V53.75C22.5 54.44 21.94 55 21.25 55Z" fill="black"/>
<path d="M6.25 22.5C5.7425 22.5 5.265 22.19 5.08 21.6875C4.8375 21.04 5.165 20.32 5.8125 20.08L45.5625 5.2375C47.495 4.5125 49.765 5.5975 50.425 7.545L54.9325 20.8475C55.1525 21.5025 54.8025 22.21 54.15 22.4325C53.5025 22.655 52.7875 22.3025 52.565 21.65L48.0575 8.3475C47.8375 7.6975 47.0825 7.3425 46.435 7.5775L6.685 22.42C6.5425 22.475 6.395 22.5 6.25 22.5Z" fill="black"/>
</g>
<!-- <defs> -->
<!-- <clipPath id="clip0">
<rect width="60" height="60" fill="white"/>
</clipPath> -->
<!-- </defs> -->
</svg>
