<svg viewBox="0 0 58 58" fill="none" xmlns="http://www.w3.org/2000/svg">
<g clip-path="url(#clip0)">
<path d="M46.5692 17.2653L50.0419 13.7925L46.6247 10.3741L42.9097 14.0892C39.5159 11.6841 35.5556 10.2018 31.4167 9.7875V4.83333H36.25V0H21.75V4.83333H26.5833V9.7875C22.4444 10.2018 18.4841 11.6841 15.0903 14.0892L11.3752 10.3741L7.95808 13.7925L11.4308 17.2653C8.18922 20.6974 6.02387 25.0039 5.20219 29.6528C4.3805 34.3017 4.93846 39.0895 6.80717 43.4249C8.67587 47.7603 11.7735 51.4534 15.7174 54.0482C19.6614 56.6429 24.279 58.0257 29 58.0257C33.721 58.0257 38.3386 56.6429 42.2825 54.0482C46.2265 51.4534 49.3241 47.7603 51.1928 43.4249C53.0615 39.0895 53.6195 34.3017 52.7978 29.6528C51.9761 25.0039 49.8108 20.6974 46.5692 17.2653ZM29 53.1667C25.1762 53.1667 21.4383 52.0328 18.259 49.9084C15.0796 47.784 12.6016 44.7646 11.1383 41.2319C9.67503 37.6992 9.29216 33.8119 10.0381 30.0616C10.7841 26.3113 12.6254 22.8664 15.3293 20.1626C18.0331 17.4588 21.4779 15.6175 25.2282 14.8715C28.9785 14.1255 32.8658 14.5084 36.3985 15.9717C39.9312 17.435 42.9507 19.913 45.0751 23.0923C47.1994 26.2717 48.3333 30.0096 48.3333 33.8333C48.3276 38.9591 46.2888 43.8732 42.6644 47.4977C39.0399 51.1222 34.1257 53.1609 29 53.1667Z" fill="white"/>
<path d="M29 19.3333V33.8333H14.5C14.5 36.7012 15.3504 39.5046 16.9437 41.8891C18.537 44.2736 20.8016 46.1321 23.4511 47.2296C26.1006 48.3271 29.0161 48.6142 31.8288 48.0547C34.6415 47.4952 37.2252 46.1142 39.253 44.0864C41.2809 42.0585 42.6619 39.4749 43.2214 36.6621C43.7809 33.8494 43.4937 30.934 42.3963 28.2844C41.2988 25.6349 39.4403 23.3703 37.0558 21.777C34.6713 20.1838 31.8678 19.3333 29 19.3333Z" fill="white"/>
</g>
<defs>
<clipPath id="clip0">
<rect width="58" height="58" fill="white"/>
</clipPath>
</defs>
</svg>
