<svg viewBox="0 0 43 30" xmlns="http://www.w3.org/2000/svg">
    <path fill-rule="evenodd" clip-rule="evenodd" d="M15 15C19.1357 15 22.5 11.6357 22.5 7.5C22.5 3.36429 19.1357 0 15 0C10.8643 0 7.5 3.36429 7.5 7.5C7.5 11.6357 10.8643 15 15 15ZM15 4.28574C16.7786 4.28574 18.2143 5.72145 18.2143 7.50002C18.2143 9.27859 16.7786 10.7143 15 10.7143C13.2214 10.7143 11.7857 9.27859 11.7857 7.50002C11.7857 5.72145 13.2214 4.28574 15 4.28574ZM5.93571 25.7143H15.1071C15.0429 26.0572 15 26.4214 15 26.7857V30H0V26.7857C0 21.7929 9.98571 19.2857 15 19.2857C16.2 19.2857 17.6786 19.4357 19.2429 19.7143C17.7214 20.7429 16.4571 22.0286 15.7286 23.5929C15.6107 23.5929 15.4875 23.5875 15.3643 23.5822C15.2411 23.5768 15.1179 23.5714 15 23.5714C11.7214 23.5714 8.05714 24.6429 5.93571 25.7143ZM31.0714 20.3572C27.1286 20.3572 19.2857 22.5214 19.2857 26.7857V30H42.8571V26.7857C42.8571 22.5214 35.0143 20.3572 31.0714 20.3572ZM36.4286 11.7857C36.4286 13.8 35.2929 15.5357 33.6643 16.4571C32.8929 16.8857 32.0143 17.1429 31.0714 17.1429C30.1286 17.1429 29.25 16.8857 28.4786 16.4571C26.85 15.5357 25.7143 13.8 25.7143 11.7857C25.7143 8.82858 28.1143 6.42858 31.0714 6.42858C34.0286 6.42858 36.4286 8.82858 36.4286 11.7857Z" />
</svg>
