<svg  viewBox="0 0 36 24" fill="none" xmlns="http://www.w3.org/2000/svg">
<path d="M22.3994 13.4389C21.4516 12.9212 20.3647 12.6278 19.2125 12.6278H16.8819C15.6974 12.6278 14.5827 12.938 13.6176 13.482L22.3994 13.4389ZM22.3994 13.4389C24.4667 14.5671 25.8732 16.7625 25.8732 19.2884M22.3994 13.4389L25.8732 19.2884M10.2213 22.0347V21.0347V19.2884C10.2213 16.795 11.5922 14.6224 13.6171 13.4823L10.2213 22.0347ZM10.2213 22.0347H11.2213M10.2213 22.0347H11.2213M11.2213 22.0347H24.8732H25.8732M11.2213 22.0347H25.8732M25.8732 22.0347V21.0347M25.8732 22.0347V21.0347M25.8732 21.0347V19.2884M25.8732 21.0347V19.2884" fill="white" stroke="#645BD0" stroke-width="2"/>
<path d="M22.8028 12.1494L21.5212 12.9845L22.8003 13.8234C23.1669 14.0638 23.5133 14.3459 23.8341 14.6668C25.0697 15.9024 25.7481 17.5405 25.7481 19.2885V20.1097V21.1097H26.7481H34H35V20.1097V17.7203C35 14.0562 32.0204 11.0766 28.3563 11.0766H26.4188C25.0876 11.0766 23.8444 11.4707 22.8028 12.1494Z" fill="white" stroke="#645BD0" stroke-width="2"/>
<path d="M1 20.1097V21.1097H2H9.34625H10.3463V20.1097V19.2885C10.3463 17.5407 11.0252 15.9025 12.2609 14.6668C12.5699 14.3578 12.9022 14.0848 13.2537 13.8503L14.5019 13.0176L13.2529 12.1861C12.2006 11.4855 10.9369 11.0766 9.58125 11.0766H7.64375C3.97959 11.0766 1 14.0562 1 17.7203V20.1097Z" fill="white" stroke="#645BD0" stroke-width="2"/>
<path d="M22.5837 7.63788L22.5837 7.63789C22.606 10.338 24.7095 12.6079 27.3903 12.6079L27.4288 12.6076L27.4288 12.6077C28.7429 12.5968 29.9638 12.0401 30.8597 11.0638L30.8597 11.0637C31.7335 10.1116 32.2019 8.86325 32.1912 7.55855L32.1912 7.55849C32.1689 4.85832 30.0654 2.5885 27.3846 2.5885L27.3461 2.58874L27.3461 2.58872C24.6474 2.611 22.5613 4.92512 22.5837 7.63788Z" fill="white" stroke="#645BD0" stroke-width="2"/>
<path d="M12.0848 11.0638C12.9586 10.1116 13.4271 8.86324 13.4163 7.55849C13.394 4.85832 11.2905 2.5885 8.60963 2.5885L8.57112 2.58874L8.57112 2.58872C5.87248 2.611 3.78639 4.9251 3.80879 7.63786C3.83103 10.3381 5.93459 12.6079 8.61538 12.6079L8.65389 12.6076L8.65389 12.6077C9.96786 12.5968 11.1888 12.0401 12.0848 11.0638ZM12.0848 11.0638L11.348 10.3876L12.0848 11.0638Z" fill="white" stroke="#645BD0" stroke-width="2"/>
<path d="M12.6625 7.59849C12.6625 4.54377 15.0259 1.96536 18.0475 1.96536C21.0691 1.96536 23.4325 4.54377 23.4325 7.59849C23.4325 9.81647 22.1974 11.7633 20.3707 12.6796L12.6625 7.59849ZM12.6625 7.59849C12.6625 9.81647 13.8976 11.7633 15.7243 12.6796L12.6625 7.59849ZM15.7249 12.6799C16.4283 13.0331 17.217 13.231 18.0475 13.231C18.878 13.231 19.6667 13.0331 20.3701 12.6799H15.7249Z" fill="white" stroke="#645BD0" stroke-width="2"/>
</svg>
