<svg viewBox="0 0 272 138" xmlns="http://www.w3.org/2000/svg">
<path d="M27 69H243V100.724H27V69Z" fill="#B5B0B0"/>
<path d="M243 99.1379C243 112.717 194.647 123.724 135 123.724C75.3532 123.724 27 112.717 27 99.1379C27 85.5593 75.3532 74.5517 135 74.5517C194.647 74.5517 243 85.5593 243 99.1379Z" fill="#B5B0B0"/>
<path d="M0 31H272V71H0V31Z" fill="#C4C4C4"/>
<path d="M272 69C272 86.1208 211.111 100 136 100C60.8893 100 0 86.1208 0 69C0 51.8792 60.8893 38 136 38C211.111 38 272 51.8792 272 69Z" fill="#C4C4C4"/>
<path d="M272 31C272 48.1208 211.111 62 136 62C60.8893 62 0 48.1208 0 31C0 13.8792 60.8893 0 136 0C211.111 0 272 13.8792 272 31Z" fill="#463A3A"/>
</svg>
