<svg viewBox="0 0 59 71" xmlns="http://www.w3.org/2000/svg">
<path d="M29.7257 0C22.9874 6.1546 12.7462 4.72393 8.46785 3.23926L2.05037 15.3865C2.45146 15.6564 3.57452 16.6012 4.85801 18.2209C7.26457 21.4601 6.86348 24.6994 6.06129 27.5337C4.77779 29.8012 2.85255 37.3865 2.05037 40.8957C1.72544 46.8002 2.97992 48.187 5.60057 51.0842C6.2148 51.7632 6.90408 52.5253 7.66566 53.4479C12.1579 58.9546 22.6398 64.1104 27.3192 66H29.7257H32.1323C50.9836 57.092 50.5825 55.0675 54.1924 51.0184C57.8022 46.9693 57 39.2761 56.5989 36.4417C56.1978 33.6074 53.3902 30.773 52.9891 24.6994C52.6682 19.8405 55.5293 16.4663 57 15.3865C56.3315 14.0368 54.1121 9.63681 50.5825 2.83436C39.352 7.28834 35.341 3.23926 29.7257 0Z" fill="#C4C4C4"/>
<g filter="url(#filter0_d)">
<path fill-rule="evenodd" clip-rule="evenodd" d="M29.7093 2C23.461 7.6692 13.9646 6.35136 9.99746 4.98379L4.04671 16.173C4.41863 16.4216 5.46001 17.2919 6.65016 18.7838C8.88169 21.7676 8.50977 24.7514 7.76592 27.3622C6.57577 29.4509 4.79055 36.4379 4.04671 39.6703C3.74541 45.1091 4.90865 46.3866 7.33871 49.0553C7.90827 49.6808 8.54742 50.3827 9.25361 51.2325C13.4191 56.305 23.1387 61.0541 27.4778 62.7947H29.7093V2Z" fill="white"/>
</g>
<g filter="url(#filter1_d)">
<path d="M49.0088 4.61082C38.595 8.71352 34.8758 4.98379 29.6689 2V62.7947H31.9004C49.3807 54.5893 49.0088 52.7244 52.3561 48.9947C55.7034 45.2649 54.9596 38.1784 54.5876 35.5676C54.2157 32.9568 51.6123 30.346 51.2404 24.7514C50.9428 20.2757 53.5959 17.1676 54.9596 16.173C54.3397 14.9298 52.2817 10.8768 49.0088 4.61082Z" fill="white"/>
</g>
<path d="M22.1356 41.5165C16.2587 36.0112 14.9078 34.5927 15.1779 34.1536C15.4481 33.6132 29.0932 20.6099 29.4647 20.5086C29.7349 20.4073 44.2243 34.1199 44.2243 34.4576C44.2243 34.7954 30.0051 48.3053 29.6336 48.3053C29.5323 48.3053 26.1548 45.2318 22.1356 41.5165ZM35.0713 40.9424L40.2389 35.9775L36.7601 32.5662C34.8349 30.7086 32.4031 28.4119 31.4236 27.4662L29.566 25.7437L24.3309 30.6411C21.4263 33.343 19.0621 35.6735 19.0621 35.8086C19.0621 36.1126 29.3972 45.941 29.7011 45.9073C29.8025 45.9073 32.2005 43.6781 35.0713 40.9424Z" fill="#ED4F88"/>
<path d="M24.3647 40.2669L19.5349 35.6059L20.6833 34.5251L21.7978 33.4444L25.7157 37.1258L29.5998 40.841L32.9435 37.7675C34.7674 36.0788 36.4561 34.4576 36.6925 34.1536C37.0303 33.6808 37.1991 33.7145 38.1448 34.6265C38.719 35.1669 39.1243 35.8086 39.0905 36.0112C38.9554 36.5516 29.9713 44.9278 29.5323 44.894C29.3634 44.894 27.0329 42.8 24.3647 40.2669Z" fill="#ED4F88"/>
<path d="M27.1005 37.4636C25.7495 36.1463 24.6687 34.9642 24.6687 34.8291C24.7025 34.7278 25.8508 33.5795 27.2018 32.296L29.7012 29.9655L32.1329 32.296C33.4839 33.5795 34.5985 34.7953 34.5985 34.998C34.5985 35.3357 29.9713 39.8616 29.6674 39.8616C29.5998 39.8616 28.4177 38.7808 27.1005 37.4636Z" fill="#ED4F88"/>
<path d="M36.8284 26.0139C32.9105 22.2987 29.6006 19.2589 29.4992 19.2589C29.3641 19.2589 26.5271 21.8596 23.1496 25.0682C19.8059 28.2768 16.631 31.249 16.1244 31.7218L15.1787 32.5662V31.0464V29.5265L22.2714 22.8728L29.3641 16.1854L30.141 16.7934C30.58 17.1311 33.9237 20.2046 37.5714 23.6497C44.1913 29.8642 44.2251 29.898 44.2251 31.3166C44.2251 32.1271 44.1575 32.7689 44.09 32.7689C44.0224 32.7689 40.78 29.7291 36.8284 26.0139Z" fill="#ED4F88"/>
<defs>
<filter id="filter0_d" x="0" y="2" width="33.7093" height="68.7947" filterUnits="userSpaceOnUse" color-interpolation-filters="sRGB">
<feFlood flood-opacity="0" result="BackgroundImageFix"/>
<feColorMatrix in="SourceAlpha" type="matrix" values="0 0 0 0 0 0 0 0 0 0 0 0 0 0 0 0 0 0 127 0"/>
<feOffset dy="4"/>
<feGaussianBlur stdDeviation="2"/>
<feColorMatrix type="matrix" values="0 0 0 0 0 0 0 0 0 0 0 0 0 0 0 0 0 0 0.25 0"/>
<feBlend mode="normal" in2="BackgroundImageFix" result="effect1_dropShadow"/>
<feBlend mode="normal" in="SourceGraphic" in2="effect1_dropShadow" result="shape"/>
</filter>
<filter id="filter1_d" x="25.6689" y="2" width="33.2907" height="68.7947" filterUnits="userSpaceOnUse" color-interpolation-filters="sRGB">
<feFlood flood-opacity="0" result="BackgroundImageFix"/>
<feColorMatrix in="SourceAlpha" type="matrix" values="0 0 0 0 0 0 0 0 0 0 0 0 0 0 0 0 0 0 127 0"/>
<feOffset dy="4"/>
<feGaussianBlur stdDeviation="2"/>
<feColorMatrix type="matrix" values="0 0 0 0 0 0 0 0 0 0 0 0 0 0 0 0 0 0 0.25 0"/>
<feBlend mode="normal" in2="BackgroundImageFix" result="effect1_dropShadow"/>
<feBlend mode="normal" in="SourceGraphic" in2="effect1_dropShadow" result="shape"/>
</filter>
</defs>
</svg>
